<?xml version="1.0" standalone="no"?>
<!DOCTYPE svg PUBLIC "-//W3C//DTD SVG 1.1//EN" "http://www.w3.org/Graphics/SVG/1.1/DTD/svg11.dtd" >
<svg xmlns="http://www.w3.org/2000/svg" xmlns:xlink="http://www.w3.org/1999/xlink" version="1.1">
<metadata>
Created by FontForge 20150318 at Tue Sep 29 14:02:59 2015
 By uniteet7
Copyright (c) 2013, Natanael Gama (www.ndiscovered.com . info(at)ndiscovered.com), with Reserved Font Name Exo. This Font Software is licensed under the SIL Open Font License, Version 1.1.
</metadata>
<defs>
<font id="Exo2.0-LightItalic" horiz-adv-x="563" >
  <font-face 
    font-family="Exo 2.0 Light"
    font-weight="300"
    font-style="italic"
    font-stretch="normal"
    units-per-em="1000"
    panose-1="0 0 4 0 0 0 0 0 0 0"
    ascent="800"
    descent="-200"
    x-height="484"
    cap-height="690"
    bbox="-215 -270 1195.82 930"
    underline-thickness="50"
    underline-position="-50"
    slope="-8"
    stemh="64"
    stemv="48"
    unicode-range="U+0020-FB02"
  />
<missing-glyph horiz-adv-x="600" 
 />
    <glyph glyph-name="f_f" unicode="ff" horiz-adv-x="690" 
d="M753 663h-102c-69 0 -99 -22 -109 -94l-12 -85h163l-7 -50h-163l-67 -479c-13 -90 -57 -137 -147 -137c-27 0 -67 1 -106 6l9 47h77c66 0 93 21 104 93l66 470h-258l-71 -500c-13 -90 -57 -138 -147 -138c-27 0 -67 2 -106 6l9 47h77c66 0 93 22 104 94l70 491h-89l7 45
l89 5l11 79c13 90 59 138 152 138c32 0 94 -1 131 -6l-9 -47h-102c-69 0 -99 -21 -109 -94l-10 -70h258l13 94c13 90 59 138 152 138c32 0 94 -2 131 -6z" />
    <glyph glyph-name="f_f_i" unicode="ffi" horiz-adv-x="904" 
d="M846 484l-69 -484h-63l61 433h-252l-67 -478c-13 -90 -57 -137 -147 -137c-27 0 -67 1 -106 6l9 47h77c66 0 93 21 104 93l66 469h-258l-71 -499c-13 -90 -57 -138 -147 -138c-27 0 -67 2 -106 6l9 47h77c66 0 93 22 104 94l70 491h-89l7 45l89 5l11 79
c13 90 59 138 152 138c32 0 94 -1 131 -6l-9 -47h-102c-69 0 -99 -21 -109 -94l-10 -70h258l13 94c13 90 59 138 152 138c32 0 94 -2 131 -6l-9 -47h-102c-69 0 -99 -22 -109 -94l-12 -85h316zM826 688h29c14 0 21 -9 19 -22l-8 -59c-2 -14 -7 -19 -22 -19h-29
c-14 0 -22 8 -20 22l9 59c1 13 8 19 22 19z" />
    <glyph glyph-name="f_f_l" unicode="ffl" horiz-adv-x="967" 
d="M918 43l3 -41c-17 -7 -60 -10 -79 -10c-71 0 -111 41 -101 111l79 560h-170c-69 1 -100 -27 -110 -100l-11 -79h154l-7 -50h-154l-68 -479c-13 -90 -56 -137 -146 -137c-27 0 -68 1 -106 6l9 47h76c67 0 94 21 105 93l66 470h-257l-71 -500c-13 -90 -57 -138 -147 -138
c-27 0 -67 2 -106 6l9 47h77c66 0 93 22 104 94l70 491h-89l7 45l89 5l11 79c13 90 59 138 152 138c32 0 94 -1 131 -6l-9 -47h-102c-69 0 -99 -21 -109 -94l-10 -70h257l12 88c13 94 55 144 153 144c86 -1 207 -3 257 -10l-81 -594c-7 -46 13 -69 59 -69h53z" />
    <glyph glyph-name="fi" unicode="fi" horiz-adv-x="582" 
d="M524 484l-69 -484h-63l61 433h-253l-70 -499c-13 -90 -57 -138 -147 -138c-27 0 -67 2 -106 6l9 47h77c66 0 94 22 104 94l69 490h-87l6 46l88 5l13 88c13 94 55 144 153 144c31 0 85 -2 119 -6l-4 -47h-95c-70 0 -101 -27 -111 -100l-11 -79h317zM504 688h29
c14 0 22 -9 20 -22l-8 -59c-2 -14 -8 -19 -22 -19h-30c-14 0 -22 8 -20 22l9 59c1 13 8 19 22 19z" />
    <glyph glyph-name="fl" unicode="fl" horiz-adv-x="644" 
d="M596 43l3 -41c-17 -7 -59 -10 -79 -10c-71 0 -110 41 -101 111l79 560h-169c-70 1 -101 -27 -111 -100l-11 -79h154l-7 -51h-154l-70 -499c-13 -90 -57 -138 -147 -138c-27 0 -67 2 -106 6l9 47h77c66 0 94 22 104 94l69 490h-87l6 46l88 5l13 88c13 94 55 144 153 144
c86 -1 207 -3 257 -10l-82 -594c-6 -46 14 -69 59 -69h53z" />
    <glyph glyph-name=".notdef" horiz-adv-x="600" 
 />
    <glyph glyph-name="A" unicode="A" horiz-adv-x="612" 
d="M451 228h-301l-107 -228h-70l325 673c5 12 15 17 27 17h75c12 0 23 -9 24 -20l137 -670h-66zM440 286l-57 295c-3 20 -6 38 -9 58h-30c-9 -19 -18 -40 -27 -58l-139 -295h262z" />
    <glyph glyph-name="Aacute" unicode="&#xc1;" horiz-adv-x="612" 
d="M337 731l-22 30l183 147l33 -49zM451 228h-301l-107 -228h-70l325 673c5 12 15 17 27 17h75c12 0 23 -9 24 -20l137 -670h-66zM440 286l-57 295c-3 20 -6 38 -9 58h-30c-9 -19 -18 -40 -27 -58l-139 -295h262z" />
    <glyph glyph-name="Abreve" unicode="&#x102;" horiz-adv-x="612" 
d="M501 882l34 -9c-8 -76 -68 -124 -158 -124c-94 0 -146 51 -132 127l35 3c-8 -52 31 -81 97 -81c70 0 117 32 124 84zM451 228h-301l-107 -228h-70l325 673c5 12 15 17 27 17h75c12 0 23 -9 24 -20l137 -670h-66zM440 286l-57 295c-3 20 -6 38 -9 58h-30
c-9 -19 -18 -40 -27 -58l-139 -295h262z" />
    <glyph glyph-name="Acircumflex" unicode="&#xc2;" horiz-adv-x="612" 
d="M238 738l-19 29l149 123h46l123 -127l-25 -26l-118 102h-9zM451 228h-301l-107 -228h-70l325 673c5 12 15 17 27 17h75c12 0 23 -9 24 -20l137 -670h-66zM440 286l-57 295c-3 20 -6 38 -9 58h-30c-9 -19 -18 -40 -27 -58l-139 -295h262z" />
    <glyph glyph-name="Adieresis" unicode="&#xc4;" horiz-adv-x="612" 
d="M301 771h-21c-12 0 -19 5 -17 19l8 55c2 14 9 20 23 20h19c16 0 20 -6 18 -20l-9 -54c-1 -14 -7 -20 -21 -20zM473 771h-21c-12 0 -19 5 -17 19l8 55c2 14 8 20 22 20h20c16 0 20 -6 18 -20l-9 -54c-1 -14 -7 -20 -21 -20zM451 228h-301l-107 -228h-70l325 673
c5 12 15 17 27 17h75c12 0 23 -9 24 -20l137 -670h-66zM440 286l-57 295c-3 20 -6 38 -9 58h-30c-9 -19 -18 -40 -27 -58l-139 -295h262z" />
    <glyph glyph-name="Agrave" unicode="&#xc0;" horiz-adv-x="612" 
d="M394 731l-167 130l37 46l155 -147zM451 228h-301l-107 -228h-70l325 673c5 12 15 17 27 17h75c12 0 23 -9 24 -20l137 -670h-66zM440 286l-57 295c-3 20 -6 38 -9 58h-30c-9 -19 -18 -40 -27 -58l-139 -295h262z" />
    <glyph glyph-name="Amacron" unicode="&#x100;" horiz-adv-x="612" 
d="M515 792h-272l7 49h272zM451 228h-301l-107 -228h-70l325 673c5 12 15 17 27 17h75c12 0 23 -9 24 -20l137 -670h-66zM440 286l-57 295c-3 20 -6 38 -9 58h-30c-9 -19 -18 -40 -27 -58l-139 -295h262z" />
    <glyph glyph-name="Aogonek" unicode="&#x104;" horiz-adv-x="612" 
d="M424 670l137 -670c-36 -35 -68 -73 -94 -121c-28 -52 3 -68 74 -45l8 -28c-125 -51 -165 7 -130 77c17 32 48 72 107 117h-31l-44 228h-301l-107 -228h-70l325 673c5 12 15 17 27 17h75c12 0 23 -9 24 -20zM440 286l-57 295c-3 20 -6 38 -9 58h-30
c-9 -19 -18 -40 -27 -58l-139 -295h262z" />
    <glyph glyph-name="Aring" unicode="&#xc5;" horiz-adv-x="612" 
d="M376 716c-62 0 -103 45 -96 104c6 53 48 99 110 99c61 0 103 -45 96 -105c-7 -52 -48 -98 -110 -98zM318 817c-4 -40 21 -66 58 -66c39 0 68 30 72 68c4 37 -18 65 -58 65s-68 -30 -72 -67zM451 228h-301l-107 -228h-70l325 673c5 12 15 17 27 17h75c12 0 23 -9 24 -20
l137 -670h-66zM440 286l-57 295c-3 20 -6 38 -9 58h-30c-9 -19 -18 -40 -27 -58l-139 -295h262z" />
    <glyph glyph-name="Atilde" unicode="&#xc3;" horiz-adv-x="612" 
d="M512 871l31 -3c-3 -69 -39 -104 -87 -100c-69 5 -92 55 -138 60c-40 4 -58 -17 -64 -60l-31 3c4 73 42 108 88 104c62 -5 82 -54 137 -60c41 -4 58 15 64 56zM451 228h-301l-107 -228h-70l325 673c5 12 15 17 27 17h75c12 0 23 -9 24 -20l137 -670h-66zM440 286l-57 295
c-3 20 -6 38 -9 58h-30c-9 -19 -18 -40 -27 -58l-139 -295h262z" />
    <glyph glyph-name="AE" unicode="&#xc6;" horiz-adv-x="909" 
d="M903 635h-260c-45 0 -76 -25 -83 -74l-24 -169h292l-6 -52h-293l-29 -213c-7 -47 14 -72 60 -72h262l-3 -50c-91 -5 -181 -6 -271 -6c-76 0 -123 49 -111 126l16 116h-239l-181 -241h-71l445 591c61 82 116 99 215 99c126 0 207 -1 289 -5zM461 297l38 273
c4 29 23 61 44 72h-4c-21 -10 -48 -32 -75 -67l-207 -278h204z" />
    <glyph glyph-name="B" unicode="B" horiz-adv-x="615" 
d="M51 0l97 690c67 7 116 8 212 8c164 0 224 -40 204 -183c-14 -98 -54 -147 -138 -155l-1 -5c101 -8 127 -77 111 -186c-21 -142 -81 -177 -238 -177c-115 0 -171 1 -247 8zM170 383h161c110 1 154 27 169 131c15 106 -22 128 -143 128c-63 0 -114 0 -151 -1zM162 332
l-39 -282c41 -1 99 -2 167 -2c122 0 167 27 182 136c16 117 -20 146 -144 148h-166z" />
    <glyph glyph-name="C" unicode="C" 
d="M485 58l5 -49c-58 -15 -112 -21 -198 -21c-195 0 -255 103 -218 360c36 261 116 354 310 354c86 0 129 -6 183 -19l-12 -49c-57 7 -95 9 -171 9c-151 0 -210 -67 -243 -301c-31 -222 6 -295 151 -295c86 -1 137 3 193 11z" />
    <glyph glyph-name="Cacute" unicode="&#x106;" 
d="M542 859l-194 -128l-22 30l183 147zM485 58l5 -49c-58 -15 -112 -21 -198 -21c-195 0 -255 103 -218 360c36 261 116 354 310 354c86 0 129 -6 183 -19l-12 -49c-57 7 -95 9 -171 9c-151 0 -210 -67 -243 -301c-31 -222 6 -295 151 -295c86 -1 137 3 193 11z" />
    <glyph glyph-name="Ccaron" unicode="&#x10c;" 
d="M560 870l-151 -124h-47l-118 127l26 25l114 -101h8l147 101zM485 58l5 -49c-58 -15 -112 -21 -198 -21c-195 0 -255 103 -218 360c36 261 116 354 310 354c86 0 129 -6 183 -19l-12 -49c-57 7 -95 9 -171 9c-151 0 -210 -67 -243 -301c-31 -222 6 -295 151 -295
c86 -1 137 3 193 11z" />
    <glyph glyph-name="Ccedilla" unicode="&#xc7;" 
d="M485 58l5 -49c-58 -15 -112 -21 -198 -21c-195 0 -255 103 -218 360c36 261 116 354 310 354c86 0 129 -6 183 -19l-12 -49c-57 7 -95 9 -171 9c-151 0 -210 -67 -243 -301c-31 -222 6 -295 151 -295c86 -1 137 3 193 11zM229 -88l7 31c69 6 102 -11 93 -68
c-13 -77 -82 -125 -172 -113l12 35c59 -2 105 34 113 79c4 28 -6 35 -53 36z" />
    <glyph glyph-name="Cdotaccent" unicode="&#x10a;" 
d="M388 865h22c13 0 21 -9 19 -23l-8 -57c-2 -15 -8 -21 -22 -21h-21c-14 0 -21 9 -20 23l8 57c2 14 8 21 22 21zM485 58l5 -49c-58 -15 -112 -21 -198 -21c-195 0 -255 103 -218 360c36 261 116 354 310 354c86 0 129 -6 183 -19l-12 -49c-57 7 -95 9 -171 9
c-151 0 -210 -67 -243 -301c-31 -222 6 -295 151 -295c86 -1 137 3 193 11z" />
    <glyph glyph-name="D" unicode="D" horiz-adv-x="661" 
d="M51 0l97 690c68 5 157 9 227 9c202 0 264 -91 227 -357c-40 -286 -124 -351 -321 -351c-77 0 -159 4 -230 9zM207 639l-83 -588c50 -1 107 -2 156 -2c160 0 220 58 254 299c33 232 -6 294 -160 294c-50 0 -115 -2 -167 -3z" />
    <glyph glyph-name="Eth" unicode="&#xd0;" horiz-adv-x="661" 
d="M106 388l42 302c68 5 157 9 227 9c202 0 264 -91 227 -357c-40 -286 -124 -351 -321 -351c-77 0 -159 4 -230 9l49 349h-72l5 39h73zM166 349l-42 -298c50 -1 107 -2 156 -2c160 0 220 58 254 299c33 232 -6 294 -160 294c-50 0 -115 -2 -167 -3l-36 -251h164l-6 -39
h-163z" />
    <glyph glyph-name="Dcaron" unicode="&#x10e;" horiz-adv-x="661" 
d="M357 746l-118 127l26 25l114 -101h8l147 101l21 -28l-151 -124h-47zM51 0l97 690c68 5 157 9 227 9c202 0 264 -91 227 -357c-40 -286 -124 -351 -321 -351c-77 0 -159 4 -230 9zM207 639l-83 -588c50 -1 107 -2 156 -2c160 0 220 58 254 299c33 232 -6 294 -160 294
c-50 0 -115 -2 -167 -3z" />
    <glyph glyph-name="Dcroat" unicode="&#x110;" horiz-adv-x="661" 
d="M106 388l42 302c68 5 157 9 227 9c202 0 264 -91 227 -357c-40 -286 -124 -351 -321 -351c-77 0 -159 4 -230 9l49 349h-72l5 39h73zM166 349l-42 -298c50 -1 107 -2 156 -2c160 0 220 58 254 299c33 232 -6 294 -160 294c-50 0 -115 -2 -167 -3l-36 -251h164l-6 -39
h-163z" />
    <glyph glyph-name="E" unicode="E" horiz-adv-x="555" 
d="M547 635h-278c-49 0 -74 -25 -80 -74l-24 -170h309l-7 -51h-309l-29 -214c-7 -47 14 -71 60 -71h276v-50c-92 -6 -192 -6 -285 -6c-86 0 -128 50 -118 126l64 454c9 68 56 112 134 112c100 0 203 0 296 -6z" />
    <glyph glyph-name="Eacute" unicode="&#xc9;" horiz-adv-x="555" 
d="M335 753l-22 30l184 147l32 -49zM547 635h-278c-49 0 -74 -25 -80 -74l-24 -170h309l-7 -51h-309l-29 -214c-7 -47 14 -71 60 -71h276v-50c-92 -6 -192 -6 -285 -6c-86 0 -128 50 -118 126l64 454c9 68 56 112 134 112c100 0 203 0 296 -6z" />
    <glyph glyph-name="Ecaron" unicode="&#x11a;" horiz-adv-x="555" 
d="M350 768l-118 127l26 25l114 -101h8l147 101l21 -28l-152 -124h-46zM547 635h-278c-49 0 -74 -25 -80 -74l-24 -170h309l-7 -51h-309l-29 -214c-7 -47 14 -71 60 -71h276v-50c-92 -6 -192 -6 -285 -6c-86 0 -128 50 -118 126l64 454c9 68 56 112 134 112
c100 0 203 0 296 -6z" />
    <glyph glyph-name="Ecircumflex" unicode="&#xca;" horiz-adv-x="555" 
d="M237 760l-20 29l150 124h45l123 -127l-24 -26l-118 101h-9zM547 635h-278c-49 0 -74 -25 -80 -74l-24 -170h309l-7 -51h-309l-29 -214c-7 -47 14 -71 60 -71h276v-50c-92 -6 -192 -6 -285 -6c-86 0 -128 50 -118 126l64 454c9 68 56 112 134 112c100 0 203 0 296 -6z" />
    <glyph glyph-name="Edieresis" unicode="&#xcb;" horiz-adv-x="555" 
d="M300 793h-21c-13 0 -19 5 -17 19l8 55c2 14 8 20 22 20h20c16 0 20 -6 18 -20l-9 -54c-1 -14 -8 -20 -21 -20zM472 793h-21c-13 0 -19 5 -18 19l9 55c2 14 8 20 22 20h20c16 0 19 -6 17 -20l-8 -54c-1 -14 -8 -20 -21 -20zM547 635h-278c-49 0 -74 -25 -80 -74l-24 -170
h309l-7 -51h-309l-29 -214c-7 -47 14 -71 60 -71h276v-50c-92 -6 -192 -6 -285 -6c-86 0 -128 50 -118 126l64 454c9 68 56 112 134 112c100 0 203 0 296 -6z" />
    <glyph glyph-name="Edotaccent" unicode="&#x116;" horiz-adv-x="555" 
d="M386 786h-20c-14 0 -22 9 -20 23l8 57c2 15 7 21 22 21h21c14 0 22 -8 20 -23l-8 -57c-2 -14 -8 -21 -23 -21zM547 635h-278c-49 0 -74 -25 -80 -74l-24 -170h309l-7 -51h-309l-29 -214c-7 -47 14 -71 60 -71h276v-50c-92 -6 -192 -6 -285 -6c-86 0 -128 50 -118 126
l64 454c9 68 56 112 134 112c100 0 203 0 296 -6z" />
    <glyph glyph-name="Egrave" unicode="&#xc8;" horiz-adv-x="555" 
d="M393 753l-167 131l37 45l155 -147zM547 635h-278c-49 0 -74 -25 -80 -74l-24 -170h309l-7 -51h-309l-29 -214c-7 -47 14 -71 60 -71h276v-50c-92 -6 -192 -6 -285 -6c-86 0 -128 50 -118 126l64 454c9 68 56 112 134 112c100 0 203 0 296 -6z" />
    <glyph glyph-name="Emacron" unicode="&#x112;" horiz-adv-x="555" 
d="M514 814h-272l7 49h272zM547 635h-278c-49 0 -74 -25 -80 -74l-24 -170h309l-7 -51h-309l-29 -214c-7 -47 14 -71 60 -71h276v-50c-92 -6 -192 -6 -285 -6c-86 0 -128 50 -118 126l64 454c9 68 56 112 134 112c100 0 203 0 296 -6z" />
    <glyph glyph-name="Eogonek" unicode="&#x118;" horiz-adv-x="555" 
d="M547 635h-278c-49 0 -74 -25 -80 -74l-24 -170h309l-7 -51h-309l-29 -214c-7 -47 14 -71 60 -71h276v-50c-37 -35 -69 -73 -94 -121c-29 -53 3 -68 73 -45l8 -28c-125 -51 -164 7 -129 77c16 32 46 71 104 115c-81 -4 -166 -4 -247 -4c-86 0 -128 50 -118 126l64 454
c9 68 56 112 134 112c100 0 203 0 296 -6z" />
    <glyph glyph-name="F" unicode="F" horiz-adv-x="535" 
d="M542 635h-265c-50 0 -77 -21 -84 -74l-25 -178h300l-7 -51h-300l-47 -332h-65l80 576c11 73 60 115 135 115c98 0 197 0 288 -6z" />
    <glyph glyph-name="G" unicode="G" horiz-adv-x="622" 
d="M590 683l-12 -49c-62 7 -117 10 -178 10c-167 0 -227 -63 -259 -302c-25 -217 6 -296 125 -296c78 0 137 46 203 110l34 244h64l-57 -400h-47l5 100c-63 -71 -135 -112 -222 -112c-150 0 -203 107 -173 360c37 278 132 354 320 354c76 0 136 -5 197 -19z" />
    <glyph glyph-name="Gbreve" unicode="&#x11e;" horiz-adv-x="622" 
d="M522 882l34 -9c-8 -76 -68 -124 -158 -124c-94 0 -146 51 -132 127l35 3c-7 -52 31 -81 97 -81c70 0 118 32 124 84zM590 683l-12 -49c-62 7 -117 10 -178 10c-167 0 -227 -63 -259 -302c-25 -217 6 -296 125 -296c78 0 137 46 203 110l34 244h64l-57 -400h-47l5 100
c-63 -71 -135 -112 -222 -112c-150 0 -203 107 -173 360c37 278 132 354 320 354c76 0 136 -5 197 -19z" />
    <glyph glyph-name="Gcommaaccent" unicode="&#x122;" horiz-adv-x="622" 
d="M590 683l-12 -49c-62 7 -117 10 -178 10c-167 0 -227 -63 -259 -302c-25 -217 6 -296 125 -296c78 0 137 46 203 110l34 244h64l-57 -400h-47l5 100c-63 -71 -135 -112 -222 -112c-150 0 -203 107 -173 360c37 278 132 354 320 354c76 0 136 -5 197 -19zM273 -60h19
c16 0 21 -7 18 -22l-8 -57c-5 -40 -24 -87 -45 -126l-29 10c11 35 19 60 27 102c-12 0 -19 8 -17 19l8 53c3 16 8 21 27 21z" />
    <glyph glyph-name="Gdotaccent" unicode="&#x120;" horiz-adv-x="622" 
d="M409 764h-21c-14 0 -21 9 -19 23l7 57c2 14 8 21 22 21h22c14 0 21 -9 19 -23l-8 -57c-2 -15 -8 -21 -22 -21zM590 683l-12 -49c-62 7 -117 10 -178 10c-167 0 -227 -63 -259 -302c-25 -217 6 -296 125 -296c78 0 137 46 203 110l34 244h64l-57 -400h-47l5 100
c-63 -71 -135 -112 -222 -112c-150 0 -203 107 -173 360c37 278 132 354 320 354c76 0 136 -5 197 -19z" />
    <glyph glyph-name="H" unicode="H" horiz-adv-x="663" 
d="M627 690l-97 -690h-66l48 340h-347l-48 -340h-66l97 690h66l-41 -293h347l41 293h66z" />
    <glyph glyph-name="Hbar" unicode="&#x126;" horiz-adv-x="663" 
d="M679 521h-76l-73 -521h-66l48 340h-347l-48 -340h-66l73 521h-71l5 38h72l18 131h66l-18 -131h347l18 131h66l-19 -131h76zM538 521h-348l-17 -124h347z" />
    <glyph glyph-name="I" unicode="I" horiz-adv-x="250" 
d="M117 0h-66l97 690h66z" />
    <glyph glyph-name="IJ" unicode="&#x132;" horiz-adv-x="583" 
d="M117 0h-66l97 690h66zM550 690l-78 -557c-13 -93 -63 -141 -146 -141c-25 0 -62 5 -82 11l12 45h51c58 0 92 30 100 86l78 556h65z" />
    <glyph glyph-name="Iacute" unicode="&#xcd;" horiz-adv-x="250" 
d="M347 859l-195 -128l-22 30l184 147zM117 0h-66l97 690h66z" />
    <glyph glyph-name="Icircumflex" unicode="&#xce;" horiz-adv-x="250" 
d="M352 763l-24 -26l-118 102h-9l-147 -101l-19 29l149 123h45zM117 0h-66l97 690h66z" />
    <glyph glyph-name="Idieresis" unicode="&#xcf;" horiz-adv-x="250" 
d="M109 865h20c16 0 20 -6 18 -20l-9 -54c-1 -14 -7 -20 -21 -20h-21c-12 0 -19 5 -17 19l8 55c2 14 8 20 22 20zM281 865h20c16 0 20 -6 18 -20l-9 -54c-1 -14 -8 -20 -21 -20h-21c-13 0 -19 5 -18 19l9 55c2 14 8 20 22 20zM117 0h-66l97 690h66z" />
    <glyph glyph-name="Idotaccent" unicode="&#x130;" horiz-adv-x="250" 
d="M193 865h22c13 0 21 -9 19 -23l-8 -57c-2 -15 -8 -21 -22 -21h-21c-14 0 -22 9 -20 23l8 57c2 14 8 21 22 21zM117 0h-66l97 690h66z" />
    <glyph glyph-name="Igrave" unicode="&#xcc;" horiz-adv-x="250" 
d="M235 760l-25 -29l-167 130l37 46zM117 0h-66l97 690h66z" />
    <glyph glyph-name="Imacron" unicode="&#x12a;" horiz-adv-x="250" 
d="M331 792h-272l7 49h272zM117 0h-66l97 690h66z" />
    <glyph glyph-name="Iogonek" unicode="&#x12e;" horiz-adv-x="250" 
d="M117 0h-6c-37 -35 -69 -73 -95 -121c-28 -52 3 -68 74 -45l8 -28c-125 -51 -164 7 -129 77c16 32 47 72 106 117h-24l97 690h66z" />
    <glyph glyph-name="J" unicode="J" horiz-adv-x="333" 
d="M300 690l-78 -557c-13 -93 -63 -141 -146 -141c-25 0 -62 5 -83 11l13 45h51c58 0 91 30 100 86l77 556h66z" />
    <glyph glyph-name="K" unicode="K" horiz-adv-x="581" 
d="M309 361l-1 -4c11 -12 21 -28 28 -42l182 -315h-74l-191 333h-95c-1 -27 -2 -53 -6 -79l-36 -254h-65l97 690h65l-31 -224c-5 -29 -9 -53 -16 -79h93l261 303h80l-249 -290c-12 -14 -25 -27 -42 -39z" />
    <glyph glyph-name="Kcommaaccent" unicode="&#x136;" horiz-adv-x="581" 
d="M309 361l-1 -4c11 -12 21 -28 28 -42l182 -315h-74l-191 333h-95c-1 -27 -2 -53 -6 -79l-36 -254h-65l97 690h65l-31 -224c-5 -29 -9 -53 -16 -79h93l261 303h80l-249 -290c-12 -14 -25 -27 -42 -39zM261 -60h19c16 0 21 -7 18 -22l-8 -57c-5 -40 -24 -87 -45 -126
l-29 10c11 35 19 60 27 102c-12 0 -18 8 -17 19l8 53c3 16 8 21 27 21z" />
    <glyph glyph-name="L" unicode="L" horiz-adv-x="506" 
d="M211 690l-79 -564c-6 -42 13 -71 60 -71h259l-2 -50c-89 -6 -182 -6 -270 -6c-77 0 -123 47 -112 129l78 562h66z" />
    <glyph glyph-name="Lacute" unicode="&#x139;" horiz-adv-x="506" 
d="M345 859l-194 -128l-22 30l184 147zM211 690l-79 -564c-6 -42 13 -71 60 -71h259l-2 -50c-89 -6 -182 -6 -270 -6c-77 0 -123 47 -112 129l78 562h66z" />
    <glyph glyph-name="Lcaron" unicode="&#x13d;" horiz-adv-x="506" 
d="M211 690l-79 -564c-6 -42 13 -71 60 -71h259l-2 -50c-89 -6 -182 -6 -270 -6c-77 0 -123 47 -112 129l78 562h66zM333 689h19c16 0 21 -6 19 -22l-9 -57c-5 -39 -24 -87 -44 -125l-30 9c11 36 19 61 27 103c-12 -1 -18 7 -17 19l8 53c3 16 8 20 27 20z" />
    <glyph glyph-name="Lcommaaccent" unicode="&#x13b;" horiz-adv-x="506" 
d="M211 690l-79 -564c-6 -42 13 -71 60 -71h259l-2 -50c-89 -6 -182 -6 -270 -6c-77 0 -123 47 -112 129l78 562h66zM249 -66h19c16 0 21 -6 18 -22l-8 -57c-5 -39 -24 -87 -45 -125l-29 10c11 35 19 60 27 102c-12 -1 -18 7 -17 19l8 53c3 16 8 20 27 20z" />
    <glyph glyph-name="Ldot" unicode="&#x13f;" horiz-adv-x="506" 
d="M211 690l-79 -564c-6 -42 13 -71 60 -71h259l-2 -50c-89 -6 -182 -6 -270 -6c-77 0 -123 47 -112 129l78 562h66zM386 336h-22c-13 0 -21 8 -19 22l8 58c2 14 8 20 23 20h20c14 0 22 -8 20 -22l-8 -58c-2 -14 -8 -20 -22 -20z" />
    <glyph glyph-name="Lslash" unicode="&#x141;" horiz-adv-x="506" 
d="M450 55l-2 -50c-89 -6 -181 -6 -270 -6c-76 0 -123 47 -111 129l29 212l-71 -28l4 41l73 30l43 307h66l-39 -280l131 53l-4 -41l-133 -54l-34 -242c-6 -42 13 -71 60 -71h258z" />
    <glyph glyph-name="M" unicode="M" horiz-adv-x="869" 
d="M708 690h78c18 0 29 -12 27 -31l-64 -659h-65l63 635h-21l-256 -542c-6 -15 -15 -21 -30 -21h-66c-16 0 -26 9 -28 24l-107 539h-22l-114 -635h-66l121 662c4 19 13 28 31 28h77c15 0 24 -9 26 -24l91 -451c6 -31 10 -62 16 -94h22c14 33 28 65 42 95l214 452
c6 15 15 22 31 22z" />
    <glyph glyph-name="N" unicode="N" horiz-adv-x="698" 
d="M662 690l-94 -664c-2 -18 -11 -26 -29 -26h-66c-15 0 -23 8 -29 23l-196 525c-9 25 -20 55 -27 81h-20c-2 -28 -5 -57 -9 -86l-75 -543h-66l93 664c3 18 12 26 30 26h63c16 0 25 -8 30 -23l191 -512c10 -28 22 -62 32 -94h22c3 32 7 64 11 96l74 533h65z" />
    <glyph glyph-name="Nacute" unicode="&#x143;" horiz-adv-x="698" 
d="M578 859l-194 -128l-22 30l184 147zM662 690l-94 -664c-2 -18 -11 -26 -29 -26h-66c-15 0 -23 8 -29 23l-196 525c-9 25 -20 55 -27 81h-20c-2 -28 -5 -57 -9 -86l-75 -543h-66l93 664c3 18 12 26 30 26h63c16 0 25 -8 30 -23l191 -512c10 -28 22 -62 32 -94h22
c3 32 7 64 11 96l74 533h65z" />
    <glyph glyph-name="Ncaron" unicode="&#x147;" horiz-adv-x="698" 
d="M597 870l-152 -124h-46l-118 127l26 25l114 -101h8l147 101zM662 690l-94 -664c-2 -18 -11 -26 -29 -26h-66c-15 0 -23 8 -29 23l-196 525c-9 25 -20 55 -27 81h-20c-2 -28 -5 -57 -9 -86l-75 -543h-66l93 664c3 18 12 26 30 26h63c16 0 25 -8 30 -23l191 -512
c10 -28 22 -62 32 -94h22c3 32 7 64 11 96l74 533h65z" />
    <glyph glyph-name="Ncommaaccent" unicode="&#x145;" horiz-adv-x="698" 
d="M662 690l-94 -664c-2 -18 -11 -26 -29 -26h-66c-15 0 -23 8 -29 23l-196 525c-9 25 -20 55 -27 81h-20c-2 -28 -5 -57 -9 -86l-75 -543h-66l93 664c3 18 12 26 30 26h63c16 0 25 -8 30 -23l191 -512c10 -28 22 -62 32 -94h22c3 32 7 64 11 96l74 533h65zM305 -60h19
c16 0 22 -7 19 -22l-8 -57c-6 -40 -25 -87 -45 -126l-30 10c12 35 20 60 27 102c-12 0 -18 8 -17 19l9 53c3 16 8 21 26 21z" />
    <glyph glyph-name="Eng" unicode="&#x14a;" horiz-adv-x="698" 
d="M662 690l-110 -778c-12 -86 -64 -131 -144 -130c-24 0 -60 4 -81 10l11 41h52c58 0 93 29 101 86l12 81h-29c-11 0 -17 10 -22 21l-204 517c-10 24 -20 54 -27 83h-19c-2 -28 -6 -56 -10 -83l-75 -538h-66l93 664c3 18 12 26 30 26h57c16 0 24 -8 30 -23l197 -503
c10 -27 23 -62 33 -93h21c2 32 6 64 11 96l73 523h66z" />
    <glyph glyph-name="Ntilde" unicode="&#xd1;" horiz-adv-x="698" 
d="M302 768l-32 3c5 73 42 108 89 104c62 -5 82 -54 137 -60c40 -4 58 15 64 56l31 -3c-3 -69 -39 -104 -87 -100c-69 5 -92 55 -138 60c-40 4 -58 -17 -64 -60zM662 690l-94 -664c-2 -18 -11 -26 -29 -26h-66c-15 0 -23 8 -29 23l-196 525c-9 25 -20 55 -27 81h-20
c-2 -28 -5 -57 -9 -86l-75 -543h-66l93 664c3 18 12 26 30 26h63c16 0 25 -8 30 -23l191 -512c10 -28 22 -62 32 -94h22c3 32 7 64 11 96l74 533h65z" />
    <glyph glyph-name="O" unicode="O" horiz-adv-x="664" 
d="M386 702c191 0 257 -94 219 -360c-36 -265 -117 -354 -310 -354c-190 0 -258 92 -221 360c36 261 115 354 312 354zM384 644c-153 0 -210 -74 -243 -302c-30 -222 7 -296 155 -296c150 0 209 75 241 302c33 226 -4 296 -153 296z" />
    <glyph glyph-name="Oacute" unicode="&#xd3;" horiz-adv-x="664" 
d="M556 859l-194 -128l-22 30l184 147zM386 702c191 0 257 -94 219 -360c-36 -265 -117 -354 -310 -354c-190 0 -258 92 -221 360c36 261 115 354 312 354zM384 644c-153 0 -210 -74 -243 -302c-30 -222 7 -296 155 -296c150 0 209 75 241 302c33 226 -4 296 -153 296z" />
    <glyph glyph-name="Ocircumflex" unicode="&#xd4;" horiz-adv-x="664" 
d="M562 763l-25 -26l-117 102h-9l-147 -101l-20 29l150 123h45zM386 702c191 0 257 -94 219 -360c-36 -265 -117 -354 -310 -354c-190 0 -258 92 -221 360c36 261 115 354 312 354zM384 644c-153 0 -210 -74 -243 -302c-30 -222 7 -296 155 -296c150 0 209 75 241 302
c33 226 -4 296 -153 296z" />
    <glyph glyph-name="Odieresis" unicode="&#xd6;" horiz-adv-x="664" 
d="M319 865h20c16 0 19 -6 17 -20l-8 -54c-1 -14 -8 -20 -21 -20h-21c-13 0 -19 5 -18 19l9 55c2 14 8 20 22 20zM491 865h20c15 0 19 -6 17 -20l-8 -54c-2 -14 -8 -20 -22 -20h-20c-13 0 -19 5 -18 19l9 55c2 14 8 20 22 20zM386 702c191 0 257 -94 219 -360
c-36 -265 -117 -354 -310 -354c-190 0 -258 92 -221 360c36 261 115 354 312 354zM384 644c-153 0 -210 -74 -243 -302c-30 -222 7 -296 155 -296c150 0 209 75 241 302c33 226 -4 296 -153 296z" />
    <glyph glyph-name="Ograve" unicode="&#xd2;" horiz-adv-x="664" 
d="M445 760l-25 -29l-167 130l37 46zM386 702c191 0 257 -94 219 -360c-36 -265 -117 -354 -310 -354c-190 0 -258 92 -221 360c36 261 115 354 312 354zM384 644c-153 0 -210 -74 -243 -302c-30 -222 7 -296 155 -296c150 0 209 75 241 302c33 226 -4 296 -153 296z" />
    <glyph glyph-name="Ohungarumlaut" unicode="&#x150;" horiz-adv-x="664" 
d="M613 883l-150 -157l-28 23l137 164zM457 883l-149 -157l-29 23l137 164zM386 702c191 0 257 -94 219 -360c-36 -265 -117 -354 -310 -354c-190 0 -258 92 -221 360c36 261 115 354 312 354zM384 644c-153 0 -210 -74 -243 -302c-30 -222 7 -296 155 -296
c150 0 209 75 241 302c33 226 -4 296 -153 296z" />
    <glyph glyph-name="Omacron" unicode="&#x14c;" horiz-adv-x="664" 
d="M541 792h-272l6 49h273zM386 702c191 0 257 -94 219 -360c-36 -265 -117 -354 -310 -354c-190 0 -258 92 -221 360c36 261 115 354 312 354zM384 644c-153 0 -210 -74 -243 -302c-30 -222 7 -296 155 -296c150 0 209 75 241 302c33 226 -4 296 -153 296z" />
    <glyph glyph-name="Oslash" unicode="&#xd8;" horiz-adv-x="664" 
d="M596 730l-45 -73c61 -52 77 -151 54 -315c-36 -265 -117 -354 -310 -354c-55 0 -100 7 -135 25l-43 -70l-33 20l44 71c-60 52 -77 150 -54 314c36 261 115 354 312 354c54 0 98 -7 133 -24l43 71zM163 93l323 531c-25 14 -59 20 -102 20c-153 0 -210 -74 -243 -302
c-17 -127 -12 -205 22 -249zM516 599l-323 -532c25 -14 59 -21 103 -21c150 0 209 75 241 302c19 130 15 208 -21 251z" />
    <glyph glyph-name="Otilde" unicode="&#xd5;" horiz-adv-x="664" 
d="M280 768l-32 3c5 73 42 108 89 104c61 -5 82 -54 137 -60c40 -4 58 15 63 56l32 -3c-4 -69 -39 -104 -87 -100c-69 5 -92 55 -138 60c-40 4 -58 -17 -64 -60zM386 702c191 0 257 -94 219 -360c-36 -265 -117 -354 -310 -354c-190 0 -258 92 -221 360
c36 261 115 354 312 354zM384 644c-153 0 -210 -74 -243 -302c-30 -222 7 -296 155 -296c150 0 209 75 241 302c33 226 -4 296 -153 296z" />
    <glyph glyph-name="OE" unicode="&#x152;" horiz-adv-x="908" 
d="M901 635h-269c-44 0 -73 -26 -79 -74l-24 -169h298l-7 -52h-298l-29 -214c-7 -47 14 -71 60 -71h267l-2 -50c-89 -6 -184 -6 -274 -6c-35 0 -63 8 -83 23c-55 -24 -93 -34 -163 -34c-204 0 -262 89 -224 360c38 266 115 354 317 354c63 0 106 -9 156 -31
c21 13 47 20 77 20c97 0 195 0 286 -6zM426 125l63 454c3 17 8 33 16 48c-35 11 -68 17 -115 17c-156 0 -216 -73 -248 -302c-32 -221 4 -296 158 -296c59 0 89 7 130 21c-6 17 -7 36 -4 58z" />
    <glyph glyph-name="P" unicode="P" horiz-adv-x="585" 
d="M51 0l97 690c74 7 123 8 229 8c156 0 210 -53 187 -213c-24 -170 -85 -209 -238 -209c-65 0 -127 4 -169 8l-40 -284h-66zM163 333h162c115 1 156 33 174 157c17 122 -17 152 -123 152c-70 0 -129 -1 -169 -2z" />
    <glyph glyph-name="Thorn" unicode="&#xde;" horiz-adv-x="587" 
d="M214 690l-18 -130c45 3 90 3 163 3c150 0 210 -48 186 -216c-23 -166 -85 -209 -232 -209c-70 0 -133 3 -175 8l-21 -146h-65l78 555l19 135h65zM145 195h161c112 1 156 31 174 158c16 123 -14 153 -123 153c-69 0 -128 0 -169 -1z" />
    <glyph glyph-name="Q" unicode="Q" horiz-adv-x="664" 
d="M386 702c191 0 257 -94 219 -360c-36 -265 -117 -354 -310 -354c-190 0 -258 92 -221 360c36 261 115 354 312 354zM384 644c-153 0 -210 -74 -243 -302c-30 -222 7 -296 155 -296c150 0 209 75 241 302c33 226 -4 296 -153 296zM218 -85l26 39c68 -40 146 -65 241 -81
l-25 -65c-98 20 -180 59 -242 107z" />
    <glyph glyph-name="R" unicode="R" horiz-adv-x="614" 
d="M51 0l97 690c74 7 128 8 229 8c145 0 212 -44 191 -200c-16 -112 -60 -164 -154 -177l-1 -5c37 -11 60 -45 70 -98l44 -218h-67l-42 218c-11 58 -39 77 -86 78c-79 1 -135 1 -174 2l-42 -298h-65zM165 353h164c111 1 156 34 172 148c16 110 -16 141 -125 141
c-70 0 -130 -1 -170 -2z" />
    <glyph glyph-name="Racute" unicode="&#x154;" horiz-adv-x="614" 
d="M327 731l-22 30l184 147l33 -49zM51 0l97 690c74 7 128 8 229 8c145 0 212 -44 191 -200c-16 -112 -60 -164 -154 -177l-1 -5c37 -11 60 -45 70 -98l44 -218h-67l-42 218c-11 58 -39 77 -86 78c-79 1 -135 1 -174 2l-42 -298h-65zM165 353h164c111 1 156 34 172 148
c16 110 -16 141 -125 141c-70 0 -130 -1 -170 -2z" />
    <glyph glyph-name="Rcaron" unicode="&#x158;" horiz-adv-x="614" 
d="M342 746l-118 127l26 25l114 -101h8l147 101l21 -28l-152 -124h-46zM51 0l97 690c74 7 128 8 229 8c145 0 212 -44 191 -200c-16 -112 -60 -164 -154 -177l-1 -5c37 -11 60 -45 70 -98l44 -218h-67l-42 218c-11 58 -39 77 -86 78c-79 1 -135 1 -174 2l-42 -298h-65z
M165 353h164c111 1 156 34 172 148c16 110 -16 141 -125 141c-70 0 -130 -1 -170 -2z" />
    <glyph glyph-name="Rcommaaccent" unicode="&#x156;" horiz-adv-x="614" 
d="M51 0l97 690c74 7 128 8 229 8c145 0 212 -44 191 -200c-16 -112 -60 -164 -154 -177l-1 -5c37 -11 60 -45 70 -98l44 -218h-67l-42 218c-11 58 -39 77 -86 78c-79 1 -135 1 -174 2l-42 -298h-65zM165 353h164c111 1 156 34 172 148c16 110 -16 141 -125 141
c-70 0 -130 -1 -170 -2zM286 -60h19c16 0 21 -7 18 -22l-8 -57c-5 -40 -24 -87 -45 -126l-29 10c11 35 19 60 27 102c-12 0 -18 8 -17 19l8 53c3 16 8 21 27 21z" />
    <glyph glyph-name="S" unicode="S" horiz-adv-x="558" 
d="M344 293l-142 55c-97 38 -124 92 -112 187c21 153 108 168 240 166c67 0 134 -5 198 -17l-8 -47c-74 4 -126 6 -198 6c-91 0 -150 -1 -166 -115c-8 -70 7 -96 76 -124l140 -54c104 -41 128 -89 115 -190c-22 -150 -99 -171 -254 -171c-40 0 -114 1 -203 15l9 49
c101 -5 147 -6 199 -6c118 1 167 15 183 120c10 76 -8 98 -77 126z" />
    <glyph glyph-name="Sacute" unicode="&#x15a;" horiz-adv-x="558" 
d="M495 859l-194 -128l-22 30l184 147zM344 293l-142 55c-97 38 -124 92 -112 187c21 153 108 168 240 166c67 0 134 -5 198 -17l-8 -47c-74 4 -126 6 -198 6c-91 0 -150 -1 -166 -115c-8 -70 7 -96 76 -124l140 -54c104 -41 128 -89 115 -190c-22 -150 -99 -171 -254 -171
c-40 0 -114 1 -203 15l9 49c101 -5 147 -6 199 -6c118 1 167 15 183 120c10 76 -8 98 -77 126z" />
    <glyph glyph-name="Scaron" unicode="&#x160;" horiz-adv-x="558" 
d="M514 870l-152 -124h-46l-118 127l26 25l114 -101h8l147 101zM344 293l-142 55c-97 38 -124 92 -112 187c21 153 108 168 240 166c67 0 134 -5 198 -17l-8 -47c-74 4 -126 6 -198 6c-91 0 -150 -1 -166 -115c-8 -70 7 -96 76 -124l140 -54c104 -41 128 -89 115 -190
c-22 -150 -99 -171 -254 -171c-40 0 -114 1 -203 15l9 49c101 -5 147 -6 199 -6c118 1 167 15 183 120c10 76 -8 98 -77 126z" />
    <glyph glyph-name="Scedilla" unicode="&#x15e;" horiz-adv-x="558" 
d="M344 293l-142 55c-97 38 -124 92 -112 187c21 153 108 168 240 166c67 0 134 -5 198 -17l-8 -47c-74 4 -126 6 -198 6c-91 0 -150 -1 -166 -115c-8 -70 7 -96 76 -124l140 -54c104 -41 128 -89 115 -190c-22 -150 -99 -171 -254 -171c-40 0 -114 1 -203 15l9 49
c101 -5 147 -6 199 -6c118 1 167 15 183 120c10 76 -8 98 -77 126zM196 -88l8 31c69 6 102 -10 92 -68c-12 -76 -81 -124 -172 -112l12 34c60 -2 105 34 113 80c4 27 -6 35 -53 35z" />
    <glyph glyph-name="Scommaaccent" unicode="&#x218;" horiz-adv-x="558" 
d="M344 293l-142 55c-97 38 -124 92 -112 187c21 153 108 168 240 166c67 0 134 -5 198 -17l-8 -47c-74 4 -126 6 -198 6c-91 0 -150 -1 -166 -115c-8 -70 7 -96 76 -124l140 -54c104 -41 128 -89 115 -190c-22 -150 -99 -171 -254 -171c-40 0 -114 1 -203 15l9 49
c101 -5 147 -6 199 -6c118 1 167 15 183 120c10 76 -8 98 -77 126zM250 -60h19c16 0 21 -7 19 -22l-8 -57c-6 -40 -25 -87 -45 -126l-30 10c12 35 20 60 27 102c-12 0 -18 8 -17 19l9 53c3 16 7 21 26 21z" />
    <glyph glyph-name="T" unicode="T" horiz-adv-x="568" 
d="M594 632h-230l-89 -632h-66l89 632h-229l9 58h524z" />
    <glyph glyph-name="Tbar" unicode="&#x166;" horiz-adv-x="568" 
d="M364 632l-30 -212h151l-5 -39h-151l-54 -381h-66l54 381h-137l5 39h137l30 212h-229l9 58h524l-8 -58h-230z" />
    <glyph glyph-name="Tcaron" unicode="&#x164;" horiz-adv-x="568" 
d="M327 746l-119 127l27 25l114 -101h8l146 101l21 -28l-151 -124h-46zM594 632h-230l-89 -632h-66l89 632h-229l9 58h524z" />
    <glyph glyph-name="Tcedilla" unicode="&#x162;" horiz-adv-x="568" 
d="M594 632h-230l-89 -632h-66l89 632h-229l9 58h524zM187 -76l7 31c69 6 102 -11 93 -68c-13 -77 -82 -125 -172 -113l12 35c59 -2 105 34 113 79c4 28 -6 35 -53 36z" />
    <glyph glyph-name="uni021A" unicode="&#x21a;" horiz-adv-x="568" 
d="M594 632h-230l-89 -632h-66l89 632h-229l9 58h524zM226 -60h19c16 0 21 -7 18 -22l-8 -57c-5 -40 -24 -87 -45 -126l-29 10c11 35 19 60 27 102c-12 0 -18 8 -17 19l8 53c3 16 8 21 27 21z" />
    <glyph glyph-name="U" unicode="U" horiz-adv-x="665" 
d="M634 690l-61 -430c-28 -198 -104 -272 -276 -272c-176 0 -242 77 -214 275l60 427h66l-61 -430c-22 -160 16 -214 147 -214c133 0 191 57 213 217l60 427h66z" />
    <glyph glyph-name="Uacute" unicode="&#xda;" horiz-adv-x="665" 
d="M555 859l-194 -128l-22 30l184 147zM634 690l-61 -430c-28 -198 -104 -272 -276 -272c-176 0 -242 77 -214 275l60 427h66l-61 -430c-22 -160 16 -214 147 -214c133 0 191 57 213 217l60 427h66z" />
    <glyph glyph-name="Ucircumflex" unicode="&#xdb;" horiz-adv-x="665" 
d="M561 763l-25 -26l-117 102h-9l-147 -101l-20 29l150 123h45zM634 690l-61 -430c-28 -198 -104 -272 -276 -272c-176 0 -242 77 -214 275l60 427h66l-61 -430c-22 -160 16 -214 147 -214c133 0 191 57 213 217l60 427h66z" />
    <glyph glyph-name="Udieresis" unicode="&#xdc;" horiz-adv-x="665" 
d="M318 865h20c16 0 19 -6 17 -20l-8 -54c-1 -14 -8 -20 -21 -20h-21c-13 0 -19 5 -18 19l9 55c2 14 8 20 22 20zM490 865h20c15 0 19 -6 17 -20l-8 -54c-2 -14 -8 -20 -22 -20h-20c-13 0 -19 5 -18 19l9 55c2 14 8 20 22 20zM634 690l-61 -430
c-28 -198 -104 -272 -276 -272c-176 0 -242 77 -214 275l60 427h66l-61 -430c-22 -160 16 -214 147 -214c133 0 191 57 213 217l60 427h66z" />
    <glyph glyph-name="Ugrave" unicode="&#xd9;" horiz-adv-x="665" 
d="M444 760l-25 -29l-167 130l37 46zM634 690l-61 -430c-28 -198 -104 -272 -276 -272c-176 0 -242 77 -214 275l60 427h66l-61 -430c-22 -160 16 -214 147 -214c133 0 191 57 213 217l60 427h66z" />
    <glyph glyph-name="Uhungarumlaut" unicode="&#x170;" horiz-adv-x="665" 
d="M612 883l-150 -157l-28 23l137 164zM456 883l-149 -157l-29 23l137 164zM634 690l-61 -430c-28 -198 -104 -272 -276 -272c-176 0 -242 77 -214 275l60 427h66l-61 -430c-22 -160 16 -214 147 -214c133 0 191 57 213 217l60 427h66z" />
    <glyph glyph-name="Umacron" unicode="&#x16a;" horiz-adv-x="665" 
d="M540 792h-272l6 49h273zM634 690l-61 -430c-28 -198 -104 -272 -276 -272c-176 0 -242 77 -214 275l60 427h66l-61 -430c-22 -160 16 -214 147 -214c133 0 191 57 213 217l60 427h66z" />
    <glyph glyph-name="Uogonek" unicode="&#x172;" horiz-adv-x="665" 
d="M634 690l-61 -430c-26 -185 -94 -263 -245 -272c-35 -34 -66 -71 -91 -118c-28 -52 3 -68 74 -45l7 -28c-124 -51 -164 7 -129 77c16 31 46 70 102 114c-171 1 -236 79 -208 275l60 427h66l-61 -430c-22 -160 16 -214 147 -214c133 0 191 57 213 217l60 427h66z" />
    <glyph glyph-name="Uring" unicode="&#x16e;" horiz-adv-x="665" 
d="M414 919c61 0 104 -45 96 -105c-6 -52 -47 -98 -110 -98c-62 0 -102 45 -95 104c6 53 47 99 109 99zM415 884c-41 0 -68 -30 -72 -67c-5 -40 21 -66 58 -66c39 0 67 30 71 68c4 37 -18 65 -57 65zM634 690l-61 -430c-28 -198 -104 -272 -276 -272
c-176 0 -242 77 -214 275l60 427h66l-61 -430c-22 -160 16 -214 147 -214c133 0 191 57 213 217l60 427h66z" />
    <glyph glyph-name="V" unicode="V" horiz-adv-x="599" 
d="M635 690l-314 -672c-5 -12 -14 -18 -27 -18h-71c-13 0 -22 10 -24 21l-127 669h67l99 -565c4 -25 9 -50 12 -75h26c10 25 22 54 33 79l257 561h69z" />
    <glyph glyph-name="W" unicode="W" horiz-adv-x="937" 
d="M962 690l-250 -671c-5 -13 -15 -19 -29 -19h-78c-14 0 -24 10 -25 23l-47 540l-6 76h-23l-28 -79l-196 -540c-5 -13 -15 -20 -29 -20h-78c-14 0 -25 10 -26 22l-63 668h67l48 -561c2 -25 3 -52 4 -79h26l28 81l196 538c5 13 14 21 29 21h75c13 0 23 -11 24 -24l51 -537
c2 -27 4 -53 5 -79h26l27 81l203 559h69z" />
    <glyph glyph-name="Wacute" unicode="&#x1e82;" horiz-adv-x="937" 
d="M689 858l-194 -128l-22 31l183 146zM962 690l-250 -671c-5 -13 -15 -19 -29 -19h-78c-14 0 -24 10 -25 23l-47 540l-6 76h-23l-28 -79l-196 -540c-5 -13 -15 -20 -29 -20h-78c-14 0 -25 10 -26 22l-63 668h67l48 -561c2 -25 3 -52 4 -79h26l28 81l196 538
c5 13 14 21 29 21h75c13 0 23 -11 24 -24l51 -537c2 -27 4 -53 5 -79h26l27 81l203 559h69z" />
    <glyph glyph-name="Wcircumflex" unicode="&#x174;" horiz-adv-x="937" 
d="M695 763l-25 -26l-118 101h-8l-148 -100l-19 28l149 124h46zM962 690l-250 -671c-5 -13 -15 -19 -29 -19h-78c-14 0 -24 10 -25 23l-47 540l-6 76h-23l-28 -79l-196 -540c-5 -13 -15 -20 -29 -20h-78c-14 0 -25 10 -26 22l-63 668h67l48 -561c2 -25 3 -52 4 -79h26l28 81
l196 538c5 13 14 21 29 21h75c13 0 23 -11 24 -24l51 -537c2 -27 4 -53 5 -79h26l27 81l203 559h69z" />
    <glyph glyph-name="Wdieresis" unicode="&#x1e84;" horiz-adv-x="937" 
d="M452 864h20c15 0 19 -6 17 -20l-8 -53c-2 -15 -8 -21 -22 -21h-21c-12 0 -19 6 -17 20l8 54c2 14 9 20 23 20zM624 864h19c16 0 20 -6 18 -20l-9 -53c-1 -15 -7 -21 -21 -21h-21c-12 0 -19 6 -17 20l8 54c2 14 8 20 23 20zM962 690l-250 -671c-5 -13 -15 -19 -29 -19h-78
c-14 0 -24 10 -25 23l-47 540l-6 76h-23l-28 -79l-196 -540c-5 -13 -15 -20 -29 -20h-78c-14 0 -25 10 -26 22l-63 668h67l48 -561c2 -25 3 -52 4 -79h26l28 81l196 538c5 13 14 21 29 21h75c13 0 23 -11 24 -24l51 -537c2 -27 4 -53 5 -79h26l27 81l203 559h69z" />
    <glyph glyph-name="Wgrave" unicode="&#x1e80;" horiz-adv-x="937" 
d="M577 759l-25 -29l-167 131l37 45zM962 690l-250 -671c-5 -13 -15 -19 -29 -19h-78c-14 0 -24 10 -25 23l-47 540l-6 76h-23l-28 -79l-196 -540c-5 -13 -15 -20 -29 -20h-78c-14 0 -25 10 -26 22l-63 668h67l48 -561c2 -25 3 -52 4 -79h26l28 81l196 538c5 13 14 21 29 21
h75c13 0 23 -11 24 -24l51 -537c2 -27 4 -53 5 -79h26l27 81l203 559h69z" />
    <glyph glyph-name="X" unicode="X" horiz-adv-x="602" 
d="M381 358l153 -358h-68l-139 334h-31l-233 -334h-76l255 359l-144 331h68l129 -305h32l218 305h73z" />
    <glyph glyph-name="Y" unicode="Y" horiz-adv-x="554" 
d="M301 247l-34 -247h-66l35 249l-169 441h67l115 -308c9 -23 17 -50 23 -74h7c11 24 29 54 43 77l201 305h72z" />
    <glyph glyph-name="Yacute" unicode="&#xdd;" horiz-adv-x="554" 
d="M302 731l-22 30l184 147l32 -49zM301 247l-34 -247h-66l35 249l-169 441h67l115 -308c9 -23 17 -50 23 -74h7c11 24 29 54 43 77l201 305h72z" />
    <glyph glyph-name="Ycircumflex" unicode="&#x176;" horiz-adv-x="554" 
d="M204 738l-20 29l150 123h45l123 -127l-25 -26l-118 102h-8zM301 247l-34 -247h-66l35 249l-169 441h67l115 -308c9 -23 17 -50 23 -74h7c11 24 29 54 43 77l201 305h72z" />
    <glyph glyph-name="Ydieresis" unicode="&#x178;" horiz-adv-x="554" 
d="M266 771h-20c-13 0 -19 5 -18 19l9 55c2 14 8 20 22 20h20c15 0 19 -6 17 -20l-8 -54c-2 -14 -8 -20 -22 -20zM438 771h-20c-13 0 -19 5 -18 19l9 55c1 14 8 20 22 20h20c15 0 19 -6 17 -20l-8 -54c-2 -14 -8 -20 -22 -20zM301 247l-34 -247h-66l35 249l-169 441h67
l115 -308c9 -23 17 -50 23 -74h7c11 24 29 54 43 77l201 305h72z" />
    <glyph glyph-name="Ygrave" unicode="&#x1ef2;" horiz-adv-x="554" 
d="M360 731l-167 130l37 46l154 -147zM301 247l-34 -247h-66l35 249l-169 441h67l115 -308c9 -23 17 -50 23 -74h7c11 24 29 54 43 77l201 305h72z" />
    <glyph glyph-name="Z" unicode="Z" horiz-adv-x="559" 
d="M563 690l-9 -56l-466 -578h392l-9 -56h-464l8 56l466 578h-381l8 56h455z" />
    <glyph glyph-name="Zacute" unicode="&#x179;" horiz-adv-x="559" 
d="M309 731l-22 30l183 147l33 -49zM563 690l-9 -56l-466 -578h392l-9 -56h-464l8 56l466 578h-381l8 56h455z" />
    <glyph glyph-name="Zcaron" unicode="&#x17d;" horiz-adv-x="559" 
d="M324 746l-119 127l26 25l115 -101h8l146 101l21 -28l-151 -124h-46zM563 690l-9 -56l-466 -578h392l-9 -56h-464l8 56l466 578h-381l8 56h455z" />
    <glyph glyph-name="Zdotaccent" unicode="&#x17b;" horiz-adv-x="559" 
d="M360 764h-21c-14 0 -21 9 -19 23l7 57c2 14 8 21 22 21h22c14 0 21 -9 19 -23l-8 -57c-2 -15 -8 -21 -22 -21zM563 690l-9 -56l-466 -578h392l-9 -56h-464l8 56l466 578h-381l8 56h455z" />
    <glyph glyph-name="a" unicode="a" horiz-adv-x="570" 
d="M446 0h-49l9 109c-62 -72 -146 -121 -226 -121c-119 0 -150 71 -122 258c31 212 94 251 245 251c66 0 145 -9 211 -20zM406 164l39 275c-53 2 -94 4 -124 4c-145 0 -174 -30 -200 -202c-22 -152 -10 -197 69 -197c65 0 139 42 216 120z" />
    <glyph glyph-name="aacute" unicode="&#xe1;" horiz-adv-x="570" 
d="M290 550l-22 31l183 146l33 -49zM446 0h-49l9 109c-62 -72 -146 -121 -226 -121c-119 0 -150 71 -122 258c31 212 94 251 245 251c66 0 145 -9 211 -20zM406 164l39 275c-53 2 -94 4 -124 4c-145 0 -174 -30 -200 -202c-22 -152 -10 -197 69 -197c65 0 139 42 216 120z
" />
    <glyph glyph-name="abreve" unicode="&#x103;" horiz-adv-x="570" 
d="M454 701l34 -9c-8 -75 -68 -124 -158 -124c-94 0 -146 52 -132 127l35 3c-8 -52 31 -80 97 -80c70 0 117 31 124 83zM446 0h-49l9 109c-62 -72 -146 -121 -226 -121c-119 0 -150 71 -122 258c31 212 94 251 245 251c66 0 145 -9 211 -20zM406 164l39 275
c-53 2 -94 4 -124 4c-145 0 -174 -30 -200 -202c-22 -152 -10 -197 69 -197c65 0 139 42 216 120z" />
    <glyph glyph-name="acircumflex" unicode="&#xe2;" horiz-adv-x="570" 
d="M191 558l-19 28l149 124h46l123 -127l-25 -26l-118 101h-8zM446 0h-49l9 109c-62 -72 -146 -121 -226 -121c-119 0 -150 71 -122 258c31 212 94 251 245 251c66 0 145 -9 211 -20zM406 164l39 275c-53 2 -94 4 -124 4c-145 0 -174 -30 -200 -202
c-22 -152 -10 -197 69 -197c65 0 139 42 216 120z" />
    <glyph glyph-name="adieresis" unicode="&#xe4;" horiz-adv-x="570" 
d="M254 590h-21c-12 0 -19 6 -17 19l8 55c2 14 9 20 23 20h20c15 0 19 -6 17 -20l-8 -54c-2 -14 -8 -20 -22 -20zM426 590h-21c-12 0 -19 6 -17 19l8 55c2 14 8 20 23 20h19c16 0 20 -6 18 -20l-9 -54c-1 -14 -7 -20 -21 -20zM446 0h-49l9 109c-62 -72 -146 -121 -226 -121
c-119 0 -150 71 -122 258c31 212 94 251 245 251c66 0 145 -9 211 -20zM406 164l39 275c-53 2 -94 4 -124 4c-145 0 -174 -30 -200 -202c-22 -152 -10 -197 69 -197c65 0 139 42 216 120z" />
    <glyph glyph-name="agrave" unicode="&#xe0;" horiz-adv-x="570" 
d="M347 550l-167 131l37 45l155 -147zM446 0h-49l9 109c-62 -72 -146 -121 -226 -121c-119 0 -150 71 -122 258c31 212 94 251 245 251c66 0 145 -9 211 -20zM406 164l39 275c-53 2 -94 4 -124 4c-145 0 -174 -30 -200 -202c-22 -152 -10 -197 69 -197c65 0 139 42 216 120z
" />
    <glyph glyph-name="amacron" unicode="&#x101;" horiz-adv-x="570" 
d="M468 612h-272l7 49h272zM446 0h-49l9 109c-62 -72 -146 -121 -226 -121c-119 0 -150 71 -122 258c31 212 94 251 245 251c66 0 145 -9 211 -20zM406 164l39 275c-53 2 -94 4 -124 4c-145 0 -174 -30 -200 -202c-22 -152 -10 -197 69 -197c65 0 139 42 216 120z" />
    <glyph glyph-name="aogonek" unicode="&#x105;" horiz-adv-x="570" 
d="M514 477l-68 -477c-36 -35 -68 -73 -94 -121c-28 -52 3 -68 74 -45l8 -28c-125 -51 -164 7 -130 77c17 32 48 72 107 117h-14l9 109c-62 -72 -146 -121 -226 -121c-119 0 -150 71 -122 258c31 212 94 251 245 251c66 0 145 -9 211 -20zM406 164l39 275
c-53 2 -94 4 -124 4c-145 0 -174 -30 -200 -202c-22 -152 -10 -197 69 -197c65 0 139 42 216 120z" />
    <glyph glyph-name="aring" unicode="&#xe5;" horiz-adv-x="570" 
d="M329 536c-62 0 -103 44 -96 104c6 52 48 98 110 98c61 0 103 -45 96 -104c-7 -52 -48 -98 -110 -98zM271 636c-4 -39 21 -65 58 -65c39 0 68 29 72 68c4 36 -18 64 -58 64s-68 -30 -72 -67zM446 0h-49l9 109c-62 -72 -146 -121 -226 -121c-119 0 -150 71 -122 258
c31 212 94 251 245 251c66 0 145 -9 211 -20zM406 164l39 275c-53 2 -94 4 -124 4c-145 0 -174 -30 -200 -202c-22 -152 -10 -197 69 -197c65 0 139 42 216 120z" />
    <glyph glyph-name="atilde" unicode="&#xe3;" horiz-adv-x="570" 
d="M465 691l32 -3c-4 -69 -40 -105 -88 -101c-69 5 -92 55 -138 61c-40 4 -58 -17 -64 -61l-31 3c4 74 42 108 88 104c62 -5 82 -54 137 -60c41 -4 58 15 64 57zM446 0h-49l9 109c-62 -72 -146 -121 -226 -121c-119 0 -150 71 -122 258c31 212 94 251 245 251
c66 0 145 -9 211 -20zM406 164l39 275c-53 2 -94 4 -124 4c-145 0 -174 -30 -200 -202c-22 -152 -10 -197 69 -197c65 0 139 42 216 120z" />
    <glyph glyph-name="ae" unicode="&#xe6;" horiz-adv-x="873" 
d="M769 55l5 -43c-44 -16 -138 -24 -193 -24c-111 0 -170 36 -189 116c-57 -68 -134 -116 -219 -116c-116 0 -143 81 -117 258c31 213 97 251 243 251c69 0 146 -9 215 -22c36 16 81 22 138 22c140 0 195 -45 174 -153c-17 -89 -67 -119 -176 -129l-198 -19
c-9 -125 38 -154 142 -154c54 0 127 7 175 13zM185 44c64 0 130 38 201 110c-1 28 1 61 6 97c13 88 33 146 67 184c-59 4 -103 8 -143 8c-141 0 -170 -34 -195 -202c-21 -148 -11 -197 64 -197zM457 245l193 19c72 8 100 25 113 85c18 86 -32 94 -116 94
c-119 0 -164 -28 -189 -194z" />
    <glyph glyph-name="b" unicode="b" horiz-adv-x="569" 
d="M147 371c67 67 152 125 225 125c111 0 154 -58 126 -258c-30 -216 -97 -250 -231 -250c-76 0 -155 13 -225 33l96 679h63l-29 -201c-7 -50 -13 -85 -25 -128zM148 324l-38 -273c56 -7 103 -10 136 -10c136 0 164 34 187 202c22 157 5 197 -75 197
c-53 0 -123 -40 -210 -116z" />
    <glyph glyph-name="c" unicode="c" horiz-adv-x="481" 
d="M401 54l5 -44c-49 -15 -108 -22 -159 -22c-168 0 -222 71 -195 257c26 186 95 252 258 252c42 0 105 -6 148 -22l-11 -41c-40 6 -95 8 -127 8c-128 0 -181 -41 -202 -202c-22 -160 15 -197 139 -197c31 0 96 2 144 11z" />
    <glyph glyph-name="cacute" unicode="&#x107;" horiz-adv-x="481" 
d="M460 678l-194 -128l-22 31l183 146zM401 54l5 -44c-49 -15 -108 -22 -159 -22c-168 0 -222 71 -195 257c26 186 95 252 258 252c42 0 105 -6 148 -22l-11 -41c-40 6 -95 8 -127 8c-128 0 -181 -41 -202 -202c-22 -160 15 -197 139 -197c31 0 96 2 144 11z" />
    <glyph glyph-name="ccaron" unicode="&#x10d;" horiz-adv-x="481" 
d="M478 689l-151 -123h-47l-118 127l26 24l114 -100h8l147 100zM401 54l5 -44c-49 -15 -108 -22 -159 -22c-168 0 -222 71 -195 257c26 186 95 252 258 252c42 0 105 -6 148 -22l-11 -41c-40 6 -95 8 -127 8c-128 0 -181 -41 -202 -202c-22 -160 15 -197 139 -197
c31 0 96 2 144 11z" />
    <glyph glyph-name="ccedilla" unicode="&#xe7;" horiz-adv-x="481" 
d="M401 54l5 -44c-49 -15 -108 -22 -159 -22c-168 0 -222 71 -195 257c26 186 95 252 258 252c42 0 105 -6 148 -22l-11 -41c-40 6 -95 8 -127 8c-128 0 -181 -41 -202 -202c-22 -160 15 -197 139 -197c31 0 96 2 144 11zM183 -88l7 31c69 6 102 -11 93 -68
c-13 -77 -82 -125 -172 -113l12 35c59 -2 105 34 113 79c4 28 -6 35 -53 36z" />
    <glyph glyph-name="cdotaccent" unicode="&#x10b;" horiz-adv-x="481" 
d="M306 684h22c13 0 21 -8 19 -22l-8 -58c-2 -14 -8 -20 -22 -20h-21c-14 0 -22 8 -20 22l8 58c2 14 8 20 22 20zM401 54l5 -44c-49 -15 -108 -22 -159 -22c-168 0 -222 71 -195 257c26 186 95 252 258 252c42 0 105 -6 148 -22l-11 -41c-40 6 -95 8 -127 8
c-128 0 -181 -41 -202 -202c-22 -160 15 -197 139 -197c31 0 96 2 144 11z" />
    <glyph glyph-name="d" unicode="d" horiz-adv-x="569" 
d="M544 700l-99 -700h-49l9 113c-60 -65 -145 -125 -236 -125c-104 0 -139 74 -112 258c30 213 95 251 240 251c49 0 106 -5 157 -12c2 32 4 58 9 93l17 122h64zM406 165l37 275c-52 2 -92 4 -125 4c-142 0 -173 -30 -197 -203c-21 -145 -11 -197 64 -197
c69 0 139 41 221 121z" />
    <glyph glyph-name="eth" unicode="&#xf0;" horiz-adv-x="552" 
d="M487 677l-79 -53c62 -62 97 -168 73 -346c-22 -167 -71 -290 -252 -290c-146 0 -202 73 -180 235c19 138 83 224 225 224c48 0 106 -9 151 -61c1 102 -25 166 -64 205l-93 -62l-18 28l83 57c-48 33 -110 39 -164 38l10 46c71 2 145 -10 202 -52l88 60zM232 42
c126 0 165 87 186 248c2 18 4 35 5 52c-41 41 -91 51 -139 51c-111 0 -154 -69 -169 -176c-19 -129 20 -175 117 -175z" />
    <glyph glyph-name="dcaron" unicode="&#x10f;" horiz-adv-x="569" 
d="M640 700h19c16 0 21 -6 18 -21l-8 -57c-5 -39 -24 -87 -45 -125l-29 10c11 35 19 60 27 102c-12 -1 -18 7 -17 18l8 53c3 16 8 20 27 20zM480 700h64l-99 -700h-49l9 113c-60 -65 -145 -125 -236 -125c-104 0 -139 74 -112 258c30 213 95 251 240 251
c49 0 106 -5 157 -12c2 32 4 58 9 93zM406 165l37 275c-52 2 -92 4 -125 4c-142 0 -173 -30 -197 -203c-21 -145 -11 -197 64 -197c69 0 139 41 221 121z" />
    <glyph glyph-name="dcroat" unicode="&#x111;" horiz-adv-x="569" 
d="M602 581h-75l-82 -581h-49l9 113c-60 -65 -145 -125 -236 -125c-104 0 -139 74 -112 258c30 213 95 251 240 251c49 0 106 -5 157 -12c2 32 4 58 9 93v3h-157l6 38h157l11 81h64l-11 -81h74zM406 165l37 275c-52 2 -92 4 -125 4c-142 0 -173 -30 -197 -203
c-21 -145 -11 -197 64 -197c69 0 139 41 221 121z" />
    <glyph glyph-name="e" unicode="e" horiz-adv-x="533" 
d="M432 55l5 -43c-46 -16 -139 -24 -195 -24c-165 0 -215 79 -189 263c28 198 98 246 260 246c139 0 195 -45 174 -153c-18 -89 -67 -119 -176 -129l-199 -19c-9 -125 38 -154 142 -154c56 0 129 7 178 13zM118 245l193 19c72 8 100 25 112 85c19 86 -32 94 -115 94
c-119 0 -164 -28 -190 -194v-4z" />
    <glyph glyph-name="eacute" unicode="&#xe9;" horiz-adv-x="533" 
d="M282 550l-22 31l183 146l33 -49zM432 55l5 -43c-46 -16 -139 -24 -195 -24c-165 0 -215 79 -189 263c28 198 98 246 260 246c139 0 195 -45 174 -153c-18 -89 -67 -119 -176 -129l-199 -19c-9 -125 38 -154 142 -154c56 0 129 7 178 13zM118 245l193 19
c72 8 100 25 112 85c19 86 -32 94 -115 94c-119 0 -164 -28 -190 -194v-4z" />
    <glyph glyph-name="ecaron" unicode="&#x11b;" horiz-adv-x="533" 
d="M296 566l-118 127l26 24l114 -100h8l147 100l21 -28l-151 -123h-47zM432 55l5 -43c-46 -16 -139 -24 -195 -24c-165 0 -215 79 -189 263c28 198 98 246 260 246c139 0 195 -45 174 -153c-18 -89 -67 -119 -176 -129l-199 -19c-9 -125 38 -154 142 -154c56 0 129 7 178 13
zM118 245l193 19c72 8 100 25 112 85c19 86 -32 94 -115 94c-119 0 -164 -28 -190 -194v-4z" />
    <glyph glyph-name="ecircumflex" unicode="&#xea;" horiz-adv-x="533" 
d="M183 558l-19 28l149 124h46l122 -127l-24 -26l-118 101h-9zM432 55l5 -43c-46 -16 -139 -24 -195 -24c-165 0 -215 79 -189 263c28 198 98 246 260 246c139 0 195 -45 174 -153c-18 -89 -67 -119 -176 -129l-199 -19c-9 -125 38 -154 142 -154c56 0 129 7 178 13z
M118 245l193 19c72 8 100 25 112 85c19 86 -32 94 -115 94c-119 0 -164 -28 -190 -194v-4z" />
    <glyph glyph-name="edieresis" unicode="&#xeb;" horiz-adv-x="533" 
d="M246 590h-21c-12 0 -19 6 -17 19l8 55c2 14 8 20 23 20h19c16 0 20 -6 18 -20l-9 -54c-1 -14 -7 -20 -21 -20zM418 590h-21c-13 0 -19 6 -17 19l8 55c2 14 8 20 22 20h20c16 0 20 -6 18 -20l-9 -54c-1 -14 -8 -20 -21 -20zM432 55l5 -43c-46 -16 -139 -24 -195 -24
c-165 0 -215 79 -189 263c28 198 98 246 260 246c139 0 195 -45 174 -153c-18 -89 -67 -119 -176 -129l-199 -19c-9 -125 38 -154 142 -154c56 0 129 7 178 13zM118 245l193 19c72 8 100 25 112 85c19 86 -32 94 -115 94c-119 0 -164 -28 -190 -194v-4z" />
    <glyph glyph-name="edotaccent" unicode="&#x117;" horiz-adv-x="533" 
d="M333 584h-21c-14 0 -22 8 -20 22l8 58c2 14 8 20 22 20h22c13 0 21 -8 19 -22l-8 -58c-2 -14 -8 -20 -22 -20zM432 55l5 -43c-46 -16 -139 -24 -195 -24c-165 0 -215 79 -189 263c28 198 98 246 260 246c139 0 195 -45 174 -153c-18 -89 -67 -119 -176 -129l-199 -19
c-9 -125 38 -154 142 -154c56 0 129 7 178 13zM118 245l193 19c72 8 100 25 112 85c19 86 -32 94 -115 94c-119 0 -164 -28 -190 -194v-4z" />
    <glyph glyph-name="egrave" unicode="&#xe8;" horiz-adv-x="533" 
d="M339 550l-167 131l37 45l155 -147zM432 55l5 -43c-46 -16 -139 -24 -195 -24c-165 0 -215 79 -189 263c28 198 98 246 260 246c139 0 195 -45 174 -153c-18 -89 -67 -119 -176 -129l-199 -19c-9 -125 38 -154 142 -154c56 0 129 7 178 13zM118 245l193 19
c72 8 100 25 112 85c19 86 -32 94 -115 94c-119 0 -164 -28 -190 -194v-4z" />
    <glyph glyph-name="emacron" unicode="&#x113;" horiz-adv-x="533" 
d="M460 612h-272l7 49h272zM432 55l5 -43c-46 -16 -139 -24 -195 -24c-165 0 -215 79 -189 263c28 198 98 246 260 246c139 0 195 -45 174 -153c-18 -89 -67 -119 -176 -129l-199 -19c-9 -125 38 -154 142 -154c56 0 129 7 178 13zM118 245l193 19c72 8 100 25 112 85
c19 86 -32 94 -115 94c-119 0 -164 -28 -190 -194v-4z" />
    <glyph glyph-name="eogonek" unicode="&#x119;" horiz-adv-x="533" 
d="M417 -154l7 -28c-124 -51 -164 7 -129 77c15 29 42 64 92 105c-47 -8 -106 -12 -145 -12c-165 0 -215 79 -189 263c28 198 98 246 260 246c139 0 195 -45 174 -153c-18 -89 -67 -119 -176 -129l-199 -19c-9 -125 38 -154 142 -154c56 0 129 7 178 13l5 -43
c-36 -35 -69 -74 -94 -121c-28 -53 3 -68 74 -45zM118 245l193 19c72 8 100 25 112 85c19 86 -32 94 -115 94c-119 0 -164 -28 -190 -194v-4z" />
    <glyph glyph-name="f" unicode="f" horiz-adv-x="368" 
d="M431 663h-102c-70 0 -100 -22 -110 -94l-12 -85h164l-8 -50h-163l-70 -500c-13 -90 -57 -138 -147 -138c-27 0 -67 2 -106 6l9 47h77c66 0 94 22 104 94l69 491h-87l6 45l88 5l14 94c12 90 58 138 152 138c32 0 94 -2 131 -6z" />
    <glyph glyph-name="g" unicode="g" horiz-adv-x="573" 
d="M519 477l-71 -473c-17 -130 -95 -212 -256 -218c-32 -2 -121 -1 -175 11l7 43c48 -2 97 -3 166 0c103 6 175 49 194 154c10 56 19 100 36 131c-64 -81 -155 -137 -242 -137c-110 0 -149 67 -120 258c32 213 96 251 240 251c69 0 150 -9 216 -20h5zM408 165l41 274
c-54 2 -96 4 -129 4c-142 0 -172 -30 -198 -202c-22 -151 -10 -197 69 -197c65 0 139 42 217 121z" />
    <glyph glyph-name="gbreve" unicode="&#x11f;" horiz-adv-x="573" 
d="M455 701l34 -9c-8 -75 -68 -124 -158 -124c-94 0 -146 52 -132 127l35 3c-7 -52 31 -80 97 -80c70 0 118 31 124 83zM519 477l-71 -473c-17 -130 -95 -212 -256 -218c-32 -2 -121 -1 -175 11l7 43c48 -2 97 -3 166 0c103 6 175 49 194 154c10 56 19 100 36 131
c-64 -81 -155 -137 -242 -137c-110 0 -149 67 -120 258c32 213 96 251 240 251c69 0 150 -9 216 -20h5zM408 165l41 274c-54 2 -96 4 -129 4c-142 0 -172 -30 -198 -202c-22 -151 -10 -197 69 -197c65 0 139 42 217 121z" />
    <glyph glyph-name="gcommaaccent" unicode="&#x123;" horiz-adv-x="573" 
d="M336 560h-19c-16 0 -21 6 -19 22l9 57c5 39 24 87 44 125l30 -9c-11 -36 -19 -61 -27 -103c12 1 18 -7 17 -19l-8 -53c-3 -15 -8 -20 -27 -20zM519 477l-71 -473c-17 -130 -95 -212 -256 -218c-32 -2 -121 -1 -175 11l7 43c48 -2 97 -3 166 0c103 6 175 49 194 154
c10 56 19 100 36 131c-64 -81 -155 -137 -242 -137c-110 0 -149 67 -120 258c32 213 96 251 240 251c69 0 150 -9 216 -20h5zM408 165l41 274c-54 2 -96 4 -129 4c-142 0 -172 -30 -198 -202c-22 -151 -10 -197 69 -197c65 0 139 42 217 121z" />
    <glyph glyph-name="gdotaccent" unicode="&#x121;" horiz-adv-x="573" 
d="M342 584h-21c-14 0 -21 8 -19 22l7 58c2 14 8 20 22 20h22c14 0 21 -8 19 -22l-8 -58c-2 -14 -8 -20 -22 -20zM519 477l-71 -473c-17 -130 -95 -212 -256 -218c-32 -2 -121 -1 -175 11l7 43c48 -2 97 -3 166 0c103 6 175 49 194 154c10 56 19 100 36 131
c-64 -81 -155 -137 -242 -137c-110 0 -149 67 -120 258c32 213 96 251 240 251c69 0 150 -9 216 -20h5zM408 165l41 274c-54 2 -96 4 -129 4c-142 0 -172 -30 -198 -202c-22 -151 -10 -197 69 -197c65 0 139 42 217 121z" />
    <glyph glyph-name="h" unicode="h" horiz-adv-x="574" 
d="M203 700l-27 -203c-6 -41 -15 -87 -23 -121c89 77 165 121 237 121c84 0 127 -47 115 -135l-52 -362h-63l49 349c10 69 -11 93 -67 93c-65 0 -129 -42 -222 -118l-45 -324h-64l99 700h63z" />
    <glyph glyph-name="hbar" unicode="&#x127;" horiz-adv-x="574" 
d="M187 581l-11 -84c-6 -41 -15 -87 -23 -121c89 77 165 121 237 121c84 0 127 -47 115 -135l-52 -362h-63l49 349c10 69 -11 93 -67 93c-65 0 -129 -42 -222 -118l-45 -324h-64l82 581h-75l6 38h75l11 81h63l-11 -81h156l-5 -38h-156z" />
    <glyph glyph-name="i" unicode="i" horiz-adv-x="236" 
d="M158 688h29c14 0 21 -9 19 -22l-8 -59c-2 -14 -8 -19 -22 -19h-29c-14 0 -22 8 -20 22l9 59c1 13 7 19 22 19zM109 0h-63l68 484h63z" />
    <glyph glyph-name="dotlessi" unicode="&#x131;" horiz-adv-x="236" 
d="M109 0h-64l69 484h63z" />
    <glyph glyph-name="iacute" unicode="&#xed;" horiz-adv-x="236" 
d="M315 678l-195 -128l-22 31l184 146zM109 0h-64l69 484h63z" />
    <glyph glyph-name="icircumflex" unicode="&#xee;" horiz-adv-x="236" 
d="M320 583l-24 -26l-118 101h-9l-147 -100l-19 28l149 124h45zM109 0h-64l69 484h63z" />
    <glyph glyph-name="idieresis" unicode="&#xef;" horiz-adv-x="236" 
d="M77 684h20c16 0 20 -6 18 -20l-9 -54c-1 -14 -7 -20 -21 -20h-21c-12 0 -19 6 -17 19l8 55c2 14 8 20 22 20zM249 684h20c16 0 20 -6 18 -20l-9 -54c-1 -14 -8 -20 -21 -20h-21c-13 0 -19 6 -18 19l9 55c2 14 8 20 22 20zM109 0h-64l69 484h63z" />
    <glyph glyph-name="igrave" unicode="&#xec;" horiz-adv-x="236" 
d="M203 579l-25 -29l-167 131l37 45zM109 0h-64l69 484h63z" />
    <glyph glyph-name="ij" unicode="&#x133;" horiz-adv-x="472" 
d="M158 688h29c14 0 21 -9 19 -22l-8 -59c-2 -14 -8 -19 -22 -19h-29c-14 0 -22 8 -20 22l9 59c1 13 7 19 22 19zM393 688h30c14 0 21 -9 19 -22l-8 -59c-2 -14 -8 -19 -22 -19h-29c-14 0 -22 8 -20 22l8 59c2 13 8 19 22 19zM109 0h-63l68 484h63zM413 484l-72 -510
c-10 -73 -51 -136 -107 -180l-34 29c43 46 69 91 78 155l72 506h63z" />
    <glyph glyph-name="imacron" unicode="&#x12b;" horiz-adv-x="236" 
d="M299 612h-272l7 49h272zM109 0h-64l69 484h63z" />
    <glyph glyph-name="iogonek" unicode="&#x12f;" horiz-adv-x="236" 
d="M161 684h22c13 0 21 -8 19 -22l-8 -58c-2 -14 -8 -20 -22 -20h-21c-14 0 -22 8 -20 22l8 58c2 14 8 20 22 20zM114 484h63l-68 -484h-5c-36 -35 -68 -73 -94 -121c-28 -52 3 -68 74 -45l8 -28c-125 -51 -164 7 -130 77c17 32 48 72 107 117h-24z" />
    <glyph glyph-name="j" unicode="j" horiz-adv-x="236" 
d="M158 688h29c14 0 21 -9 19 -22l-8 -59c-2 -14 -8 -19 -22 -19h-29c-14 0 -22 8 -20 22l9 59c1 13 7 19 22 19zM177 484l-72 -510c-10 -73 -50 -136 -107 -180l-34 29c43 46 69 91 78 155l72 506h63z" />
    <glyph glyph-name="k" unicode="k" horiz-adv-x="509" 
d="M420 484h65c-37 -102 -103 -169 -175 -216c10 -17 20 -36 28 -54l100 -214h-68l-109 239c-44 -23 -89 -41 -130 -57l-26 -182h-63l98 700h64l-49 -357c-5 -38 -13 -69 -25 -107c137 52 250 138 290 248z" />
    <glyph glyph-name="kcommaaccent" unicode="&#x137;" horiz-adv-x="509" 
d="M420 484h65c-37 -102 -103 -169 -175 -216c10 -17 20 -36 28 -54l100 -214h-68l-109 239c-44 -23 -89 -41 -130 -57l-26 -182h-63l98 700h64l-49 -357c-5 -38 -13 -69 -25 -107c137 52 250 138 290 248zM224 -60h19c15 0 21 -7 18 -22l-8 -57c-6 -40 -24 -87 -45 -126
l-29 10c11 35 19 60 27 102c-13 0 -19 8 -17 19l8 53c3 16 8 21 27 21z" />
    <glyph glyph-name="l" unicode="l" horiz-adv-x="283" 
d="M204 700l-81 -581c-8 -48 11 -69 59 -69h52l3 -48c-17 -7 -59 -10 -80 -10c-70 0 -109 43 -99 118l83 590h63z" />
    <glyph glyph-name="lacute" unicode="&#x13a;" horiz-adv-x="283" 
d="M342 881l-194 -128l-22 30l184 147zM204 700l-81 -581c-8 -48 11 -69 59 -69h52l3 -48c-17 -7 -59 -10 -80 -10c-70 0 -109 43 -99 118l83 590h63z" />
    <glyph glyph-name="lcaron" unicode="&#x13e;" horiz-adv-x="283" 
d="M306 700h19c15 0 21 -6 18 -22l-8 -57c-6 -39 -24 -86 -45 -125l-29 10c11 35 19 60 27 102c-13 -1 -19 7 -17 19l8 53c3 16 8 20 27 20zM204 700l-81 -581c-8 -48 11 -69 59 -69h52l3 -48c-17 -7 -59 -10 -80 -10c-70 0 -109 43 -99 118l83 590h63z" />
    <glyph glyph-name="lcommaaccent" unicode="&#x13c;" horiz-adv-x="283" 
d="M204 700l-81 -581c-8 -48 11 -69 59 -69h52l3 -48c-17 -7 -59 -10 -80 -10c-70 0 -109 43 -99 118l83 590h63zM121 -66h19c16 0 21 -6 19 -22l-9 -57c-5 -39 -24 -87 -44 -125l-30 10c11 35 19 60 27 102c-12 -1 -18 7 -17 19l8 53c3 16 8 20 27 20z" />
    <glyph glyph-name="ldot" unicode="&#x140;" horiz-adv-x="318" 
d="M204 700l-81 -581c-8 -48 11 -69 59 -69h52l3 -48c-17 -7 -59 -10 -80 -10c-70 0 -109 43 -99 118l83 590h63zM303 323h-22c-14 0 -21 8 -19 22l8 58c1 14 8 21 22 21h21c13 0 21 -9 19 -23l-7 -57c-2 -15 -8 -21 -22 -21z" />
    <glyph glyph-name="lslash" unicode="&#x142;" horiz-adv-x="295" 
d="M157 366l-34 -247c-8 -48 11 -69 59 -69h52l3 -48c-17 -7 -59 -10 -80 -10c-70 0 -109 43 -99 118l32 229l-67 -27l5 41l68 28l45 319h63l-41 -292l139 55l-6 -41z" />
    <glyph glyph-name="m" unicode="m" horiz-adv-x="874" 
d="M158 484l-9 -109c82 79 149 122 217 122c79 0 119 -43 115 -116c79 76 144 116 210 116c86 0 125 -50 113 -135l-51 -362h-63l50 349c9 69 -16 93 -71 93s-103 -34 -195 -117l-46 -325h-61l49 349c9 65 -11 93 -71 93c-56 0 -105 -35 -195 -116l-46 -326h-63l69 484h48z
" />
    <glyph glyph-name="n" unicode="n" horiz-adv-x="574" 
d="M160 484l-10 -110c90 79 167 123 240 123c84 0 127 -47 115 -135l-52 -362h-63l49 349c10 69 -11 93 -67 93c-65 0 -129 -42 -222 -116l-45 -326h-64l69 484h50z" />
    <glyph glyph-name="nacute" unicode="&#x144;" horiz-adv-x="574" 
d="M287 550l-22 31l184 146l33 -49zM160 484l-10 -110c90 79 167 123 240 123c84 0 127 -47 115 -135l-52 -362h-63l49 349c10 69 -11 93 -67 93c-65 0 -129 -42 -222 -116l-45 -326h-64l69 484h50z" />
    <glyph glyph-name="ncaron" unicode="&#x148;" horiz-adv-x="574" 
d="M302 566l-118 127l26 24l114 -100h8l147 100l21 -28l-152 -123h-46zM160 484l-10 -110c90 79 167 123 240 123c84 0 127 -47 115 -135l-52 -362h-63l49 349c10 69 -11 93 -67 93c-65 0 -129 -42 -222 -116l-45 -326h-64l69 484h50z" />
    <glyph glyph-name="ncommaaccent" unicode="&#x146;" horiz-adv-x="574" 
d="M160 484l-10 -110c90 79 167 123 240 123c84 0 127 -47 115 -135l-52 -362h-63l49 349c10 69 -11 93 -67 93c-65 0 -129 -42 -222 -116l-45 -326h-64l69 484h50zM241 -60h19c15 0 21 -7 18 -22l-8 -57c-6 -40 -24 -87 -45 -126l-29 10c11 35 19 60 27 102
c-13 0 -19 8 -17 19l8 53c3 16 8 21 27 21z" />
    <glyph glyph-name="eng" unicode="&#x14b;" horiz-adv-x="574" 
d="M158 484l-8 -110c87 76 162 123 239 123c87 0 128 -48 116 -135l-60 -430c-14 -93 -57 -139 -137 -139c-21 0 -48 4 -74 11l11 40h43c52 0 84 25 93 87l58 418c9 63 -10 89 -69 89c-69 0 -135 -49 -219 -112l-46 -326h-64l69 484h48z" />
    <glyph glyph-name="ntilde" unicode="&#xf1;" horiz-adv-x="574" 
d="M463 691l31 -3c-3 -69 -39 -105 -87 -101c-69 5 -92 55 -138 61c-40 4 -58 -17 -64 -61l-32 3c5 74 42 108 89 104c62 -5 82 -54 137 -60c40 -4 58 15 64 57zM160 484l-10 -110c90 79 167 123 240 123c84 0 127 -47 115 -135l-52 -362h-63l49 349c10 69 -11 93 -67 93
c-65 0 -129 -42 -222 -116l-45 -326h-64l69 484h50z" />
    <glyph glyph-name="o" unicode="o" horiz-adv-x="562" 
d="M306 497c161 0 217 -71 190 -258c-26 -185 -94 -251 -253 -251c-161 0 -217 69 -191 257c25 184 92 252 254 252zM306 442c-117 0 -166 -46 -188 -203c-22 -151 9 -197 125 -197c118 0 166 49 188 203c21 152 -10 197 -125 197z" />
    <glyph glyph-name="oacute" unicode="&#xf3;" horiz-adv-x="562" 
d="M476 678l-194 -128l-22 31l184 146zM306 497c161 0 217 -71 190 -258c-26 -185 -94 -251 -253 -251c-161 0 -217 69 -191 257c25 184 92 252 254 252zM306 442c-117 0 -166 -46 -188 -203c-22 -151 9 -197 125 -197c118 0 166 49 188 203c21 152 -10 197 -125 197z" />
    <glyph glyph-name="ocircumflex" unicode="&#xf4;" horiz-adv-x="562" 
d="M482 583l-25 -26l-118 101h-8l-148 -100l-19 28l150 124h45zM306 497c161 0 217 -71 190 -258c-26 -185 -94 -251 -253 -251c-161 0 -217 69 -191 257c25 184 92 252 254 252zM306 442c-117 0 -166 -46 -188 -203c-22 -151 9 -197 125 -197c118 0 166 49 188 203
c21 152 -10 197 -125 197z" />
    <glyph glyph-name="odieresis" unicode="&#xf6;" horiz-adv-x="562" 
d="M239 684h20c15 0 19 -6 17 -20l-8 -54c-2 -14 -8 -20 -22 -20h-20c-13 0 -19 6 -18 19l9 55c2 14 8 20 22 20zM411 684h20c15 0 19 -6 17 -20l-8 -54c-2 -14 -8 -20 -22 -20h-21c-12 0 -19 6 -17 19l8 55c2 14 9 20 23 20zM306 497c161 0 217 -71 190 -258
c-26 -185 -94 -251 -253 -251c-161 0 -217 69 -191 257c25 184 92 252 254 252zM306 442c-117 0 -166 -46 -188 -203c-22 -151 9 -197 125 -197c118 0 166 49 188 203c21 152 -10 197 -125 197z" />
    <glyph glyph-name="ograve" unicode="&#xf2;" horiz-adv-x="562" 
d="M364 579l-24 -29l-167 131l36 45zM306 497c161 0 217 -71 190 -258c-26 -185 -94 -251 -253 -251c-161 0 -217 69 -191 257c25 184 92 252 254 252zM306 442c-117 0 -166 -46 -188 -203c-22 -151 9 -197 125 -197c118 0 166 49 188 203c21 152 -10 197 -125 197z" />
    <glyph glyph-name="ohungarumlaut" unicode="&#x151;" horiz-adv-x="562" 
d="M533 702l-150 -156l-28 22l137 164zM377 702l-150 -156l-28 22l137 164zM306 497c161 0 217 -71 190 -258c-26 -185 -94 -251 -253 -251c-161 0 -217 69 -191 257c25 184 92 252 254 252zM306 442c-117 0 -166 -46 -188 -203c-22 -151 9 -197 125 -197
c118 0 166 49 188 203c21 152 -10 197 -125 197z" />
    <glyph glyph-name="omacron" unicode="&#x14d;" horiz-adv-x="562" 
d="M461 612h-273l7 49h272zM306 497c161 0 217 -71 190 -258c-26 -185 -94 -251 -253 -251c-161 0 -217 69 -191 257c25 184 92 252 254 252zM306 442c-117 0 -166 -46 -188 -203c-22 -151 9 -197 125 -197c118 0 166 49 188 203c21 152 -10 197 -125 197z" />
    <glyph glyph-name="oslash" unicode="&#xf8;" horiz-adv-x="562" 
d="M479 537l-42 -68c59 -36 76 -108 59 -230c-26 -185 -94 -251 -253 -251c-36 0 -66 3 -91 10l-42 -68l-31 17l39 64c-64 34 -84 107 -66 234c25 184 92 252 254 252c39 0 72 -4 99 -13l43 71zM149 62l225 372c-18 6 -41 8 -68 8c-117 0 -166 -46 -188 -203
c-14 -97 -6 -151 31 -177zM405 417l-223 -369c17 -4 37 -6 61 -6c118 0 166 49 188 203c13 91 7 144 -26 172z" />
    <glyph glyph-name="otilde" unicode="&#xf5;" horiz-adv-x="562" 
d="M200 587l-32 3c5 74 42 108 88 104c62 -5 83 -54 137 -60c41 -4 59 15 64 57l32 -3c-4 -69 -40 -105 -88 -101c-68 5 -91 55 -138 61c-40 4 -57 -17 -63 -61zM306 497c161 0 217 -71 190 -258c-26 -185 -94 -251 -253 -251c-161 0 -217 69 -191 257
c25 184 92 252 254 252zM306 442c-117 0 -166 -46 -188 -203c-22 -151 9 -197 125 -197c118 0 166 49 188 203c21 152 -10 197 -125 197z" />
    <glyph glyph-name="oe" unicode="&#x153;" horiz-adv-x="911" 
d="M808 55l5 -43c-45 -16 -139 -24 -194 -24c-94 0 -151 26 -177 84c-41 -60 -103 -84 -200 -84c-160 0 -217 69 -191 257c26 184 93 252 254 252c94 0 152 -24 179 -80c41 61 106 80 207 80c139 0 194 -45 173 -153c-17 -89 -66 -119 -175 -129l-199 -19
c-8 -121 36 -153 143 -153c53 0 127 6 175 12zM242 42c118 0 167 49 188 203c22 152 -9 197 -125 197c-117 0 -166 -46 -188 -203c-21 -151 9 -197 125 -197zM496 245l193 20c72 7 101 25 112 84c18 87 -33 93 -117 93c-114 0 -160 -29 -186 -180z" />
    <glyph glyph-name="p" unicode="p" horiz-adv-x="571" 
d="M160 484l-10 -113c65 69 160 125 228 125c117 0 148 -67 121 -258c-31 -212 -95 -250 -242 -250c-47 0 -104 4 -156 11c-1 -32 -3 -58 -8 -93l-18 -115h-63l98 693h50zM150 320l-38 -276c53 -2 93 -3 124 -3c144 0 174 29 199 202c21 152 10 197 -69 197
c-52 0 -137 -42 -216 -120z" />
    <glyph glyph-name="thorn" unicode="&#xfe;" horiz-adv-x="570" 
d="M155 384l1 -3c61 69 144 115 222 115c113 0 148 -67 121 -258c-31 -212 -94 -250 -242 -250c-46 0 -102 4 -153 12c-2 -27 -5 -51 -10 -80l-17 -124h-63l127 904h63l-30 -212c-5 -38 -9 -67 -19 -104zM150 320l-38 -274c53 -3 94 -4 124 -4c143 0 173 29 198 201
c22 152 10 197 -68 197c-65 0 -139 -43 -216 -120z" />
    <glyph glyph-name="q" unicode="q" horiz-adv-x="567" 
d="M511 463l-96 -672h-63l30 198c7 51 14 87 28 129c-64 -72 -139 -130 -233 -130c-100 0 -148 58 -121 258c30 215 96 251 229 251c79 0 156 -14 226 -34zM406 165l37 268c-55 8 -102 10 -136 10c-133 0 -164 -32 -186 -202c-20 -150 -8 -197 73 -197c71 0 123 36 212 121z
" />
    <glyph glyph-name="r" unicode="r" horiz-adv-x="393" 
d="M403 497l-16 -60h-23c-61 0 -122 -42 -214 -114l-45 -323h-64l69 484h48l-9 -114c84 80 161 127 231 127h23z" />
    <glyph glyph-name="racute" unicode="&#x155;" horiz-adv-x="393" 
d="M229 550l-22 31l184 146l32 -49zM158 484l-9 -114c84 80 161 127 231 127h23l-16 -60h-23c-61 0 -122 -42 -214 -114l-45 -323h-64l69 484h48z" />
    <glyph glyph-name="rcaron" unicode="&#x159;" horiz-adv-x="393" 
d="M244 566l-118 127l26 24l114 -100h8l146 100l21 -28l-151 -123h-46zM158 484l-9 -114c84 80 161 127 231 127h23l-16 -60h-23c-61 0 -122 -42 -214 -114l-45 -323h-64l69 484h48z" />
    <glyph glyph-name="rcommaaccent" unicode="&#x157;" horiz-adv-x="393" 
d="M403 497l-16 -60h-23c-61 0 -122 -42 -214 -114l-45 -323h-64l69 484h48l-9 -114c84 80 161 127 231 127h23zM54 -60h19c16 0 21 -7 18 -22l-8 -57c-5 -40 -24 -87 -45 -126l-29 10c11 35 19 60 27 102c-12 0 -18 8 -17 19l8 53c3 16 8 21 27 21z" />
    <glyph glyph-name="s" unicode="s" horiz-adv-x="503" 
d="M299 191l-144 60c-64 28 -101 57 -91 134c14 97 79 114 200 112c66 -1 142 -7 198 -15l-8 -45c-60 3 -121 5 -188 6c-95 1 -131 -2 -140 -63c-7 -48 15 -62 61 -81l145 -60c71 -30 105 -57 95 -133c-15 -108 -92 -118 -221 -118c-77 0 -109 5 -181 14l8 47
c53 -6 108 -7 161 -7c123 2 162 12 170 70c8 49 -19 60 -65 79z" />
    <glyph glyph-name="sacute" unicode="&#x15b;" horiz-adv-x="503" 
d="M451 678l-194 -128l-22 31l183 146zM299 191l-144 60c-64 28 -101 57 -91 134c14 97 79 114 200 112c66 -1 142 -7 198 -15l-8 -45c-60 3 -121 5 -188 6c-95 1 -131 -2 -140 -63c-7 -48 15 -62 61 -81l145 -60c71 -30 105 -57 95 -133c-15 -108 -92 -118 -221 -118
c-77 0 -109 5 -181 14l8 47c53 -6 108 -7 161 -7c123 2 162 12 170 70c8 49 -19 60 -65 79z" />
    <glyph glyph-name="scaron" unicode="&#x161;" horiz-adv-x="503" 
d="M469 689l-151 -123h-46l-119 127l27 24l114 -100h8l146 100zM299 191l-144 60c-64 28 -101 57 -91 134c14 97 79 114 200 112c66 -1 142 -7 198 -15l-8 -45c-60 3 -121 5 -188 6c-95 1 -131 -2 -140 -63c-7 -48 15 -62 61 -81l145 -60c71 -30 105 -57 95 -133
c-15 -108 -92 -118 -221 -118c-77 0 -109 5 -181 14l8 47c53 -6 108 -7 161 -7c123 2 162 12 170 70c8 49 -19 60 -65 79z" />
    <glyph glyph-name="scedilla" unicode="&#x15f;" horiz-adv-x="503" 
d="M299 191l-144 60c-64 28 -101 57 -91 134c14 97 79 114 200 112c66 -1 142 -7 198 -15l-8 -45c-60 3 -121 5 -188 6c-95 1 -131 -2 -140 -63c-7 -48 15 -62 61 -81l145 -60c71 -30 105 -57 95 -133c-15 -108 -92 -118 -221 -118c-77 0 -109 5 -181 14l8 47
c53 -6 108 -7 161 -7c123 2 162 12 170 70c8 49 -19 60 -65 79zM163 -87l8 31c69 6 102 -11 92 -68c-13 -77 -81 -125 -172 -113l12 35c60 -2 105 34 113 79c4 28 -6 35 -53 36z" />
    <glyph glyph-name="scommaaccent" unicode="&#x219;" horiz-adv-x="503" 
d="M299 191l-144 60c-64 28 -101 57 -91 134c14 97 79 114 200 112c66 -1 142 -7 198 -15l-8 -45c-60 3 -121 5 -188 6c-95 1 -131 -2 -140 -63c-7 -48 15 -62 61 -81l145 -60c71 -30 105 -57 95 -133c-15 -108 -92 -118 -221 -118c-77 0 -109 5 -181 14l8 47
c53 -6 108 -7 161 -7c123 2 162 12 170 70c8 49 -19 60 -65 79zM206 -60h19c15 0 21 -7 18 -22l-8 -57c-6 -40 -24 -87 -45 -126l-29 10c11 35 19 60 27 102c-13 0 -19 8 -17 19l8 53c3 16 8 21 27 21z" />
    <glyph glyph-name="germandbls" unicode="&#xdf;" horiz-adv-x="663" 
d="M416 296l109 -60c57 -32 83 -59 74 -129c-13 -102 -82 -118 -191 -118c-37 0 -92 2 -157 11l8 48c52 -4 104 -6 143 -5c83 1 126 11 133 72c7 50 -20 63 -53 83l-110 60c-50 29 -75 61 -68 111c8 70 68 93 146 127c44 22 84 43 88 98c4 44 -16 71 -142 71
c-125 0 -167 -27 -182 -134l-84 -597c-15 -96 -59 -138 -153 -138c-17 0 -62 2 -100 6l9 47h77c66 0 93 22 104 94l70 491h-89l7 45l89 5l8 56c22 159 109 178 235 178c162 0 222 -30 211 -127c-6 -63 -41 -96 -109 -129c-65 -28 -117 -42 -124 -97c-5 -31 12 -48 51 -69z
" />
    <glyph glyph-name="t" unicode="t" horiz-adv-x="365" 
d="M197 434l-44 -315c-7 -49 11 -69 60 -69h80l3 -48c-31 -7 -81 -10 -101 -10c-81 0 -116 45 -105 122l45 320h-89l6 45l90 5l21 147h62l-20 -147h163l-8 -50h-163z" />
    <glyph glyph-name="tbar" unicode="&#x167;" horiz-adv-x="365" 
d="M197 434l-14 -101h143l-5 -38h-143l-25 -176c-7 -49 11 -69 60 -69h80l3 -48c-31 -7 -81 -10 -101 -10c-81 0 -116 45 -105 122l25 181h-67l5 38h68l14 101h-89l6 45l90 5l21 147h62l-20 -147h163l-8 -50h-163z" />
    <glyph glyph-name="tcaron" unicode="&#x165;" horiz-adv-x="365" 
d="M310 558l-29 10c11 35 19 60 27 102c-12 -1 -19 7 -17 19l8 53c3 16 8 20 27 20h19c16 0 21 -6 18 -22l-8 -57c-5 -39 -24 -86 -45 -125zM197 434l-44 -315c-7 -49 11 -69 60 -69h80l3 -48c-31 -7 -81 -10 -101 -10c-81 0 -116 45 -105 122l45 320h-89l6 45l90 5l21 147
h62l-20 -147h163l-8 -50h-163z" />
    <glyph glyph-name="tcedilla" unicode="&#x163;" horiz-adv-x="365" 
d="M197 434l-44 -315c-7 -49 11 -69 60 -69h80l3 -48c-31 -7 -81 -10 -101 -10c-81 0 -116 45 -105 122l45 320h-89l6 45l90 5l21 147h62l-20 -147h163l-8 -50h-163zM112 -84l7 31c69 6 102 -11 93 -68c-13 -77 -82 -124 -172 -112l12 34c59 -2 105 34 113 80
c4 27 -6 34 -53 35z" />
    <glyph glyph-name="uni021B" unicode="&#x21b;" horiz-adv-x="365" 
d="M197 434l-44 -315c-7 -49 11 -69 60 -69h80l3 -48c-31 -7 -81 -10 -101 -10c-81 0 -116 45 -105 122l45 320h-89l6 45l90 5l21 147h62l-20 -147h163l-8 -50h-163zM168 -60h19c16 0 21 -7 18 -22l-8 -57c-6 -40 -24 -87 -45 -126l-29 10c11 35 19 60 27 102
c-13 0 -19 8 -17 19l8 53c3 16 8 21 27 21z" />
    <glyph glyph-name="u" unicode="u" 
d="M508 484l-68 -484h-49l10 113c-85 -83 -158 -125 -231 -125c-88 0 -127 49 -115 134l51 362h64l-50 -348c-10 -66 12 -93 70 -93c65 0 122 42 211 123l44 318h63z" />
    <glyph glyph-name="uacute" unicode="&#xfa;" 
d="M283 553l-22 30l184 147l32 -50zM508 484l-68 -484h-49l10 113c-85 -83 -158 -125 -231 -125c-88 0 -127 49 -115 134l51 362h64l-50 -348c-10 -66 12 -93 70 -93c65 0 122 42 211 123l44 318h63z" />
    <glyph glyph-name="ucircumflex" unicode="&#xfb;" 
d="M185 560l-20 29l150 123h45l123 -127l-25 -26l-118 102h-8zM508 484l-68 -484h-49l10 113c-85 -83 -158 -125 -231 -125c-88 0 -127 49 -115 134l51 362h64l-50 -348c-10 -66 12 -93 70 -93c65 0 122 42 211 123l44 318h63z" />
    <glyph glyph-name="udieresis" unicode="&#xfc;" 
d="M247 593h-20c-13 0 -19 5 -18 19l9 55c2 13 8 20 22 20h20c15 0 19 -7 17 -20l-8 -54c-2 -14 -8 -20 -22 -20zM419 593h-20c-13 0 -19 5 -18 19l9 55c2 13 8 20 22 20h20c15 0 19 -7 17 -20l-8 -54c-2 -14 -8 -20 -22 -20zM508 484l-68 -484h-49l10 113
c-85 -83 -158 -125 -231 -125c-88 0 -127 49 -115 134l51 362h64l-50 -348c-10 -66 12 -93 70 -93c65 0 122 42 211 123l44 318h63z" />
    <glyph glyph-name="ugrave" unicode="&#xf9;" 
d="M341 553l-167 130l37 46l155 -147zM508 484l-68 -484h-49l10 113c-85 -83 -158 -125 -231 -125c-88 0 -127 49 -115 134l51 362h64l-50 -348c-10 -66 12 -93 70 -93c65 0 122 42 211 123l44 318h63z" />
    <glyph glyph-name="uhungarumlaut" unicode="&#x171;" 
d="M229 548l-29 23l137 164l41 -31zM356 571l137 164l41 -31l-150 -156zM445 484h63l-68 -484h-49l10 113c-85 -83 -158 -125 -231 -125c-88 0 -127 49 -115 134l51 362h64l-50 -348c-10 -66 12 -93 70 -93c65 0 122 42 211 123z" />
    <glyph glyph-name="umacron" unicode="&#x16b;" 
d="M462 614h-272l6 49h273zM508 484l-68 -484h-49l10 113c-85 -83 -158 -125 -231 -125c-88 0 -127 49 -115 134l51 362h64l-50 -348c-10 -66 12 -93 70 -93c65 0 122 42 211 123l44 318h63z" />
    <glyph glyph-name="uogonek" unicode="&#x173;" 
d="M508 484l-68 -484c-36 -35 -69 -73 -94 -121c-28 -52 3 -68 73 -45l8 -28c-124 -51 -164 7 -129 77c16 32 47 72 107 117h-14l10 113c-85 -83 -158 -125 -231 -125c-88 0 -127 49 -115 134l51 362h64l-50 -348c-10 -66 12 -93 70 -93c65 0 122 42 211 123l44 318h63z" />
    <glyph glyph-name="uring" unicode="&#x16f;" 
d="M322 538c-62 0 -102 45 -95 104c6 53 47 99 109 99c61 0 104 -45 96 -105c-6 -52 -47 -98 -110 -98zM265 638c-5 -39 21 -65 58 -65c39 0 67 30 71 68c4 36 -18 65 -57 65c-41 0 -68 -31 -72 -68zM508 484l-68 -484h-49l10 113c-85 -83 -158 -125 -231 -125
c-88 0 -127 49 -115 134l51 362h64l-50 -348c-10 -66 12 -93 70 -93c65 0 122 42 211 123l44 318h63z" />
    <glyph glyph-name="v" unicode="v" horiz-adv-x="521" 
d="M440 484h66c-26 -116 -64 -211 -103 -287c-38 -71 -72 -127 -96 -156c-21 -29 -40 -41 -79 -41h-58c-12 0 -21 8 -23 18l-97 466h66l82 -433h17c23 0 34 5 51 27c18 24 50 75 84 145c46 92 71 166 90 261z" />
    <glyph glyph-name="w" unicode="w" horiz-adv-x="837" 
d="M190 51h13c15 0 27 4 43 30c18 28 44 82 67 143c28 75 47 146 67 244c1 11 9 17 19 16h69c10 0 17 -7 19 -16l55 -417h12c17 0 29 11 40 28c30 45 53 81 79 145c40 88 61 172 78 260h66c-25 -109 -55 -201 -95 -287c-33 -69 -70 -131 -92 -158c-20 -26 -39 -39 -72 -39
h-43c-12 0 -21 8 -22 18l-55 423h-11c-8 -52 -32 -152 -62 -233c-21 -58 -55 -127 -79 -160c-22 -37 -51 -48 -85 -48h-39c-12 0 -20 8 -22 18l-90 466h65z" />
    <glyph glyph-name="wacute" unicode="&#x1e83;" horiz-adv-x="837" 
d="M616 678l-194 -128l-22 31l183 146zM190 51h13c15 0 27 4 43 30c18 28 44 82 67 143c28 75 47 146 67 244c1 11 9 17 19 16h69c10 0 17 -7 19 -16l55 -417h12c17 0 29 11 40 28c30 45 53 81 79 145c40 88 61 172 78 260h66c-25 -109 -55 -201 -95 -287
c-33 -69 -70 -131 -92 -158c-20 -26 -39 -39 -72 -39h-43c-12 0 -21 8 -22 18l-55 423h-11c-8 -52 -32 -152 -62 -233c-21 -58 -55 -127 -79 -160c-22 -37 -51 -48 -85 -48h-39c-12 0 -20 8 -22 18l-90 466h65z" />
    <glyph glyph-name="wcircumflex" unicode="&#x175;" horiz-adv-x="837" 
d="M622 583l-25 -26l-118 101h-8l-148 -100l-19 28l150 124h45zM190 51h13c15 0 27 4 43 30c18 28 44 82 67 143c28 75 47 146 67 244c1 11 9 17 19 16h69c10 0 17 -7 19 -16l55 -417h12c17 0 29 11 40 28c30 45 53 81 79 145c40 88 61 172 78 260h66
c-25 -109 -55 -201 -95 -287c-33 -69 -70 -131 -92 -158c-20 -26 -39 -39 -72 -39h-43c-12 0 -21 8 -22 18l-55 423h-11c-8 -52 -32 -152 -62 -233c-21 -58 -55 -127 -79 -160c-22 -37 -51 -48 -85 -48h-39c-12 0 -20 8 -22 18l-90 466h65z" />
    <glyph glyph-name="wdieresis" unicode="&#x1e85;" horiz-adv-x="837" 
d="M379 684h20c15 0 19 -6 17 -20l-8 -54c-2 -14 -8 -20 -22 -20h-20c-13 0 -19 6 -18 19l8 55c2 14 9 20 23 20zM551 684h19c16 0 20 -6 18 -20l-9 -54c-1 -14 -7 -20 -21 -20h-21c-12 0 -19 6 -17 19l8 55c2 14 9 20 23 20zM190 51h13c15 0 27 4 43 30c18 28 44 82 67 143
c28 75 47 146 67 244c1 11 9 17 19 16h69c10 0 17 -7 19 -16l55 -417h12c17 0 29 11 40 28c30 45 53 81 79 145c40 88 61 172 78 260h66c-25 -109 -55 -201 -95 -287c-33 -69 -70 -131 -92 -158c-20 -26 -39 -39 -72 -39h-43c-12 0 -21 8 -22 18l-55 423h-11
c-8 -52 -32 -152 -62 -233c-21 -58 -55 -127 -79 -160c-22 -37 -51 -48 -85 -48h-39c-12 0 -20 8 -22 18l-90 466h65z" />
    <glyph glyph-name="wgrave" unicode="&#x1e81;" horiz-adv-x="837" 
d="M504 579l-25 -29l-167 131l37 45zM190 51h13c15 0 27 4 43 30c18 28 44 82 67 143c28 75 47 146 67 244c1 11 9 17 19 16h69c10 0 17 -7 19 -16l55 -417h12c17 0 29 11 40 28c30 45 53 81 79 145c40 88 61 172 78 260h66c-25 -109 -55 -201 -95 -287
c-33 -69 -70 -131 -92 -158c-20 -26 -39 -39 -72 -39h-43c-12 0 -21 8 -22 18l-55 423h-11c-8 -52 -32 -152 -62 -233c-21 -58 -55 -127 -79 -160c-22 -37 -51 -48 -85 -48h-39c-12 0 -20 8 -22 18l-90 466h65z" />
    <glyph glyph-name="x" unicode="x" horiz-adv-x="517" 
d="M316 251l134 -251h-65l-119 227h-26l-182 -227h-73l206 252l-124 232h65l107 -206h29l168 206h70z" />
    <glyph glyph-name="y" unicode="y" horiz-adv-x="529" 
d="M445 484h66c-34 -139 -83 -276 -162 -411c-103 -180 -185 -257 -301 -280l-11 44c75 21 136 67 201 163h-41c-27 0 -48 17 -53 42l-96 442h67l83 -412c3 -13 12 -21 25 -21h47l23 40c73 130 116 243 152 393z" />
    <glyph glyph-name="yacute" unicode="&#xfd;" horiz-adv-x="529" 
d="M252 550l-22 31l183 146l33 -49zM445 484h66c-34 -139 -83 -276 -162 -411c-103 -180 -185 -257 -301 -280l-11 44c75 21 136 67 201 163h-41c-27 0 -48 17 -53 42l-96 442h67l83 -412c3 -13 12 -21 25 -21h47l23 40c73 130 116 243 152 393z" />
    <glyph glyph-name="ycircumflex" unicode="&#x177;" horiz-adv-x="529" 
d="M153 558l-19 28l149 124h46l123 -127l-25 -26l-118 101h-9zM445 484h66c-34 -139 -83 -276 -162 -411c-103 -180 -185 -257 -301 -280l-11 44c75 21 136 67 201 163h-41c-27 0 -48 17 -53 42l-96 442h67l83 -412c3 -13 12 -21 25 -21h47l23 40c73 130 116 243 152 393z
" />
    <glyph glyph-name="ydieresis" unicode="&#xff;" horiz-adv-x="529" 
d="M216 590h-21c-12 0 -19 6 -17 19l8 55c2 14 9 20 23 20h19c16 0 20 -6 18 -20l-9 -54c-1 -14 -7 -20 -21 -20zM388 590h-21c-12 0 -19 6 -17 19l8 55c2 14 8 20 22 20h20c16 0 20 -6 18 -20l-9 -54c-1 -14 -7 -20 -21 -20zM445 484h66c-34 -139 -83 -276 -162 -411
c-103 -180 -185 -257 -301 -280l-11 44c75 21 136 67 201 163h-41c-27 0 -48 17 -53 42l-96 442h67l83 -412c3 -13 12 -21 25 -21h47l23 40c73 130 116 243 152 393z" />
    <glyph glyph-name="ygrave" unicode="&#x1ef3;" horiz-adv-x="529" 
d="M309 550l-167 131l37 45l155 -147zM445 484h66c-34 -139 -83 -276 -162 -411c-103 -180 -185 -257 -301 -280l-11 44c75 21 136 67 201 163h-41c-27 0 -48 17 -53 42l-96 442h67l83 -412c3 -13 12 -21 25 -21h47l23 40c73 130 116 243 152 393z" />
    <glyph glyph-name="z" unicode="z" horiz-adv-x="497" 
d="M466 432l-376 -379h325l-7 -53h-400l6 53l376 379h-318l7 52h394z" />
    <glyph glyph-name="zacute" unicode="&#x17a;" horiz-adv-x="497" 
d="M245 550l-22 31l183 146l33 -49zM466 432l-376 -379h325l-7 -53h-400l6 53l376 379h-318l7 52h394z" />
    <glyph glyph-name="zcaron" unicode="&#x17e;" horiz-adv-x="497" 
d="M259 566l-118 127l26 24l114 -100h8l147 100l21 -28l-151 -123h-47zM466 432l-376 -379h325l-7 -53h-400l6 53l376 379h-318l7 52h394z" />
    <glyph glyph-name="zdotaccent" unicode="&#x17c;" horiz-adv-x="497" 
d="M296 584h-21c-14 0 -21 8 -20 22l8 58c2 14 8 20 22 20h22c13 0 21 -8 19 -22l-8 -58c-2 -14 -8 -20 -22 -20zM466 432l-376 -379h325l-7 -53h-400l6 53l376 379h-318l7 52h394z" />
    <glyph glyph-name="c_t" horiz-adv-x="808" 
d="M641 434l-45 -315c-7 -49 11 -69 60 -69h80l3 -48c-31 -7 -81 -10 -101 -10c-81 0 -116 45 -105 122l45 319h-258c-128 0 -181 -39 -202 -193c-22 -160 15 -197 139 -197c31 0 96 2 144 11l5 -44c-49 -15 -108 -22 -159 -22c-168 0 -222 71 -195 257
c26 175 95 239 258 239h275l21 147h62l-20 -147h163l-7 -50h-163z" />
    <glyph glyph-name="f_f_y" horiz-adv-x="1182" 
d="M1097 484h66c-34 -139 -83 -276 -162 -411c-102 -180 -185 -257 -300 -280l-12 44c75 21 137 67 202 163h-42c-27 0 -47 17 -53 42l-73 337c-8 36 -30 55 -68 55h-132l-68 -479c-13 -90 -56 -137 -147 -137c-26 0 -67 1 -105 6l9 47h76c67 0 94 21 104 93l67 470h-258
l-71 -500c-13 -90 -57 -138 -147 -138c-27 0 -67 2 -106 6l9 47h77c66 0 93 22 104 94l70 491h-89l7 45l89 5l11 79c13 90 59 138 152 138c32 0 94 -1 131 -6l-9 -47h-102c-69 0 -99 -21 -109 -94l-10 -70h258l13 94c13 90 59 138 152 138c32 0 94 -2 131 -6l-9 -47h-102
c-69 0 -99 -22 -109 -94l-12 -85h144c62 0 99 -30 111 -92l65 -320c3 -13 13 -21 26 -21h46l23 40c73 130 117 243 152 393z" />
    <glyph glyph-name="f_t" horiz-adv-x="695" 
d="M528 434l-44 -315c-8 -49 10 -69 59 -69h81l2 -48c-30 -7 -81 -10 -101 -10c-81 0 -116 45 -105 122l45 320h-265l-70 -500c-13 -90 -57 -138 -147 -138c-27 0 -67 2 -106 6l9 47h77c66 0 94 22 104 94l69 491h-87l6 45l88 5l14 94c12 90 58 138 152 138
c32 0 94 -2 131 -6l-9 -47h-102c-70 0 -100 -22 -110 -94l-12 -85h265l21 147h63l-21 -147h163l-7 -50h-163z" />
    <glyph glyph-name="f_y" horiz-adv-x="857" 
d="M772 484h66c-34 -139 -83 -276 -162 -411c-102 -180 -185 -257 -300 -280l-12 44c75 21 137 67 202 163h-42c-27 0 -47 17 -53 42l-73 337c-8 36 -30 55 -68 55h-132l-68 -500c-13 -90 -57 -138 -147 -138c-27 0 -67 2 -106 6l9 47h77c66 0 94 22 104 94l67 491h-88l6 45
l89 5l13 94c13 90 59 138 152 138c32 0 94 -2 131 -6l-9 -47h-102c-69 0 -99 -22 -109 -94l-12 -85h144c62 0 99 -30 111 -92l65 -320c3 -13 13 -21 26 -21h46l23 40c73 130 117 243 152 393z" />
    <glyph glyph-name="s_t" horiz-adv-x="847" 
d="M679 434l-44 -315c-7 -49 11 -69 60 -69h80l3 -48c-31 -7 -81 -10 -101 -10c-81 0 -116 45 -105 122l45 320h-351c-95 1 -131 -2 -140 -54c-7 -48 15 -62 61 -81l145 -60c71 -30 105 -57 95 -133c-15 -108 -92 -118 -221 -118c-77 0 -109 5 -181 14l8 47
c53 -6 108 -7 161 -7c123 2 162 12 170 70c8 49 -19 60 -65 79l-144 60c-64 28 -101 57 -91 134c14 84 79 101 200 99h360l21 147h62l-20 -147h163l-8 -50h-163z" />
    <glyph glyph-name="t_t" horiz-adv-x="704" 
d="M537 434l-44 -315c-7 -49 11 -69 59 -69h81l2 -48c-30 -7 -81 -10 -100 -10c-82 0 -117 45 -106 122l45 320h-277l-44 -315c-7 -49 11 -69 60 -69h80l3 -48c-31 -7 -81 -10 -101 -10c-81 0 -116 45 -105 122l45 320h-89l6 45l90 5l21 147h62l-20 -147h276l21 147h63
l-21 -147h163l-7 -50h-163z" />
    <glyph glyph-name="t_y" horiz-adv-x="885" 
d="M800 484h66c-34 -139 -83 -276 -162 -411c-102 -180 -185 -257 -300 -280l-12 44c75 21 137 67 202 163h-42c-27 0 -47 17 -53 42l-73 337c-8 36 -30 55 -68 55h-161l-44 -315c-7 -49 11 -69 60 -69h80l3 -48c-31 -7 -81 -10 -101 -10c-81 0 -116 45 -105 122l45 320h-89
l6 45l90 5l21 147h62l-20 -147h165c67 0 107 -33 120 -98l63 -314c3 -13 13 -21 26 -21h46l23 40c73 130 117 243 152 393z" />
    <glyph glyph-name="ordfeminine" unicode="&#xaa;" horiz-adv-x="445" 
d="M361 270h-39l4 66c-37 -41 -90 -73 -145 -73c-77 0 -116 34 -96 174c20 147 79 168 172 168c45 0 104 -6 149 -14zM328 380l26 181c-35 1 -64 2 -82 2c-91 0 -122 -14 -138 -130c-15 -107 1 -125 55 -125c39 0 89 25 139 72z" />
    <glyph glyph-name="ordmasculine" unicode="&#xba;" horiz-adv-x="443" 
d="M260 605c118 0 156 -47 138 -174c-17 -124 -66 -168 -178 -168c-115 0 -155 47 -137 174c17 124 64 168 177 168zM261 564c-84 0 -113 -32 -128 -133c-13 -98 8 -126 87 -126c81 0 113 31 127 132c13 98 -7 127 -86 127z" />
    <glyph glyph-name="uni0410" unicode="&#x410;" horiz-adv-x="612" 
d="M451 228h-301l-107 -228h-70l325 673c5 12 15 17 27 17h75c12 0 23 -9 24 -20l137 -670h-66zM440 286l-57 295c-3 20 -6 38 -9 58h-30c-9 -19 -18 -40 -27 -58l-139 -295h262z" />
    <glyph glyph-name="uni0411" unicode="&#x411;" horiz-adv-x="594" 
d="M206 636l-35 -251h161c166 0 215 -53 194 -199c-22 -155 -85 -194 -236 -194c-113 0 -164 1 -239 8l97 690c69 4 138 5 206 5c75 0 138 -2 207 -5l-13 -54h-342zM163 332l-39 -282c39 -1 94 -2 159 -2c119 0 161 28 177 145c15 106 -8 139 -131 139h-166z" />
    <glyph glyph-name="uni0412" unicode="&#x412;" horiz-adv-x="615" 
d="M51 0l97 690c67 7 116 8 212 8c164 0 224 -40 204 -183c-14 -98 -54 -147 -138 -155l-1 -5c101 -8 127 -77 111 -186c-21 -142 -81 -177 -238 -177c-115 0 -171 1 -247 8zM170 383h161c110 1 154 27 169 131c15 106 -22 128 -143 128c-63 0 -114 0 -151 -1zM162 332
l-39 -282c41 -1 99 -2 167 -2c122 0 167 27 182 136c16 117 -20 146 -144 148h-166z" />
    <glyph glyph-name="uni0413" unicode="&#x413;" horiz-adv-x="515" 
d="M49 0l80 572c11 81 64 119 130 119c98 0 196 0 288 -6l-9 -50h-261c-50 0 -77 -20 -85 -77l-78 -558h-65z" />
    <glyph glyph-name="uni0403" unicode="&#x403;" horiz-adv-x="515" 
d="M516 859l-194 -128l-22 30l184 147zM49 0l80 572c11 81 64 119 130 119c98 0 196 0 288 -6l-9 -50h-261c-50 0 -77 -20 -85 -77l-78 -558h-65z" />
    <glyph glyph-name="uni0490" unicode="&#x490;" horiz-adv-x="518" 
d="M549 680l-8 -45h-263c-48 0 -77 -18 -85 -77l-78 -558h-66l80 572c12 80 62 119 131 119c81 0 162 0 239 -6l31 156h45z" />
    <glyph glyph-name="uni0414" unicode="&#x414;" horiz-adv-x="675" 
d="M610 54l-6 -47l-22 -158h-50l14 151h-507l-29 -151h-50l21 151l7 54h61c101 155 150 338 182 519c14 80 61 117 138 117h247l-89 -636h83zM461 54l82 582h-162c-50 0 -77 -20 -87 -77c-33 -175 -78 -355 -173 -505h340z" />
    <glyph glyph-name="uni0415" unicode="&#x415;" horiz-adv-x="555" 
d="M547 635h-278c-49 0 -74 -25 -80 -74l-24 -170h309l-7 -51h-309l-29 -214c-7 -47 14 -71 60 -71h276v-50c-92 -6 -192 -6 -285 -6c-86 0 -128 50 -118 126l64 454c9 68 56 112 134 112c100 0 203 0 296 -6z" />
    <glyph glyph-name="uni0401" unicode="&#x401;" horiz-adv-x="555" 
d="M300 793h-21c-13 0 -19 5 -17 19l8 55c2 14 8 20 22 20h20c16 0 20 -6 18 -20l-9 -54c-1 -14 -8 -20 -21 -20zM472 793h-21c-13 0 -19 5 -18 19l9 55c2 14 8 20 22 20h20c16 0 19 -6 17 -20l-8 -54c-1 -14 -8 -20 -21 -20zM547 635h-278c-49 0 -74 -25 -80 -74l-24 -170
h309l-7 -51h-309l-29 -214c-7 -47 14 -71 60 -71h276v-50c-92 -6 -192 -6 -285 -6c-86 0 -128 50 -118 126l64 454c9 68 56 112 134 112c100 0 203 0 296 -6z" />
    <glyph glyph-name="uni0416" unicode="&#x416;" horiz-adv-x="898" 
d="M648 361v-3c108 -14 130 -152 174 -358h-65c-45 205 -61 332 -177 333h-95c-1 -27 -2 -53 -6 -79l-35 -254h-63l36 256c4 25 9 50 16 77h-91c-121 0 -174 -122 -276 -333h-70c99 214 160 349 282 360l1 3c-102 14 -132 160 -167 327h64c36 -162 59 -303 169 -303h96
c0 26 2 52 6 82l31 221h63l-32 -224c-4 -29 -8 -53 -15 -79h89c109 0 173 141 252 303h67c-79 -169 -140 -318 -254 -329z" />
    <glyph glyph-name="uni0417" unicode="&#x417;" horiz-adv-x="545" 
d="M109 634l-3 49c62 11 117 15 183 15c157 0 224 -41 204 -183c-14 -98 -53 -147 -138 -155l-2 -5c99 -9 127 -75 111 -186c-19 -139 -77 -177 -236 -177c-91 0 -163 6 -228 20l9 47c43 -4 119 -12 209 -12c118 0 165 26 181 137c16 116 -21 147 -143 147h-112l7 53h109
c109 0 153 27 167 130c15 107 -20 129 -141 129c-81 0 -141 -7 -177 -9z" />
    <glyph glyph-name="uni0418" unicode="&#x418;" horiz-adv-x="686" 
d="M552 0h-63l71 505c5 33 11 67 17 100l-3 -1c-15 -23 -30 -49 -45 -69l-407 -535h-71l97 690h64l-71 -503c-5 -34 -9 -64 -18 -102l3 1c16 25 35 52 50 73l403 531h70z" />
    <glyph glyph-name="uni0419" unicode="&#x419;" horiz-adv-x="686" 
d="M518 879h50c-7 -77 -68 -130 -158 -130c-93 0 -145 53 -131 130h50c-10 -63 22 -93 84 -93c58 0 98 30 105 93zM552 0h-63l71 505c5 33 11 67 17 100l-3 -1c-15 -23 -30 -49 -45 -69l-407 -535h-71l97 690h64l-71 -503c-5 -34 -9 -64 -18 -102l3 1c16 25 35 52 50 73
l403 531h70z" />
    <glyph glyph-name="uni040D" unicode="&#x40d;" horiz-adv-x="686" 
d="M453 760l-25 -29l-167 130l37 46zM552 0h-63l71 505c5 33 11 67 17 100l-3 -1c-15 -23 -30 -49 -45 -69l-407 -535h-71l97 690h64l-71 -503c-5 -34 -9 -64 -18 -102l3 1c16 25 35 52 50 73l403 531h70z" />
    <glyph glyph-name="uni041A" unicode="&#x41a;" horiz-adv-x="587" 
d="M318 361l-2 -3c126 -14 149 -157 197 -359l-67 2c-47 199 -65 331 -201 332h-87c0 -25 -2 -50 -6 -79l-36 -254h-65l97 690h65l-31 -224c-5 -30 -9 -54 -16 -79h83c125 0 192 143 276 304l68 -2c-85 -167 -156 -317 -275 -328z" />
    <glyph glyph-name="uni040C" unicode="&#x40c;" horiz-adv-x="587" 
d="M330 731l-22 30l184 147l32 -49zM318 361l-2 -3c126 -14 149 -157 197 -359l-67 2c-47 199 -65 331 -201 332h-87c0 -25 -2 -50 -6 -79l-36 -254h-65l97 690h65l-31 -224c-5 -30 -9 -54 -16 -79h83c125 0 192 143 276 304l68 -2c-85 -167 -156 -317 -275 -328z" />
    <glyph glyph-name="uni041B" unicode="&#x41b;" horiz-adv-x="644" 
d="M607 690l-97 -690h-65l89 636h-155c-54 0 -79 -19 -91 -78c-57 -257 -75 -340 -137 -437c-44 -71 -104 -115 -172 -122l-4 55c38 14 75 31 116 92c58 86 74 149 135 429c17 81 62 115 140 115h241z" />
    <glyph glyph-name="uni041C" unicode="&#x41c;" horiz-adv-x="869" 
d="M708 690h78c18 0 29 -12 27 -31l-64 -659h-65l63 635h-21l-256 -542c-6 -15 -15 -21 -30 -21h-66c-16 0 -26 9 -28 24l-107 539h-22l-114 -635h-66l121 662c4 19 13 28 31 28h77c15 0 24 -9 26 -24l91 -451c6 -31 10 -62 16 -94h22c14 33 28 65 42 95l214 452
c6 15 15 22 31 22z" />
    <glyph glyph-name="uni041D" unicode="&#x41d;" horiz-adv-x="663" 
d="M627 690l-97 -690h-66l48 340h-347l-48 -340h-66l97 690h66l-41 -293h347l41 293h66z" />
    <glyph glyph-name="uni041E" unicode="&#x41e;" horiz-adv-x="664" 
d="M386 702c191 0 257 -94 219 -360c-36 -265 -117 -354 -310 -354c-190 0 -258 92 -221 360c36 261 115 354 312 354zM384 644c-153 0 -210 -74 -243 -302c-30 -222 7 -296 155 -296c150 0 209 75 241 302c33 226 -4 296 -153 296z" />
    <glyph glyph-name="uni041F" unicode="&#x41f;" horiz-adv-x="666" 
d="M630 690l-97 -690h-66l89 636h-349l-90 -636h-66l97 690h482z" />
    <glyph glyph-name="uni0420" unicode="&#x420;" horiz-adv-x="585" 
d="M51 0l97 690c74 7 123 8 229 8c156 0 210 -53 187 -213c-24 -170 -85 -209 -238 -209c-65 0 -127 4 -169 8l-40 -284h-66zM163 333h162c115 1 156 33 174 157c17 122 -17 152 -123 152c-70 0 -129 -1 -169 -2z" />
    <glyph glyph-name="uni0421" unicode="&#x421;" 
d="M485 58l5 -49c-58 -15 -112 -21 -198 -21c-195 0 -255 103 -218 360c36 261 116 354 310 354c86 0 129 -6 183 -19l-12 -49c-57 7 -95 9 -171 9c-151 0 -210 -67 -243 -301c-31 -222 6 -295 151 -295c86 -1 137 3 193 11z" />
    <glyph glyph-name="uni0422" unicode="&#x422;" horiz-adv-x="568" 
d="M594 632h-230l-89 -632h-66l89 632h-229l9 58h524z" />
    <glyph glyph-name="uni0423" unicode="&#x423;" horiz-adv-x="552" 
d="M590 690l-263 -525c-44 -87 -89 -166 -167 -171c-34 -3 -85 4 -114 13l10 47c128 -15 138 -3 203 115l18 33h-38c-32 0 -51 16 -57 45l-102 443h66l91 -416c3 -11 10 -16 22 -16h46l215 432h70z" />
    <glyph glyph-name="uni040E" unicode="&#x40e;" horiz-adv-x="552" 
d="M466 882l34 -9c-7 -76 -68 -124 -158 -124c-94 0 -145 51 -131 127l34 3c-7 -52 31 -81 97 -81c70 0 118 32 124 84zM590 690l-263 -525c-44 -87 -89 -166 -167 -171c-34 -3 -85 4 -114 13l10 47c128 -15 138 -3 203 115l18 33h-38c-32 0 -51 16 -57 45l-102 443h66
l91 -416c3 -11 10 -16 22 -16h46l215 432h70z" />
    <glyph glyph-name="uni0424" unicode="&#x424;" horiz-adv-x="819" 
d="M508 747l-14 -102c228 -7 305 -85 276 -295c-29 -209 -124 -284 -359 -290l-14 -101h-65l13 101c-230 7 -306 86 -276 296c29 209 125 284 359 290l14 101h66zM484 590l-67 -474c189 6 262 65 287 240c24 174 -31 230 -220 234zM355 116l67 474
c-189 -6 -262 -64 -287 -240c-24 -176 31 -230 220 -234z" />
    <glyph glyph-name="uni0425" unicode="&#x425;" horiz-adv-x="602" 
d="M381 358l153 -358h-68l-139 334h-31l-233 -334h-76l255 359l-144 331h68l129 -305h32l218 305h73z" />
    <glyph glyph-name="uni0427" unicode="&#x427;" horiz-adv-x="615" 
d="M579 690l-97 -690h-65l48 344c-88 -59 -179 -87 -254 -87c-102 0 -147 44 -133 154l39 279h66l-37 -270c-11 -76 12 -104 86 -104c88 0 160 36 241 86l41 288h65z" />
    <glyph glyph-name="uni0426" unicode="&#x426;" horiz-adv-x="680" 
d="M616 54l-7 -54l-21 -151h-51l14 151h-499l97 690h66l-90 -636h342l90 636h65l-89 -636h83z" />
    <glyph glyph-name="uni0428" unicode="&#x428;" horiz-adv-x="918" 
d="M882 690l-97 -690h-734l97 690h65l-90 -636h271l89 636h64l-89 -636h270l90 636h64z" />
    <glyph glyph-name="uni0429" unicode="&#x429;" horiz-adv-x="933" 
d="M786 54h83l-8 -54l-21 -151h-50l14 151h-752l97 690h64l-89 -636h266l90 636h64l-89 -636h266l90 636h64z" />
    <glyph glyph-name="uni040F" unicode="&#x40f;" horiz-adv-x="671" 
d="M635 690l-97 -690h-209l-24 -151h-46l17 151h-224l97 690h66l-90 -636h355l89 636h66z" />
    <glyph glyph-name="uni042F" unicode="&#x42f;" horiz-adv-x="607" 
d="M474 0h-66l41 289c-42 -1 -90 -1 -168 -2c-54 0 -86 -25 -112 -81l-92 -206h-72l96 213c31 63 64 91 105 98l1 4c-85 18 -116 99 -101 200c20 135 92 183 230 183c111 0 167 -1 235 -8zM456 344l42 296c-40 1 -96 2 -161 2c-98 0 -148 -33 -164 -134
c-17 -101 16 -164 116 -164h167z" />
    <glyph glyph-name="uni042C" unicode="&#x42c;" horiz-adv-x="588" 
d="M174 402h160c164 0 214 -56 193 -209c-22 -158 -85 -201 -236 -201c-114 0 -165 1 -240 8l97 690h66zM166 347l-42 -296c39 -1 94 -1 159 -1c120 0 161 30 178 149c16 109 -7 148 -130 148h-165z" />
    <glyph glyph-name="uni042A" unicode="&#x42a;" horiz-adv-x="738" 
d="M325 402h160c163 0 213 -56 192 -209c-22 -158 -85 -201 -236 -201c-113 0 -164 1 -238 8l88 632h-224l9 58h289zM317 347l-42 -296c39 -1 94 -1 158 -1c120 0 161 30 178 149c16 109 -7 148 -130 148h-164z" />
    <glyph glyph-name="uni042B" unicode="&#x42b;" horiz-adv-x="833" 
d="M174 402h160c164 0 214 -56 193 -209c-22 -158 -85 -201 -236 -201c-114 0 -165 1 -240 8l97 690h66zM796 690l-97 -690h-66l97 690h66zM166 347l-42 -296c39 -1 94 -1 159 -1c120 0 161 30 178 149c16 109 -7 148 -130 148h-165z" />
    <glyph glyph-name="uni0409" unicode="&#x409;" horiz-adv-x="969" 
d="M560 402h155c163 0 214 -56 192 -209c-21 -158 -85 -201 -235 -201c-111 0 -161 1 -234 8l90 636h-134c-53 0 -78 -18 -91 -78c-54 -247 -70 -338 -139 -437c-43 -65 -97 -111 -171 -122l-3 58c45 12 81 40 116 88c62 89 75 158 134 428c19 83 62 117 138 117h222z
M552 347l-42 -296c39 -1 91 -1 134 -1c136 0 179 22 198 149c15 109 -8 148 -131 148h-159z" />
    <glyph glyph-name="uni040A" unicode="&#x40a;" horiz-adv-x="978" 
d="M568 401h156c163 0 214 -56 192 -208c-21 -158 -85 -201 -235 -201c-111 0 -161 1 -234 8l48 345h-329l-48 -345h-66l97 690h66l-41 -290h329l41 290h65zM560 346l-41 -295c38 -1 91 -1 153 -1c120 0 161 30 179 149c15 108 -8 147 -131 147h-160z" />
    <glyph glyph-name="uni0405" unicode="&#x405;" horiz-adv-x="558" 
d="M344 293l-142 55c-97 38 -124 92 -112 187c21 153 108 168 240 166c67 0 134 -5 198 -17l-8 -47c-74 4 -126 6 -198 6c-91 0 -150 -1 -166 -115c-8 -70 7 -96 76 -124l140 -54c104 -41 128 -89 115 -190c-22 -150 -99 -171 -254 -171c-40 0 -114 1 -203 15l9 49
c101 -5 147 -6 199 -6c118 1 167 15 183 120c10 76 -8 98 -77 126z" />
    <glyph glyph-name="uni0404" unicode="&#x404;" horiz-adv-x="570" 
d="M577 683l-12 -50c-57 7 -103 10 -161 10c-156 0 -222 -53 -257 -252h302l-7 -51h-303c-30 -223 9 -289 160 -293c78 -2 142 5 188 12l5 -50c-51 -13 -105 -23 -193 -21c-205 5 -261 101 -226 360c37 269 125 354 326 354c80 0 132 -8 178 -19z" />
    <glyph glyph-name="uni042D" unicode="&#x42d;" horiz-adv-x="571" 
d="M105 633l-4 50c49 12 103 19 177 19c207 0 272 -91 235 -360c-35 -263 -120 -350 -319 -354c-89 -2 -143 8 -191 22l11 49c44 -8 105 -14 181 -12c155 4 217 76 250 294h-306l7 51h306c23 205 -33 251 -178 251c-62 0 -109 -3 -169 -10z" />
    <glyph glyph-name="uni0406" unicode="&#x406;" horiz-adv-x="249" 
d="M117 0h-66l97 690h66z" />
    <glyph glyph-name="uni0407" unicode="&#x407;" horiz-adv-x="250" 
d="M109 865h20c16 0 20 -6 18 -20l-9 -54c-1 -14 -7 -20 -21 -20h-21c-12 0 -19 5 -17 19l8 55c2 14 8 20 22 20zM281 865h20c16 0 20 -6 18 -20l-9 -54c-1 -14 -8 -20 -21 -20h-21c-13 0 -19 5 -18 19l9 55c2 14 8 20 22 20zM117 0h-66l97 690h66z" />
    <glyph glyph-name="uni0408" unicode="&#x408;" horiz-adv-x="333" 
d="M300 690l-78 -557c-13 -93 -63 -141 -146 -141c-25 0 -62 5 -83 11l13 45h51c58 0 91 30 100 86l77 556h66z" />
    <glyph glyph-name="uni040B" unicode="&#x40b;" horiz-adv-x="775" 
d="M364 632l-39 -278c94 63 181 85 255 85c106 0 150 -51 136 -154l-40 -285h-66l39 276c10 75 -14 104 -90 104c-84 0 -145 -22 -243 -85l-41 -295h-66l89 632h-229l9 58h524l-8 -58h-230z" />
    <glyph glyph-name="uni042E" unicode="&#x42e;" horiz-adv-x="912" 
d="M172 386h168c40 237 120 316 294 316c188 0 258 -91 220 -360c-38 -266 -117 -354 -312 -354c-185 0 -243 90 -210 344h-168l-46 -332h-66l97 690h66zM786 348c31 222 -6 296 -152 296c-144 0 -204 -76 -236 -302c-31 -222 4 -296 144 -296c150 0 212 76 244 302z" />
    <glyph glyph-name="uni0402" unicode="&#x402;" horiz-adv-x="746" 
d="M364 632l-37 -267c83 56 151 74 221 74c102 0 165 -49 142 -212c-26 -178 -131 -234 -286 -229l-2 47c130 9 201 44 222 182c20 129 -22 154 -93 154c-80 0 -131 -22 -212 -74l-44 -307h-65l89 632h-229l8 58h524l-7 -58h-231z" />
    <glyph glyph-name="uni04B0" unicode="&#x4b0;" horiz-adv-x="569" 
d="M328 271h141l-7 -42h-153l-32 -229h-66l32 229h-155l6 42h144l-161 419h68l115 -308c8 -23 16 -50 22 -74l8 2c13 23 29 52 43 75l201 305h71z" />
    <glyph glyph-name="uni04B6" unicode="&#x4b6;" horiz-adv-x="643" 
d="M579 47l-6 -47l-22 -151h-50l14 151h-93l48 342c-94 -60 -183 -85 -258 -85c-101 0 -148 51 -134 154l40 279h65l-37 -270c-11 -74 13 -105 92 -105c81 0 149 30 241 86l40 289h66l-91 -643h85z" />
    <glyph glyph-name="uni04BA" unicode="&#x4ba;" horiz-adv-x="621" 
d="M214 690l-48 -342c94 58 183 85 258 85c102 0 149 -51 133 -154l-39 -279h-66l39 270c11 76 -14 105 -92 105c-79 0 -145 -27 -241 -86l-41 -289h-66l97 690h66z" />
    <glyph glyph-name="uni04C0" unicode="&#x4c0;" horiz-adv-x="251" 
d="M118 0h-66l97 690h66z" />
    <glyph glyph-name="uni0430" unicode="&#x430;" horiz-adv-x="572" 
d="M447 0h-49l9 109c-62 -72 -146 -121 -226 -121c-119 0 -150 71 -122 258c31 212 94 251 245 251c65 0 145 -9 211 -20zM407 164l39 275c-53 2 -94 4 -124 4c-145 0 -174 -30 -200 -202c-22 -152 -10 -197 69 -197c65 0 139 42 216 120z" />
    <glyph glyph-name="uni0431" unicode="&#x431;" horiz-adv-x="567" 
d="M528 729l8 -54c-89 -45 -139 -40 -210 -58c-121 -32 -150 -94 -175 -190c-6 -21 -13 -47 -18 -69h2c23 48 69 112 197 112c153 0 186 -82 166 -237c-21 -160 -80 -245 -243 -245c-211 0 -205 132 -179 314c32 222 66 318 230 366c76 22 129 18 222 61zM318 415
c-136 0 -170 -70 -185 -183c-20 -142 11 -189 124 -189c105 0 154 46 175 197c20 136 -8 175 -114 175z" />
    <glyph glyph-name="uni0432" unicode="&#x432;" horiz-adv-x="549" 
d="M356 265v-2c94 -6 125 -56 113 -146c-15 -99 -74 -129 -220 -129c-172 0 -226 42 -193 261c33 217 100 248 250 248c108 0 202 -15 179 -126c-10 -51 -44 -95 -129 -106zM120 261l151 20c114 14 143 42 153 90c12 61 -21 74 -125 74c-110 0 -152 -16 -179 -184zM269 235
l-155 -21c-19 -154 16 -174 127 -174c110 0 154 18 165 94c10 77 -19 117 -137 101z" />
    <glyph glyph-name="uni0433" unicode="&#x433;" horiz-adv-x="514" 
d="M80 415l-2 50c65 19 136 29 202 32c89 4 192 -1 178 -113c-12 -95 -92 -123 -135 -139l-153 -56c-46 -18 -70 -36 -76 -77c-9 -61 37 -69 107 -69c82 1 151 13 231 39l3 -50c-92 -39 -175 -44 -234 -44c-106 0 -183 24 -171 124c8 66 46 102 126 133l147 52
c63 22 88 46 93 86c8 55 -30 64 -123 60c-65 -3 -111 -10 -193 -28z" />
    <glyph glyph-name="uni0453" unicode="&#x453;" horiz-adv-x="514" 
d="M434 678l-195 -128l-22 31l184 146zM80 415l-2 50c65 19 136 29 202 32c89 4 192 -1 178 -113c-12 -95 -92 -123 -135 -139l-153 -56c-46 -18 -70 -36 -76 -77c-9 -61 37 -69 107 -69c82 1 151 13 231 39l3 -50c-92 -39 -175 -44 -234 -44c-106 0 -183 24 -171 124
c8 66 46 102 126 133l147 52c63 22 88 46 93 86c8 55 -30 64 -123 60c-65 -3 -111 -10 -193 -28z" />
    <glyph glyph-name="uni0491" unicode="&#x491;" horiz-adv-x="446" 
d="M440 434h-211c-43 0 -68 -16 -75 -67l-51 -367h-63l54 386c10 70 48 100 113 100c62 0 127 0 190 -3l29 147h44l-23 -150z" />
    <glyph glyph-name="uni0434" unicode="&#x434;" horiz-adv-x="562" 
d="M156 664l10 46c207 -22 374 -95 324 -432c-24 -167 -72 -290 -252 -290c-146 0 -203 73 -180 235c18 138 82 224 225 224c48 0 107 -9 152 -63c6 224 -123 258 -279 280zM240 42c127 0 164 87 186 248c3 18 5 35 7 51c-42 42 -92 52 -140 52c-112 0 -155 -69 -170 -176
c-18 -129 20 -175 117 -175z" />
    <glyph glyph-name="uni0435" unicode="&#x435;" horiz-adv-x="533" 
d="M432 55l5 -43c-46 -16 -139 -24 -195 -24c-165 0 -215 79 -189 263c28 198 98 246 260 246c139 0 195 -45 174 -153c-18 -89 -67 -119 -176 -129l-199 -19c-9 -125 38 -154 142 -154c56 0 129 7 178 13zM118 245l193 19c72 8 100 25 112 85c19 86 -32 94 -115 94
c-119 0 -164 -28 -190 -194v-4z" />
    <glyph glyph-name="uni0451" unicode="&#x451;" horiz-adv-x="533" 
d="M246 590h-21c-12 0 -19 6 -17 19l8 55c2 14 8 20 23 20h19c16 0 20 -6 18 -20l-9 -54c-1 -14 -7 -20 -21 -20zM418 590h-21c-13 0 -19 6 -17 19l8 55c2 14 8 20 22 20h20c16 0 20 -6 18 -20l-9 -54c-1 -14 -8 -20 -21 -20zM432 55l5 -43c-46 -16 -139 -24 -195 -24
c-165 0 -215 79 -189 263c28 198 98 246 260 246c139 0 195 -45 174 -153c-18 -89 -67 -119 -176 -129l-199 -19c-9 -125 38 -154 142 -154c56 0 129 7 178 13zM118 245l193 19c72 8 100 25 112 85c19 86 -32 94 -115 94c-119 0 -164 -28 -190 -194v-4z" />
    <glyph glyph-name="uni0436" unicode="&#x436;" horiz-adv-x="759" 
d="M524 253v-2c97 -11 114 -98 157 -251h-61c-40 146 -55 227 -152 228h-71c1 -18 0 -36 -2 -54l-25 -174h-58l26 178c2 16 6 32 11 50h-71c-94 -1 -135 -82 -216 -228h-66c85 155 127 244 230 253v2c-92 12 -115 101 -147 229h61c31 -119 54 -207 144 -207h72
c-1 18 1 37 4 58l21 149h58l-22 -152c-3 -20 -6 -37 -12 -55h62c89 0 139 88 206 207h64c-70 -130 -118 -221 -213 -231z" />
    <glyph glyph-name="uni0437" unicode="&#x437;" horiz-adv-x="492" 
d="M80 431l-3 47c55 13 112 14 151 14c153 0 213 -26 199 -132c-10 -67 -38 -103 -118 -110l-2 -3c85 -7 115 -48 103 -131c-14 -103 -71 -124 -220 -124c-60 0 -133 4 -190 13l9 49c37 -3 112 -8 178 -8c117 0 150 15 160 89c10 70 -22 88 -128 89l-110 1l5 47h108
c99 0 133 19 143 86c9 68 -19 80 -140 80c-52 0 -112 -3 -145 -7z" />
    <glyph glyph-name="uni0438" unicode="&#x438;" horiz-adv-x="565" 
d="M509 484l-68 -484h-49l10 113c-85 -83 -158 -125 -231 -125c-88 0 -127 49 -115 134l51 362h64l-50 -348c-10 -66 12 -93 70 -93c65 0 122 42 211 123l44 318h63z" />
    <glyph glyph-name="uni0439" unicode="&#x439;" horiz-adv-x="565" 
d="M432 698h50c-8 -77 -68 -130 -158 -130c-93 0 -146 53 -132 130h51c-10 -63 22 -93 84 -93c58 0 97 30 105 93zM509 484l-68 -484h-49l10 113c-85 -83 -158 -125 -231 -125c-88 0 -127 49 -115 134l51 362h64l-50 -348c-10 -66 12 -93 70 -93c65 0 122 42 211 123l44 318
h63z" />
    <glyph glyph-name="uni045D" unicode="&#x45d;" horiz-adv-x="565" 
d="M342 550l-167 131l37 45l155 -147zM509 484l-68 -484h-49l10 113c-85 -83 -158 -125 -231 -125c-88 0 -127 49 -115 134l51 362h64l-50 -348c-10 -66 12 -93 70 -93c65 0 122 42 211 123l44 318h63z" />
    <glyph glyph-name="uni043A" unicode="&#x43a;" horiz-adv-x="525" 
d="M281 253l-2 -2c107 -9 126 -98 169 -252l-64 2c-43 146 -58 225 -165 226h-86c0 -16 0 -33 -3 -53l-25 -174h-63l69 484h63l-21 -151c-4 -21 -8 -38 -13 -56h78c102 0 151 88 217 208l68 -1c-71 -132 -121 -221 -222 -231z" />
    <glyph glyph-name="uni045C" unicode="&#x45c;" horiz-adv-x="525" 
d="M275 550l-22 31l183 146l33 -49zM281 253l-2 -2c107 -9 126 -98 169 -252l-64 2c-43 146 -58 225 -165 226h-86c0 -16 0 -33 -3 -53l-25 -174h-63l69 484h63l-21 -151c-4 -21 -8 -38 -13 -56h78c102 0 151 88 217 208l68 -1c-71 -132 -121 -221 -222 -231z" />
    <glyph glyph-name="uni043B" unicode="&#x43b;" horiz-adv-x="553" 
d="M497 484l-69 -484h-63l62 434h-120c-44 0 -66 -18 -78 -67c-21 -91 -50 -197 -90 -272c-30 -63 -80 -94 -148 -100l-6 53c46 13 76 30 99 73c40 72 69 194 86 261c18 71 52 102 124 102h203z" />
    <glyph glyph-name="uni043C" unicode="&#x43c;" horiz-adv-x="734" 
d="M569 484h70c16 0 26 -10 24 -26l-42 -458h-59l40 435h-18l-193 -366c-7 -13 -13 -19 -27 -19h-58c-14 0 -21 9 -24 22l-92 363h-19l-81 -435h-59l86 460c3 17 11 24 28 24h69c14 0 21 -8 24 -22l75 -297c6 -25 12 -48 16 -72l18 1c11 24 21 46 34 70l161 301
c6 13 13 19 27 19z" />
    <glyph glyph-name="uni043D" unicode="&#x43d;" horiz-adv-x="574" 
d="M518 484l-69 -484h-62l33 233h-282l-33 -233h-63l69 484h62l-28 -201h282l28 201h63z" />
    <glyph glyph-name="uni043E" unicode="&#x43e;" horiz-adv-x="564" 
d="M307 497c161 0 216 -71 190 -258c-26 -185 -94 -251 -253 -251c-161 0 -217 69 -191 257c25 184 92 252 254 252zM307 442c-117 0 -166 -46 -189 -203c-21 -151 10 -197 126 -197c118 0 166 49 188 203c21 152 -10 197 -125 197z" />
    <glyph glyph-name="uni043F" unicode="&#x43f;" horiz-adv-x="576" 
d="M161 484l-10 -110c90 79 167 123 240 123c84 0 127 -47 115 -135l-52 -362h-63l49 349c10 69 -11 93 -67 93c-65 0 -129 -42 -222 -116l-45 -326h-64l69 484h50z" />
    <glyph glyph-name="uni0440" unicode="&#x440;" horiz-adv-x="572" 
d="M161 484l-10 -113c65 69 160 125 228 125c117 0 148 -67 121 -258c-31 -212 -95 -250 -242 -250c-47 0 -104 4 -156 11c-1 -32 -3 -58 -8 -93l-18 -115h-63l98 693h50zM151 320l-38 -276c53 -2 93 -3 124 -3c144 0 174 29 199 202c21 152 9 197 -69 197
c-52 0 -137 -42 -216 -120z" />
    <glyph glyph-name="uni0441" unicode="&#x441;" horiz-adv-x="483" 
d="M402 54l5 -44c-49 -15 -108 -22 -159 -22c-168 0 -222 71 -195 257c26 186 94 252 258 252c42 0 105 -6 148 -22l-11 -41c-40 6 -95 8 -127 8c-128 0 -181 -41 -203 -202c-21 -160 16 -197 140 -197c31 0 95 2 144 11z" />
    <glyph glyph-name="uni0442" unicode="&#x442;" horiz-adv-x="876" 
d="M159 484l-9 -109c82 79 149 122 217 122c79 0 119 -43 115 -116c79 76 144 116 210 116c86 0 125 -50 113 -135l-51 -362h-63l49 349c10 69 -15 93 -70 93s-104 -34 -195 -117l-46 -325h-61l49 349c9 65 -11 93 -71 93c-56 0 -105 -35 -195 -116l-46 -326h-63l69 484h48z
" />
    <glyph glyph-name="uni0443" unicode="&#x443;" horiz-adv-x="530" 
d="M446 484h65c-23 -104 -85 -274 -157 -413c-140 -273 -251 -295 -359 -278l7 52c71 -11 148 4 244 155h-48c-27 0 -48 17 -53 42l-96 442h67l83 -412c3 -13 12 -21 25 -21h52l20 37c69 129 130 295 150 396z" />
    <glyph glyph-name="uni045E" unicode="&#x45e;" horiz-adv-x="530" 
d="M400 698h50c-7 -77 -68 -130 -158 -130c-93 0 -145 53 -132 130h51c-10 -63 22 -93 84 -93c58 0 97 30 105 93zM446 484h65c-23 -104 -85 -274 -157 -413c-140 -273 -251 -295 -359 -278l7 52c71 -11 148 4 244 155h-48c-27 0 -48 17 -53 42l-96 442h67l83 -412
c3 -13 12 -21 25 -21h52l20 37c69 129 130 295 150 396z" />
    <glyph glyph-name="uni0444" unicode="&#x444;" horiz-adv-x="708" 
d="M441 700l-28 -204c190 -8 254 -82 229 -257c-24 -174 -106 -245 -301 -251l-27 -192h-59l26 193c-191 7 -254 81 -230 256c25 175 107 246 302 251l29 204h59zM403 442l-56 -399c151 6 214 58 233 202c20 144 -26 192 -177 197zM291 43l56 399
c-151 -6 -214 -58 -234 -203c-20 -144 27 -192 178 -196z" />
    <glyph glyph-name="uni0445" unicode="&#x445;" horiz-adv-x="517" 
d="M316 251l134 -251h-65l-119 227h-26l-182 -227h-73l206 252l-124 232h65l107 -206h29l168 206h70z" />
    <glyph glyph-name="uni0447" unicode="&#x447;" horiz-adv-x="529" 
d="M473 484l-68 -484h-64l33 233c-74 -39 -150 -59 -205 -59c-86 -1 -124 35 -114 106l29 204h63l-26 -187c-7 -53 10 -70 68 -70c65 0 118 20 193 62l27 195h64z" />
    <glyph glyph-name="uni0446" unicode="&#x446;" horiz-adv-x="587" 
d="M514 0l-22 -149h-55l30 149h-2c-43 0 -74 25 -68 81l2 23c-83 -77 -156 -116 -228 -116c-88 0 -127 49 -115 134l51 362h64l-50 -348c-10 -66 12 -93 70 -93c65 0 122 39 210 116l45 325h63l-56 -403c-3 -25 9 -32 27 -32h40z" />
    <glyph glyph-name="uni0448" unicode="&#x448;" horiz-adv-x="858" 
d="M802 484l-68 -484h-49l9 107c-80 -81 -147 -119 -214 -119c-74 0 -113 41 -109 113c-78 -77 -142 -113 -207 -113c-82 0 -120 49 -108 134l51 362h63l-49 -348c-10 -65 14 -90 67 -90c58 0 102 34 190 113l46 325h61l-49 -348c-9 -62 10 -90 67 -90c60 0 105 35 191 112
l45 326h63z" />
    <glyph glyph-name="uni0449" unicode="&#x449;" horiz-adv-x="880" 
d="M813 49l-7 -49l-22 -149h-55l32 149h-3c-43 0 -74 25 -69 81l3 24c-80 -80 -146 -117 -212 -117c-74 0 -113 41 -109 113c-78 -77 -142 -113 -207 -113c-82 0 -120 49 -108 134l51 362h63l-49 -348c-10 -65 14 -90 67 -90c58 0 102 34 190 113l46 325h61l-49 -348
c-9 -62 10 -90 67 -90c60 0 105 35 191 112l45 326h63l-56 -403c-4 -25 9 -32 26 -32h41z" />
    <glyph glyph-name="uni045F" unicode="&#x45f;" horiz-adv-x="565" 
d="M509 484l-68 -484h-49l10 113c-85 -83 -158 -125 -231 -125c-88 0 -127 49 -115 134l51 362h64l-50 -348c-10 -66 12 -93 70 -93c65 0 122 42 211 123l44 318h63zM239 -40h42l-18 -178h-55z" />
    <glyph glyph-name="uni044C" unicode="&#x44c;" horiz-adv-x="506" 
d="M170 484l-33 -222c45 20 89 28 130 28c147 0 187 -39 172 -153c-17 -115 -69 -146 -195 -146c-83 0 -204 6 -189 131l53 362h62zM131 216l-14 -95c-11 -71 54 -79 116 -79c95 0 130 21 142 104c10 73 -11 96 -111 96c-42 0 -88 -7 -133 -26z" />
    <glyph glyph-name="uni044A" unicode="&#x44a;" horiz-adv-x="625" 
d="M334 484l-59 -215c38 15 76 21 111 21c148 0 187 -40 171 -153c-17 -117 -74 -146 -195 -146c-90 0 -218 14 -181 160l79 282h-217l7 51h284zM262 220l-22 -79c-21 -86 52 -99 111 -99c96 0 129 21 142 104c11 73 -10 96 -109 96c-39 0 -81 -6 -122 -22z" />
    <glyph glyph-name="uni044B" unicode="&#x44b;" horiz-adv-x="697" 
d="M170 484l-33 -222c45 20 89 28 130 28c147 0 187 -39 172 -153c-17 -115 -69 -146 -195 -146c-83 0 -204 6 -189 131l53 362h62zM641 484l-69 -484h-64l69 484h64zM131 216l-14 -95c-11 -71 54 -79 116 -79c95 0 130 21 142 104c10 73 -11 96 -111 96
c-42 0 -88 -7 -133 -26z" />
    <glyph glyph-name="uni0459" unicode="&#x459;" horiz-adv-x="788" 
d="M464 484l-33 -224c47 24 86 30 134 30c136 0 169 -46 155 -153c-16 -119 -67 -145 -187 -146c-99 -1 -194 16 -180 131l46 314h-100c-38 0 -61 -19 -70 -61c-39 -164 -53 -220 -98 -286c-39 -61 -88 -84 -140 -91l-5 52c38 10 64 29 90 62c44 58 55 105 97 280
c14 61 48 92 108 92h183zM425 215l-14 -94c-10 -70 48 -79 109 -79c94 0 126 21 137 104c9 74 -12 96 -100 96c-44 0 -86 -6 -132 -27z" />
    <glyph glyph-name="uni045A" unicode="&#x45a;" horiz-adv-x="801" 
d="M479 484l-32 -222c42 20 83 28 123 28c140 0 178 -39 163 -153c-15 -115 -65 -146 -186 -146c-79 0 -196 6 -181 131l18 122h-248l-35 -244h-59l69 484h59l-27 -193h248l28 193h60zM440 216l-14 -95c-10 -71 49 -79 110 -79c91 0 123 21 134 104c9 73 -10 96 -103 96
c-41 0 -83 -7 -127 -26z" />
    <glyph glyph-name="uni0454" unicode="&#x454;" horiz-adv-x="494" 
d="M470 474l-10 -45c-47 5 -89 7 -139 7c-125 0 -175 -33 -199 -166h250l-6 -46h-251c-17 -142 19 -176 149 -178c54 -1 100 2 147 7l5 -45c-45 -11 -95 -17 -163 -17c-160 0 -226 63 -200 252s97 247 266 247c61 0 107 -4 151 -16z" />
    <glyph glyph-name="uni044D" unicode="&#x44d;" horiz-adv-x="496" 
d="M76 429l-4 46c43 11 84 15 148 15c173 0 232 -61 207 -253c-24 -189 -94 -248 -266 -246c-71 0 -115 6 -157 17l10 45c45 -5 89 -7 141 -7c133 -2 184 35 206 178h-250l7 47h249c13 136 -28 165 -149 165c-51 0 -91 -2 -142 -7z" />
    <glyph glyph-name="uni044E" unicode="&#x44e;" horiz-adv-x="783" 
d="M145 275h136c29 169 96 222 243 222c161 0 219 -62 192 -257c-27 -189 -94 -248 -256 -248c-154 0 -207 56 -186 233h-137l-31 -225h-63l68 484h63zM650 247c22 152 -14 195 -128 195c-115 0 -163 -45 -185 -201c-21 -149 7 -195 121 -195c124 0 171 52 192 201z" />
    <glyph glyph-name="uni044F" unicode="&#x44f;" horiz-adv-x="532" 
d="M476 482l-68 -482h-62l26 186h-140c-56 0 -96 -15 -111 -56l-47 -130h-65l51 141c19 51 67 67 102 68l1 3c-75 12 -94 78 -86 138c14 119 78 139 224 139c50 0 113 -2 175 -7zM379 234l28 201c-36 1 -84 1 -128 1c-97 0 -131 -13 -141 -95c-8 -58 5 -107 93 -107h148z
" />
    <glyph glyph-name="uni0452" unicode="&#x452;" horiz-adv-x="571" 
d="M195 502l-18 -127c-4 -31 -9 -57 -16 -84c84 69 162 108 232 108c89 0 129 -47 117 -135l-38 -264h-63l36 251c8 65 -14 90 -78 90c-63 0 -121 -34 -210 -102l-33 -239h-64l71 502h-75l6 38h74l23 160h63l-22 -160h201l-6 -38h-200z" />
    <glyph glyph-name="uni0455" unicode="&#x455;" horiz-adv-x="505" 
d="M300 191l-144 60c-64 28 -101 57 -91 134c14 97 79 114 200 112c66 -1 142 -7 198 -15l-8 -45c-60 3 -121 5 -188 6c-95 1 -131 -2 -140 -63c-7 -48 15 -62 61 -81l145 -60c71 -30 105 -57 95 -133c-15 -108 -92 -118 -221 -118c-77 0 -109 5 -181 14l8 47
c53 -6 108 -7 161 -7c123 2 162 12 170 70c8 49 -19 60 -65 79z" />
    <glyph glyph-name="uni0456" unicode="&#x456;" horiz-adv-x="238" 
d="M158 688h30c14 0 21 -9 19 -22l-8 -59c-2 -14 -8 -19 -22 -19h-29c-14 0 -22 8 -20 22l9 59c1 13 7 19 21 19zM110 0h-63l68 484h63z" />
    <glyph glyph-name="uni0457" unicode="&#x457;" horiz-adv-x="236" 
d="M77 684h20c16 0 20 -6 18 -20l-9 -54c-1 -14 -7 -20 -21 -20h-21c-12 0 -19 6 -17 19l8 55c2 14 8 20 22 20zM249 684h20c16 0 20 -6 18 -20l-9 -54c-1 -14 -8 -20 -21 -20h-21c-13 0 -19 6 -18 19l9 55c2 14 8 20 22 20zM109 0h-64l69 484h63z" />
    <glyph glyph-name="uni0458" unicode="&#x458;" horiz-adv-x="238" 
d="M158 688h30c14 0 21 -9 19 -22l-8 -59c-2 -14 -8 -19 -22 -19h-29c-14 0 -22 8 -20 22l9 59c1 13 7 19 21 19zM178 484l-72 -510c-10 -73 -51 -136 -107 -180l-34 29c43 46 69 91 78 155l72 506h63z" />
    <glyph glyph-name="uni045B" unicode="&#x45b;" horiz-adv-x="571" 
d="M194 502l-16 -116c-5 -36 -10 -65 -18 -95c85 69 163 108 233 108c89 0 129 -47 117 -135l-40 -290c-11 -73 -51 -136 -108 -180l-33 29c42 46 69 92 78 155l38 273c9 65 -14 90 -78 90c-63 0 -121 -34 -211 -102l-32 -239h-64l71 502h-75l6 38h74l23 160h63l-22 -160
h201l-6 -38h-201z" />
    <glyph glyph-name="uni04B1" unicode="&#x4b1;" horiz-adv-x="573" 
d="M299 67h142l-6 -42h-155l-33 -231h-66l33 231h-154l6 42h142l-160 417h67l115 -307c8 -24 17 -51 23 -75h7c11 24 29 55 43 77l201 305h72z" />
    <glyph glyph-name="uni04B7" unicode="&#x4b7;" horiz-adv-x="549" 
d="M467 5l-21 -148h-56l25 143h-74l33 233c-74 -39 -150 -59 -205 -59c-86 -1 -124 35 -114 106l29 204h63l-26 -187c-7 -53 10 -70 68 -70c65 0 118 20 193 63l28 194h63l-62 -432h62z" />
    <glyph glyph-name="Delta" unicode="&#x394;" horiz-adv-x="621" 
d="M556 32l-4 -32h-563l4 32l341 658h67zM486 54l-113 499c-5 24 -10 47 -13 72c-11 -26 -22 -50 -34 -75l-253 -496h413z" />
    <glyph glyph-name="Omega" unicode="&#x3a9;" horiz-adv-x="715" 
d="M19 58h114c21 0 42 -1 65 -4c-88 76 -128 168 -106 316c30 220 124 332 321 332c192 0 264 -115 233 -339c-22 -153 -77 -235 -194 -309c22 3 40 4 62 4h117l-8 -58h-242l6 56c120 75 170 160 190 306c28 197 -19 282 -166 282c-154 0 -224 -88 -253 -290
c-22 -156 12 -224 102 -299l-6 -55h-242z" />
    <glyph glyph-name="mu" unicode="&#x3bc;" horiz-adv-x="585" 
d="M520 484l-69 -484h-48l4 78c-67 -50 -139 -90 -214 -90c-39 0 -70 11 -92 31c1 -26 0 -52 -3 -78l-21 -145h-57l47 335l50 353h63l-50 -348c-8 -62 17 -88 78 -88c60 0 115 25 198 76l50 360h64z" />
    <glyph glyph-name="pi" unicode="&#x3c0;" horiz-adv-x="638" 
d="M631 433h-100l-61 -433h-63l61 433h-258l-61 -433h-63l61 433h-100l7 51h584z" />
    <glyph glyph-name="zero" unicode="0" horiz-adv-x="594" 
d="M351 702c173 0 218 -113 183 -360c-35 -248 -108 -354 -275 -354c-171 0 -219 111 -183 360c34 248 107 354 275 354zM350 645c-127 0 -181 -89 -211 -303c-29 -211 -3 -297 119 -297c127 0 182 89 212 303c30 211 3 297 -120 297z" />
    <glyph glyph-name="one" unicode="1" horiz-adv-x="387" 
d="M230 0h-66l80 574c3 18 6 36 12 55l-183 -58l-2 47l190 72h66z" />
    <glyph glyph-name="two" unicode="2" horiz-adv-x="554" 
d="M116 625l-3 51c98 22 149 26 207 26c126 0 207 -24 191 -148c-11 -88 -56 -153 -162 -257l-242 -237c36 2 75 2 111 2h252l-9 -62h-446l5 42c2 11 5 21 13 29l249 244c103 100 156 172 163 245c8 77 -43 84 -127 84c-66 0 -114 -3 -202 -19z" />
    <glyph glyph-name="three" unicode="3" horiz-adv-x="548" 
d="M123 635l-4 50c70 11 132 17 188 17c155 0 204 -48 191 -162c-9 -75 -42 -161 -127 -174l-2 -4c86 -13 114 -82 100 -173c-15 -102 -80 -194 -254 -201c-56 -3 -128 2 -199 17l10 50c63 -7 129 -12 184 -9c117 8 180 62 195 155c11 70 -8 136 -128 137l-130 2l7 49l127 1
c120 2 146 78 153 143c11 88 -16 111 -139 111c-55 0 -124 -4 -172 -9z" />
    <glyph glyph-name="four" unicode="4" horiz-adv-x="603" 
d="M542 186l-87 -7l-25 -179h-63l25 179h-289c-58 0 -85 54 -55 102l261 409h67l-262 -415c-16 -25 -7 -42 17 -42h269l29 211l29 115h50l-46 -326h87z" />
    <glyph glyph-name="five" unicode="5" horiz-adv-x="530" 
d="M497 634h-298l-41 -215l65 -4c168 -7 255 -48 236 -208c-11 -87 -59 -210 -250 -219c-53 -2 -119 4 -189 26l13 52c60 -17 116 -22 162 -20c144 7 190 87 201 167c17 126 -51 144 -225 148l-47 4c-18 0 -30 15 -27 33l56 292h355z" />
    <glyph glyph-name="six" unicode="6" horiz-adv-x="567" 
d="M518 688l-10 -48c-42 5 -67 6 -122 6c-144 0 -201 -43 -242 -292c57 65 123 91 195 93c129 4 185 -56 160 -228c-21 -146 -82 -231 -243 -231c-196 0 -214 109 -179 351c46 316 134 363 305 363c35 0 75 -1 136 -14zM325 393c-62 -2 -115 -22 -190 -100
c-25 -179 -12 -249 124 -249c118 0 161 68 177 182c17 118 -1 171 -111 167z" />
    <glyph glyph-name="seven" unicode="7" horiz-adv-x="506" 
d="M93 690h385c39 0 51 -20 34 -55l-307 -635h-67l285 589c7 16 16 31 26 45h-361z" />
    <glyph glyph-name="eight" unicode="8" horiz-adv-x="608" 
d="M195 357l2 4c-67 8 -89 65 -76 160c18 124 67 179 236 178c173 0 210 -57 193 -184c-13 -92 -48 -147 -120 -155l-2 -4c83 -9 104 -75 88 -187c-18 -126 -68 -177 -251 -178c-174 -1 -226 55 -208 184c16 109 50 173 138 182zM353 645c-129 0 -159 -35 -173 -135
c-15 -106 11 -125 139 -125c127 0 155 24 169 131c15 97 -6 129 -135 129zM310 331c-136 -1 -171 -21 -189 -150c-14 -100 12 -134 149 -134c134 0 172 37 185 140c18 123 -9 144 -145 144z" />
    <glyph glyph-name="nine" unicode="9" horiz-adv-x="567" 
d="M50 2l12 48c44 -5 83 -6 129 -6c160 3 206 54 248 296c-60 -70 -115 -95 -191 -97c-146 -4 -183 82 -163 228c20 159 92 231 246 231c181 0 214 -99 174 -351c-48 -306 -124 -363 -307 -363c-35 0 -89 2 -148 14zM259 296c69 2 118 26 189 102c26 177 9 248 -121 248
c-122 0 -164 -60 -181 -182c-18 -125 15 -170 113 -168z" />
    <glyph glyph-name="fraction" unicode="&#x2044;" horiz-adv-x="160" 
d="M-163 0h-52l552 690h52z" />
    <glyph glyph-name="onehalf" unicode="&#xbd;" horiz-adv-x="872" 
d="M131 0h-49l556 690h49zM207 276h-51l47 333c2 12 4 24 8 37l-120 -34l-2 35l126 43h50zM539 368l-3 38c66 13 104 15 138 15c96 0 147 -15 135 -94c-6 -47 -38 -89 -104 -148l-159 -135c26 1 47 2 73 1h170l-7 -45h-305l4 30c1 9 4 16 10 22l159 137c65 57 99 99 105 141
c6 44 -28 48 -81 48c-44 0 -77 -2 -135 -10z" />
    <glyph glyph-name="onequarter" unicode="&#xbc;" horiz-adv-x="849" 
d="M692 690l-556 -690h-49l556 690h49zM91 612l-1 35l125 43h51l-58 -414h-51l47 333c2 12 3 24 7 37zM781 109l-50 -4l-14 -105h-48l14 104h-205c-31 0 -52 26 -31 60l170 250h51l-166 -247c-8 -12 -4 -23 13 -23h174l17 123l19 68h39l-27 -191h49z" />
    <glyph glyph-name="threequarters" unicode="&#xbe;" horiz-adv-x="942" 
d="M294 495l-5 -2c64 -9 80 -49 74 -107c-10 -83 -52 -119 -160 -119c-51 0 -100 5 -145 10l5 38c44 -4 84 -6 127 -6c78 0 113 24 122 89c6 39 -3 74 -84 74h-87l5 37l84 1c80 2 96 46 100 81c7 50 -13 62 -88 62c-46 0 -89 -2 -121 -5l-2 37c46 7 87 10 127 10
c110 0 146 -24 135 -98c-7 -52 -28 -93 -87 -102zM796 690l-556 -690h-49l556 690h49zM873 109l-55 -5l-14 -104h-48l14 104h-199c-32 0 -53 26 -31 60l170 250h50l-166 -247c-8 -12 -3 -23 13 -23h169l17 123l19 68h39l-27 -191h55z" />
    <glyph glyph-name="onesuperior" unicode="&#xb9;" horiz-adv-x="284" 
d="M213 360h-51l48 331c2 12 4 24 7 36l-118 -33l-1 38l122 42h52z" />
    <glyph glyph-name="twosuperior" unicode="&#xb2;" horiz-adv-x="420" 
d="M134 726l-2 40c63 13 97 15 135 15c81 0 136 -16 126 -91c-6 -52 -33 -89 -100 -150l-150 -134c22 2 48 3 70 3h157l-6 -49h-291l4 33c1 8 3 16 9 22l154 137c64 57 98 99 102 140c4 40 -27 44 -78 44c-43 0 -74 -2 -130 -10z" />
    <glyph glyph-name="threesuperior" unicode="&#xb3;" horiz-adv-x="402" 
d="M137 731l-3 40c46 7 89 10 123 10c100 0 133 -32 126 -97c-5 -44 -26 -99 -80 -105l-1 -3c54 -8 74 -45 65 -103c-9 -61 -50 -116 -165 -120c-37 -2 -82 1 -130 10l7 40c43 -4 82 -7 119 -5c74 5 111 35 119 85c7 40 -6 75 -79 75h-84l5 39l82 1c73 1 88 40 93 78
c6 48 -9 61 -87 61c-34 0 -79 -3 -110 -6z" />
    <glyph glyph-name="asterisk" unicode="*" horiz-adv-x="449" 
d="M271 532l81 -129l-35 -24l-62 125l-98 -124l-31 26l116 127l17 157h41zM228 553l-3 -18l-9 -12l-122 36l17 39zM426 556l-129 -33l-7 12l1 18l127 44z" />
    <glyph glyph-name="backslash" unicode="\" horiz-adv-x="499" 
d="M423 -63h-52l-289 753h52z" />
    <glyph glyph-name="bullet" unicode="&#x2022;" horiz-adv-x="358" 
d="M181 351h11c56 0 75 -22 67 -78l-2 -14c-7 -60 -28 -75 -85 -75h-11c-59 0 -78 21 -69 80l2 14c8 58 27 73 87 73z" />
    <glyph glyph-name="colon" unicode=":" horiz-adv-x="224" 
d="M132 437h22c19 0 25 -9 22 -27l-8 -57c-2 -16 -10 -23 -26 -23h-22c-18 0 -26 9 -23 26l8 57c2 16 11 24 27 24zM85 107h22c19 0 25 -9 22 -26l-8 -58c-2 -16 -10 -23 -26 -23h-22c-17 0 -25 9 -23 26l9 57c2 16 10 24 26 24z" />
    <glyph glyph-name="comma" unicode="," horiz-adv-x="219" 
d="M75 107h21c17 0 23 -8 20 -25l-9 -65c-6 -45 -26 -100 -49 -144l-32 11c12 41 21 69 29 117c-13 0 -20 9 -18 22l9 60c3 18 8 24 29 24z" />
    <glyph glyph-name="ellipsis" unicode="&#x2026;" horiz-adv-x="816" 
d="M83 107h22c19 0 25 -9 22 -26l-8 -58c-2 -16 -10 -23 -26 -23h-22c-18 0 -25 9 -23 26l8 57c2 16 11 24 27 24zM382 107h22c19 0 25 -9 22 -26l-8 -58c-2 -16 -10 -23 -26 -23h-22c-18 0 -26 9 -23 26l8 57c2 16 11 24 27 24zM681 107h22c19 0 24 -9 22 -26l-8 -58
c-2 -16 -10 -23 -26 -23h-22c-18 0 -26 9 -23 26l8 57c2 16 11 24 27 24z" />
    <glyph glyph-name="exclam" unicode="!" horiz-adv-x="264" 
d="M175 377l-29 -169h-51l17 169l45 318h63zM96 107h18c18 0 25 -9 22 -26l-8 -58c-1 -16 -10 -23 -26 -23h-18c-18 0 -25 9 -23 26l9 57c2 16 10 24 26 24z" />
    <glyph glyph-name="exclamdown" unicode="&#xa1;" horiz-adv-x="246" 
d="M141 488h18c18 0 25 -8 22 -26l-8 -56c-2 -16 -10 -24 -27 -24h-17c-18 0 -25 9 -23 25l8 58c2 16 11 23 27 23zM129 112l-43 -311h-64l44 311l30 168h51z" />
    <glyph glyph-name="numbersign" unicode="#" horiz-adv-x="675" 
d="M532 456l-62 -195h111l-15 -43h-109l-69 -218h-51l68 218h-199l-69 -218h-51l68 218h-116l14 43h116l61 195h-116l14 43h115l61 191h51l-60 -191h199l61 191h51l-60 -191h111l-14 -43h-110zM480 456h-199l-62 -195h200z" />
    <glyph glyph-name="period" unicode="." horiz-adv-x="218" 
d="M71 107h23c19 0 24 -9 22 -26l-8 -58c-2 -16 -10 -23 -26 -23h-22c-18 0 -26 9 -23 26l8 57c2 16 10 24 26 24z" />
    <glyph glyph-name="periodcentered" unicode="&#xb7;" horiz-adv-x="223" 
d="M102 311h22c19 0 25 -9 22 -26l-8 -58c-2 -16 -10 -23 -26 -23h-22c-18 0 -25 9 -23 26l9 58c2 16 10 23 26 23z" />
    <glyph glyph-name="question" unicode="?" horiz-adv-x="498" 
d="M94 646l-3 46c69 12 101 20 215 20c129 0 197 -50 182 -158c-21 -150 -206 -173 -234 -347l-55 1c24 185 204 219 222 343c10 78 -27 107 -126 107c-102 0 -133 -5 -201 -12zM202 107h18c18 0 25 -9 22 -26l-8 -57c-2 -16 -10 -24 -26 -24h-18c-18 0 -25 9 -23 26l9 57
c1 16 10 24 26 24z" />
    <glyph glyph-name="questiondown" unicode="&#xbf;" horiz-adv-x="495" 
d="M275 496h18c18 0 25 -8 23 -26l-8 -57c-2 -17 -10 -24 -26 -24h-18c-18 0 -25 8 -22 26l8 58c2 16 9 23 25 23zM229 288l54 -2c-24 -186 -202 -217 -221 -341c-12 -73 26 -106 125 -106c102 0 138 3 201 11l3 -46c-69 -11 -101 -20 -215 -20c-134 0 -195 59 -181 158
c20 149 207 176 234 346z" />
    <glyph glyph-name="quotedbl" unicode="&#x22;" horiz-adv-x="340" 
d="M149 478h-45l26 212h53zM287 478h-45l25 212h54z" />
    <glyph glyph-name="quotesingle" unicode="'" horiz-adv-x="202" 
d="M149 478h-45l26 212h53z" />
    <glyph glyph-name="semicolon" unicode=";" horiz-adv-x="228" 
d="M121 437h23c19 0 24 -9 22 -27l-8 -57c-2 -16 -10 -23 -26 -23h-22c-18 0 -26 9 -23 26l8 57c2 16 10 24 26 24zM79 107h21c18 0 23 -8 21 -25l-9 -65c-6 -45 -27 -100 -50 -144l-32 11c12 41 21 69 30 117c-14 0 -21 9 -19 22l9 60c3 18 9 24 29 24z" />
    <glyph glyph-name="slash" unicode="/" horiz-adv-x="514" 
d="M40 -63h-57l498 753h56z" />
    <glyph glyph-name="underscore" unicode="_" horiz-adv-x="588" 
d="M467 -50h-436l8 50h435z" />
    <glyph glyph-name="braceleft" unicode="{" horiz-adv-x="311" 
d="M332 768l-3 -41c-73 0 -101 -31 -111 -95l-26 -188c-11 -82 -29 -102 -100 -116c64 -23 81 -45 71 -115l-34 -245c-9 -64 7 -92 81 -92l-3 -41c-110 -6 -152 40 -138 132l36 261c8 54 -10 58 -56 76l7 50c52 15 65 16 74 81l29 204c13 92 59 136 173 129z" />
    <glyph glyph-name="braceright" unicode="}" horiz-adv-x="311" 
d="M106 727l3 41c113 7 152 -43 139 -132l-29 -204c-8 -65 3 -64 52 -80l-7 -50c-48 -17 -70 -23 -77 -77l-37 -261c-13 -92 -57 -135 -172 -129l3 41c73 0 100 31 109 94l34 246c11 70 30 90 104 112c-63 14 -80 37 -67 119l26 188c9 64 -6 92 -81 92z" />
    <glyph glyph-name="bracketleft" unicode="[" horiz-adv-x="319" 
d="M337 724h-106c-8 0 -16 -8 -18 -16l-114 -816c-1 -8 2 -13 10 -13h109l-6 -44h-134c-27 0 -45 16 -41 47l118 842c4 27 23 44 50 44h138z" />
    <glyph glyph-name="bracketright" unicode="]" horiz-adv-x="319" 
d="M109 768h134c27 0 45 -21 41 -47l-118 -842c-4 -26 -24 -44 -50 -44h-138l6 44h105c8 0 17 8 19 16l115 816c1 8 -3 13 -11 13h-109z" />
    <glyph glyph-name="parenleft" unicode="(" horiz-adv-x="355" 
d="M380 790l7 -33c-147 -69 -230 -209 -263 -447c-32 -226 7 -370 135 -443l-9 -32c-164 72 -225 228 -189 482c36 252 134 402 319 473z" />
    <glyph glyph-name="parenright" unicode=")" horiz-adv-x="355" 
d="M102 758l9 32c162 -70 226 -223 189 -483c-36 -251 -134 -400 -319 -472l-8 33c149 73 231 219 264 448c32 226 -6 373 -135 442z" />
    <glyph glyph-name="emdash" unicode="&#x2014;" horiz-adv-x="908" 
d="M822 227h-755l7 50h755z" />
    <glyph glyph-name="endash" unicode="&#x2013;" horiz-adv-x="602" 
d="M516 227h-449l7 50h449z" />
    <glyph glyph-name="hyphen" unicode="-" horiz-adv-x="459" 
d="M374 227h-307l7 50h307z" />
    <glyph glyph-name="softhyphen" unicode="&#xad;" horiz-adv-x="459" 
d="M373 227h-306l6 50h307z" />
    <glyph glyph-name="guillemotleft" unicode="&#xab;" horiz-adv-x="468" 
d="M256 433l-161 -183l113 -186l-32 -22l-137 204l2 16l188 195zM429 433l-161 -183l113 -186l-32 -22l-137 204l2 16l188 195z" />
    <glyph glyph-name="guillemotright" unicode="&#xbb;" horiz-adv-x="468" 
d="M27 65l161 182l-113 187l32 21l136 -204l-1 -15l-189 -196zM200 65l161 182l-113 187l32 21l136 -204l-1 -15l-189 -196z" />
    <glyph glyph-name="guilsinglleft" unicode="&#x2039;" horiz-adv-x="295" 
d="M256 433l-161 -183l113 -186l-32 -22l-137 204l2 16l188 195z" />
    <glyph glyph-name="guilsinglright" unicode="&#x203a;" horiz-adv-x="295" 
d="M244 254l-1 -16l-190 -196l-26 24l162 184l-113 186l32 21z" />
    <glyph glyph-name="quotedblbase" unicode="&#x201e;" horiz-adv-x="357" 
d="M74 101h20c17 0 23 -7 20 -24l-9 -62c-6 -43 -26 -95 -48 -137l-32 10c12 39 21 67 29 112c-13 0 -20 8 -18 21l9 58c3 17 8 22 29 22zM212 101h21c17 0 23 -7 20 -24l-9 -62c-6 -43 -26 -95 -48 -137l-32 10c12 39 21 67 29 112c-13 0 -20 8 -18 21l9 58
c3 17 8 22 28 22z" />
    <glyph glyph-name="quotedblleft" unicode="&#x201c;" horiz-adv-x="348" 
d="M143 503h-20c-17 0 -23 7 -20 24l9 63c5 43 26 95 48 137l31 -11c-12 -38 -20 -66 -29 -112c13 1 20 -8 19 -20l-9 -58c-3 -17 -9 -23 -29 -23zM282 503h-21c-16 0 -22 7 -19 24l9 63c5 43 26 95 48 137l31 -11c-12 -38 -20 -66 -29 -112c13 1 20 -8 19 -20l-9 -58
c-4 -17 -9 -23 -29 -23z" />
    <glyph glyph-name="quotedblright" unicode="&#x201d;" horiz-adv-x="346" 
d="M154 718h21c17 0 22 -7 20 -24l-9 -62c-6 -43 -26 -95 -48 -137l-32 10c12 39 21 67 29 113c-13 -1 -20 7 -18 20l9 58c3 17 8 22 28 22zM293 718h21c17 0 22 -7 20 -24l-9 -62c-6 -43 -26 -95 -48 -137l-32 10c12 39 21 67 29 113c-13 -1 -20 7 -18 20l8 58
c4 17 9 22 29 22z" />
    <glyph glyph-name="quoteleft" unicode="&#x2018;" horiz-adv-x="209" 
d="M143 503h-20c-17 0 -23 7 -20 24l9 63c5 43 26 95 48 137l31 -11c-12 -38 -20 -66 -29 -112c13 1 20 -8 19 -20l-9 -58c-3 -17 -9 -23 -29 -23z" />
    <glyph glyph-name="quoteright" unicode="&#x2019;" horiz-adv-x="207" 
d="M154 718h21c17 0 22 -7 20 -24l-9 -62c-6 -43 -26 -95 -48 -137l-32 10c12 39 21 67 29 113c-13 -1 -20 7 -18 20l9 58c3 17 8 22 28 22z" />
    <glyph glyph-name="quotesinglbase" unicode="&#x201a;" horiz-adv-x="220" 
d="M75 102h21c17 0 23 -7 20 -24l-9 -63c-6 -43 -27 -95 -49 -137l-33 11c13 39 22 66 30 112c-13 -1 -20 8 -19 20l9 58c4 18 9 23 30 23z" />
    <glyph glyph-name="space" unicode=" " horiz-adv-x="226" 
 />
    <glyph glyph-name="uni00A0" unicode="&#xa0;" horiz-adv-x="226" 
 />
    <glyph glyph-name="florin" unicode="&#x192;" horiz-adv-x="426" 
d="M168 393l40 169c20 90 69 138 164 138c25 0 69 -2 94 -6l-12 -48h-69c-67 0 -99 -22 -115 -93l-38 -160h151l-12 -51h-151l-81 -345c-21 -89 -64 -137 -157 -137c-24 0 -69 1 -93 6l11 47h67c64 0 94 26 110 93l79 336h-97l10 45z" />
    <glyph glyph-name="cent" unicode="&#xa2;" horiz-adv-x="504" 
d="M473 581l-11 -40c-33 4 -77 7 -109 7l-86 -399h5c31 0 96 3 144 11l5 -44c-48 -14 -108 -22 -159 -22h-9l-21 -94h-35l22 96c-134 12 -176 86 -152 256c27 185 95 251 258 251h7l19 87h35l-20 -89c36 -2 76 -8 107 -20zM232 150l86 398c-115 -4 -165 -47 -185 -201
c-19 -141 8 -188 99 -197z" />
    <glyph glyph-name="currency" unicode="&#xa4;" horiz-adv-x="597" 
d="M552 545l-78 -69c23 -34 32 -78 26 -127c-5 -50 -25 -93 -54 -125l69 -78l-31 -27l-68 78c-35 -25 -79 -39 -129 -39c-51 0 -93 16 -123 43l-78 -69l-28 31l79 69c-21 33 -30 75 -24 123c6 51 25 96 56 129l-67 77l30 29l69 -79c33 23 76 36 125 36c51 0 91 -15 121 -40
l78 70zM284 197c97 -3 166 61 176 158c9 89 -40 153 -134 153c-99 0 -163 -64 -173 -159c-9 -90 41 -150 131 -152z" />
    <glyph glyph-name="dollar" unicode="$" 
d="M532 684l-8 -47c-57 3 -100 5 -149 5l-55 -270l55 -22c105 -41 129 -89 115 -190c-21 -150 -99 -171 -254 -171l-25 -119h-35l25 119c-42 1 -100 4 -167 15l8 49c83 -4 129 -6 171 -6l58 275l-66 26c-97 38 -123 92 -111 187c21 153 108 168 240 166h19l20 100h35
l-21 -101c49 -2 98 -7 145 -16zM341 643h-15c-91 0 -151 -1 -166 -115c-8 -70 6 -96 75 -124l52 -20zM303 310l-55 -263c113 2 161 17 176 120c10 76 -7 98 -77 126z" />
    <glyph glyph-name="Euro" unicode="&#x20ac;" horiz-adv-x="637" 
d="M628 683l-12 -50c-40 7 -95 11 -144 10c-125 -3 -197 -54 -235 -201h268l-14 -42h-264c-3 -18 -7 -38 -10 -59l-4 -33h239l-14 -42h-228c-8 -157 43 -217 169 -219c46 -1 111 2 163 12l5 -50c-48 -14 -105 -21 -166 -21c-182 0 -248 92 -239 278h-90l6 42h88l5 40
c2 18 5 36 8 52h-87l6 42h90c42 177 129 260 306 260c66 0 115 -8 154 -19z" />
    <glyph glyph-name="sterling" unicode="&#xa3;" horiz-adv-x="564" 
d="M543 691l-8 -51c-55 3 -89 5 -173 5c-90 0 -127 -32 -135 -123l-12 -138h227l-8 -41h-222l-8 -86c-8 -94 -32 -159 -100 -203c20 2 41 2 62 2h313l-8 -56h-448l8 57c75 38 101 110 109 200l8 86h-81l6 41h78l13 141c15 157 90 176 207 176c42 0 105 -3 172 -10z" />
    <glyph glyph-name="yen" unicode="&#xa5;" horiz-adv-x="610" 
d="M369 317h155l-6 -40h-177l-10 -15l-8 -57h185l-6 -40h-184l-23 -165h-66l23 165h-181l6 40h181l8 60l-5 12h-174l5 40h153l-150 373h67l115 -292c9 -23 19 -50 25 -74h8c11 23 29 54 44 76l196 290h73z" />
    <glyph glyph-name="approxequal" unicode="&#x2248;" horiz-adv-x="588" 
d="M129 332l-43 3c4 82 44 108 100 107c78 -1 162 -59 239 -61c34 -1 53 10 60 57l44 -3c-4 -72 -35 -105 -103 -104c-84 0 -165 60 -237 62c-34 0 -53 -12 -60 -61zM102 141l-43 3c3 82 44 109 100 107c78 -1 162 -59 239 -61c34 -1 53 10 60 57l44 -2
c-4 -73 -34 -106 -102 -105c-84 1 -166 60 -238 62c-34 0 -53 -12 -60 -61z" />
    <glyph glyph-name="asciitilde" unicode="~" horiz-adv-x="526" 
d="M105 231l-34 3c4 76 41 110 87 107c78 -4 131 -56 199 -62c39 -3 55 16 62 59l34 -3c-3 -72 -40 -108 -87 -104c-89 4 -136 56 -199 61c-39 4 -56 -16 -62 -61z" />
    <glyph glyph-name="divide" unicode="&#xf7;" horiz-adv-x="575" 
d="M307 517h18c19 -1 25 -9 23 -27l-8 -53c-2 -16 -10 -23 -26 -23h-18c-18 0 -25 8 -23 26l8 53c2 16 10 24 26 24zM500 271h-431l7 49h431zM259 175h19c18 0 25 -8 23 -26l-9 -53c-1 -16 -10 -23 -26 -23h-18c-18 0 -24 8 -22 26l8 53c2 16 10 23 25 23z" />
    <glyph glyph-name="emptyset" unicode="&#x2205;" horiz-adv-x="685" 
d="M350 633c161 0 292 -131 292 -292c0 -162 -131 -293 -292 -293c-162 0 -293 131 -293 293c0 161 131 292 293 292zM319 241h54c0 105 94 120 94 211c0 63 -41 93 -117 93c-66 0 -83 -5 -122 -11l3 -45c40 6 58 9 119 9c42 0 66 -17 66 -46c0 -65 -97 -96 -97 -211z
M366 171h-39c-4 0 -7 -3 -7 -8v-37c0 -4 3 -7 7 -7h39c5 0 8 3 8 7v37c0 5 -3 8 -8 8z" />
    <glyph glyph-name="equal" unicode="=" horiz-adv-x="588" 
d="M520 373h-431l7 49h431zM491 162h-431l7 49h431z" />
    <glyph glyph-name="greater" unicode="&#x3e;" horiz-adv-x="529" 
d="M478 322l-7 -51l-426 -173l7 55l366 147l-323 150l7 50z" />
    <glyph glyph-name="greaterequal" unicode="&#x2265;" horiz-adv-x="570" 
d="M499 381l-7 -52l-422 -132l8 53l361 110l-329 118l7 48zM469 88h-424l7 48h424z" />
    <glyph glyph-name="infinity" unicode="&#x221e;" horiz-adv-x="781" 
d="M601 443c76 0 130 -44 117 -134c-13 -93 -83 -139 -161 -139c-89 0 -129 52 -165 101c-57 -51 -119 -101 -199 -101s-139 50 -126 145c13 89 77 128 153 128c82 0 127 -49 173 -106c52 48 123 106 208 106zM121 308c-9 -60 23 -90 81 -90c65 0 107 40 161 91
c-38 51 -68 86 -134 86c-58 0 -99 -25 -108 -87zM663 314c9 58 -22 81 -73 81c-73 0 -121 -53 -168 -96c31 -42 55 -81 127 -81c60 0 106 32 114 96z" />
    <glyph glyph-name="integral" unicode="&#x222b;" horiz-adv-x="376" 
d="M129 -77l50 659c7 88 49 132 125 132c24 0 63 -1 92 -4l-8 -46h-64c-55 0 -84 -25 -89 -93l-50 -661c-8 -89 -44 -132 -128 -132c-20 0 -69 1 -90 4l9 46h63c55 0 84 26 90 95z" />
    <glyph glyph-name="less" unicode="&#x3c;" horiz-adv-x="530" 
d="M479 444l-367 -149l324 -147l-7 -51l-377 174l7 51l427 177z" />
    <glyph glyph-name="lessequal" unicode="&#x2264;" horiz-adv-x="572" 
d="M512 473l-364 -118l332 -108l-8 -50l-384 132l7 52l424 145zM471 88h-425l7 48h425z" />
    <glyph glyph-name="logicalnot" unicode="&#xac;" horiz-adv-x="588" 
d="M512 322l-27 -188h-51l20 138h-380l7 50h431z" />
    <glyph glyph-name="minus" unicode="&#x2212;" horiz-adv-x="587" 
d="M505 271h-430l7 49h431z" />
    <glyph glyph-name="multiply" unicode="&#xd7;" horiz-adv-x="525" 
d="M299 285l134 -138l-36 -36l-138 142l-181 -144l-30 42l175 139l-133 138l36 36l137 -142l184 147l30 -42z" />
    <glyph glyph-name="notequal" unicode="&#x2260;" horiz-adv-x="612" 
d="M374 373l-121 -162h256l-6 -49h-287l-92 -124l-23 12l84 112h-113l7 49h142l122 162h-242l7 49h271l81 108l23 -12l-72 -96h127l-6 -49h-158z" />
    <glyph glyph-name="partialdiff" unicode="&#x2202;" horiz-adv-x="569" 
d="M188 653l3 49c262 2 369 -53 315 -368c-38 -229 -122 -346 -283 -346c-153 0 -203 105 -174 238c27 132 104 221 233 220c63 0 125 -23 163 -90c40 238 -8 299 -257 297zM224 45c128 0 184 114 214 274c-47 62 -106 73 -145 73c-98 0 -158 -62 -182 -172
c-24 -111 14 -175 113 -175z" />
    <glyph glyph-name="percent" unicode="%" horiz-adv-x="888" 
d="M259 702c119 0 153 -62 132 -207c-20 -143 -67 -201 -181 -201c-118 0 -151 62 -131 207c20 143 65 201 180 201zM198 0h-52l556 690h51zM262 661c-91 0 -117 -47 -134 -166c-16 -116 2 -160 80 -160c89 0 118 47 134 166c16 117 0 160 -80 160zM692 400
c120 0 153 -62 132 -207c-20 -143 -67 -202 -181 -202c-118 0 -151 62 -131 208c20 142 65 201 180 201zM695 359c-91 0 -117 -48 -134 -166c-16 -117 2 -161 80 -161c89 0 118 47 134 167c16 116 0 160 -80 160z" />
    <glyph glyph-name="perthousand" unicode="&#x2030;" horiz-adv-x="1256" 
d="M259 702c119 0 153 -62 132 -207c-20 -143 -67 -201 -181 -201c-118 0 -151 62 -131 207c20 143 65 201 180 201zM198 0h-52l556 690h51zM262 661c-91 0 -117 -47 -134 -166c-16 -116 2 -160 80 -160c89 0 118 47 134 166c16 117 0 160 -80 160zM692 400
c120 0 153 -62 132 -207c-20 -143 -67 -202 -181 -202c-118 0 -151 62 -131 208c20 142 65 201 180 201zM1058 400c119 0 153 -62 132 -207c-20 -143 -67 -202 -181 -202c-118 0 -151 62 -131 208c20 142 65 201 180 201zM695 359c-91 0 -117 -48 -134 -166
c-16 -117 2 -161 80 -161c89 0 118 47 134 167c16 116 0 160 -80 160zM1061 359c-91 0 -117 -48 -134 -166c-16 -117 2 -161 80 -161c89 0 118 47 134 167c16 116 0 160 -80 160z" />
    <glyph glyph-name="plus" unicode="+" horiz-adv-x="549" 
d="M486 274h-190l-25 -181h-50l26 181h-191l7 49h190l25 180h51l-26 -180h191z" />
    <glyph glyph-name="plusminus" unicode="&#xb1;" horiz-adv-x="589" 
d="M522 379l-7 -49h-190l-20 -138h-49l19 138h-191l7 49h190l19 138h51l-19 -138h190zM56 127h431l-8 -49h-430z" />
    <glyph glyph-name="product" unicode="&#x220f;" horiz-adv-x="722" 
d="M728 636h-110l-104 -742h-64l105 742h-296l-104 -742h-63l104 742h-110l7 54h642z" />
    <glyph glyph-name="radical" unicode="&#x221a;" horiz-adv-x="557" 
d="M612 876l-391 -869c-2 -5 -5 -7 -11 -7h-73c-6 0 -14 4 -13 9l-60 475h53l54 -439h14l371 831h56z" />
    <glyph glyph-name="summation" unicode="&#x2211;" horiz-adv-x="583" 
d="M569 636h-390l137 -285l-241 -397h408l-8 -54h-480l8 54l243 399l-135 283l7 54h458z" />
    <glyph glyph-name="lozenge" unicode="&#x25ca;" horiz-adv-x="578" 
d="M47 355l290 338c5 5 11 4 15 -2l195 -339c2 -5 3 -9 0 -15l-290 -340c-6 -6 -12 -4 -15 2l-196 341c-2 5 -3 9 1 15zM100 345l156 -279l239 282l-156 277z" />
    <glyph glyph-name="ampersand" unicode="&#x26;" horiz-adv-x="767" 
d="M726 332h-122c-11 -73 -31 -134 -64 -188c-67 -110 -166 -153 -301 -155c-151 -3 -211 46 -191 188c17 115 74 175 183 179l1 4c-94 7 -120 66 -104 164c25 146 103 175 255 175c49 0 103 -4 164 -22l-11 -48c-46 11 -104 15 -152 15c-125 0 -173 -20 -191 -132
c-18 -103 22 -129 139 -129h220c4 42 5 88 4 138h59c0 -50 -1 -96 -5 -138h124zM545 332h-219c-130 -1 -187 -25 -208 -151c-19 -111 25 -135 117 -135c123 0 199 41 252 124c30 45 48 100 58 162z" />
    <glyph glyph-name="asciicircum" unicode="^" horiz-adv-x="414" 
d="M405 385l-29 -18l-119 177h-8l-173 -177l-26 19l183 205h46z" />
    <glyph glyph-name="at" unicode="@" horiz-adv-x="760" 
d="M117 578l5 47c92 4 206 6 304 7c254 1 293 -36 255 -323c-33 -247 -68 -319 -194 -319c-77 0 -103 44 -97 113c-59 -67 -125 -115 -210 -115c-122 0 -143 95 -118 238c32 186 92 222 242 222c62 0 121 -8 197 -20l-49 -325c-5 -41 5 -58 39 -58c82 0 101 57 130 269
c36 255 12 264 -196 264h-308zM398 164l35 227c-53 3 -83 4 -109 4c-145 0 -175 -27 -200 -174c-21 -120 -14 -179 68 -179c70 0 134 42 206 122z" />
    <glyph glyph-name="bar" unicode="|" horiz-adv-x="241" 
d="M79 -169h-47l133 950h48z" />
    <glyph glyph-name="brokenbar" unicode="&#xa6;" horiz-adv-x="241" 
d="M157 381h-48l56 400h48zM80 -169h-48l56 400h48z" />
    <glyph glyph-name="copyright" unicode="&#xa9;" horiz-adv-x="842" 
d="M471 702c206 0 344 -144 315 -360c-26 -204 -179 -354 -401 -354c-210 0 -342 149 -314 360c26 202 177 354 400 354zM473 667c-201 0 -341 -137 -366 -325c-24 -194 98 -319 277 -319c200 0 341 136 365 325c25 189 -91 319 -276 319zM547 174l3 -37
c-42 -9 -83 -14 -139 -14c-152 0 -195 59 -172 227c23 167 82 222 228 222c56 0 90 -4 129 -13l-8 -36c-42 4 -75 5 -116 5c-119 0 -162 -36 -183 -183c-19 -134 9 -177 115 -177c63 0 101 1 143 6z" />
    <glyph glyph-name="dagger" unicode="&#x2020;" horiz-adv-x="440" 
d="M192 -110h-58l80 555l5 35l27 211h59l-32 -211l-5 -35zM63 427l8 57h132l-7 -49zM423 484l-8 -57l-131 8l7 49h132z" />
    <glyph glyph-name="daggerdbl" unicode="&#x2021;" horiz-adv-x="480" 
d="M294 483l-55 -385l-26 -208h-59l32 208l54 385l26 208h59zM434 427l-130 8l7 49h132zM215 435l-132 -8l8 57h132zM175 146l-7 -49h-132l8 57zM388 97h-132l7 49l133 8z" />
    <glyph glyph-name="degree" unicode="&#xb0;" horiz-adv-x="370" 
d="M234 702c77 0 125 -55 117 -128c-7 -75 -66 -124 -138 -124c-81 0 -122 61 -116 130c7 74 65 122 137 122zM233 663c-51 0 -89 -35 -94 -86s26 -87 76 -87c49 0 89 33 94 87c5 50 -24 86 -76 86z" />
    <glyph glyph-name="paragraph" unicode="&#xb6;" horiz-adv-x="593" 
d="M451 0h-51l92 652c-40 4 -86 6 -116 6l-122 -868h-51l58 411c-161 17 -218 103 -195 261c27 188 117 240 329 240c44 0 107 -6 153 -17z" />
    <glyph glyph-name="registered" unicode="&#xae;" horiz-adv-x="564" 
d="M328 701c131 0 218 -84 202 -224c-16 -130 -107 -221 -241 -221c-135 0 -219 93 -203 229c15 136 113 216 242 216zM505 482c13 125 -59 196 -177 196c-128 0 -204 -82 -217 -197c-14 -127 63 -201 178 -201c123 0 203 84 216 202zM187 346l38 267c37 3 64 3 103 3
c65 0 108 -8 99 -78c-5 -43 -23 -60 -65 -68l-1 -2c14 -5 22 -15 28 -39l22 -83h-34l-20 84c-6 23 -19 30 -39 30h-82l-17 -114h-32zM239 484h76c51 1 74 8 80 57c6 45 -13 50 -66 50h-75z" />
    <glyph glyph-name="section" unicode="&#xa7;" horiz-adv-x="544" 
d="M354 327l-164 103c-65 40 -94 80 -83 154c15 102 83 119 203 118c51 0 153 -4 218 -12l-9 -49c-61 4 -97 6 -195 7c-90 1 -140 -4 -151 -71c-7 -51 17 -77 54 -100l161 -99c88 -54 89 -122 56 -230l-48 1c20 88 19 140 -42 178zM96 397l47 -1c-20 -88 -21 -135 41 -173
l166 -103c62 -38 93 -78 82 -155c-17 -112 -92 -121 -203 -120c-63 1 -138 4 -218 12l9 49c70 -4 126 -6 195 -7c80 -1 140 2 151 74c7 52 -19 79 -54 101l-159 96c-89 53 -91 118 -57 227z" />
    <glyph glyph-name="trademark" unicode="&#x2122;" horiz-adv-x="951" 
d="M840 696h53c12 0 20 -9 18 -21l-34 -359h-44l31 343h-12l-144 -287c-5 -11 -10 -14 -21 -14h-40c-11 0 -18 7 -19 17l-67 284h-12l-63 -343h-45l67 362c2 12 7 18 19 18h51c11 0 18 -7 19 -17l55 -237c4 -17 6 -36 10 -53h14c7 18 15 36 24 54l120 239c5 10 10 14 20 14z
M436 656h-136l-48 -340h-47l47 340h-135l5 40h319z" />
    <glyph glyph-name="acute" unicode="&#xb4;" horiz-adv-x="301" 
d="M318 670l-194 -128l-22 30l184 147z" />
    <glyph glyph-name="breve" unicode="&#x2d8;" horiz-adv-x="368" 
d="M358 695l34 -9c-8 -75 -68 -124 -158 -124c-94 0 -146 51 -132 127l35 3c-7 -52 31 -81 97 -81c70 0 118 32 124 84z" />
    <glyph glyph-name="brevecy" horiz-adv-x="367" 
d="M342 692h50c-8 -77 -68 -130 -158 -130c-93 0 -146 53 -132 130h51c-10 -63 22 -93 84 -93c58 0 97 30 105 93z" />
    <glyph glyph-name="caron" unicode="&#x2c7;" horiz-adv-x="410" 
d="M426 689l-151 -123h-47l-118 126l26 25l114 -100h8l147 100z" />
    <glyph glyph-name="cedilla" unicode="&#xb8;" horiz-adv-x="228" 
d="M44 -76l8 31c69 6 102 -11 92 -68c-12 -77 -81 -125 -172 -113l12 35c60 -2 105 34 113 79c4 28 -6 35 -53 36z" />
    <glyph glyph-name="circumflex" unicode="&#x2c6;" horiz-adv-x="410" 
d="M415 583l-24 -26l-118 101h-9l-147 -100l-19 28l149 124h46z" />
    <glyph glyph-name="dieresis" unicode="&#xa8;" horiz-adv-x="407" 
d="M171 688h20c15 0 19 -6 17 -20l-8 -54c-2 -14 -8 -20 -22 -20h-20c-13 0 -19 6 -18 19l8 55c2 14 9 20 23 20zM343 688h19c16 0 20 -6 18 -20l-9 -54c-1 -14 -7 -20 -21 -20h-21c-12 0 -19 6 -17 19l8 55c2 14 9 20 23 20z" />
    <glyph glyph-name="dotaccent" unicode="&#x2d9;" horiz-adv-x="215" 
d="M157 682h21c14 0 22 -8 20 -22l-8 -58c-2 -14 -8 -20 -23 -20h-20c-14 0 -22 8 -20 22l8 58c2 14 7 20 22 20z" />
    <glyph glyph-name="grave" unicode="`" horiz-adv-x="301" 
d="M283 571l-25 -29l-167 131l37 45z" />
    <glyph glyph-name="hungarumlaut" unicode="&#x2dd;" horiz-adv-x="439" 
d="M437 694l-150 -156l-28 22l137 164zM281 694l-150 -156l-28 22l137 164z" />
    <glyph glyph-name="macron" unicode="&#xaf;" horiz-adv-x="400" 
d="M388 615h-272l7 49h272z" />
    <glyph glyph-name="ogonek" unicode="&#x2db;" horiz-adv-x="252" 
d="M109 2l32 -2c-36 -35 -68 -73 -94 -121c-28 -52 3 -68 74 -45l8 -28c-125 -51 -165 7 -130 77c17 33 49 73 110 119z" />
    <glyph glyph-name="ring" unicode="&#x2da;" horiz-adv-x="297" 
d="M211 739c61 0 103 -45 96 -105c-7 -52 -48 -98 -110 -98s-102 45 -95 104c6 53 47 99 109 99zM211 704c-40 0 -67 -31 -71 -68c-5 -39 21 -65 58 -65c39 0 67 30 71 68c4 36 -18 65 -58 65z" />
    <glyph glyph-name="tilde" unicode="&#x2dc;" horiz-adv-x="412" 
d="M133 588l-31 3c4 73 42 108 88 104c62 -5 82 -54 137 -60c41 -4 58 15 64 56l32 -2c-4 -70 -40 -105 -88 -101c-69 5 -92 55 -138 61c-40 4 -58 -18 -64 -61z" />
    </font>
</defs>
</svg>
